<svg width="403" height="250" viewBox="0 0 403 250" fill="none" xmlns="http://www.w3.org/2000/svg">
<mask id="mask0_19_62" style="mask-type:alpha" maskUnits="userSpaceOnUse" x="0" y="0" width="403" height="250">
<rect y="0.0174561" width="403" height="249.309" rx="14.0601" fill="#16194F"/>
</mask>
<g mask="url(#mask0_19_62)">
<path d="M322.374 -62.6549C335.808 -77.0549 358.631 -77.0549 372.065 -62.6549L398.311 -34.5221C403.756 -28.6854 411.082 -24.952 419.004 -23.9767L457.158 -19.2795C475.524 -17.0186 488.703 -0.477626 486.806 17.9289L482.095 63.6184C481.358 70.7722 482.909 77.9755 486.526 84.1915L509.595 123.839C518.575 139.271 514.079 159.02 499.305 169.045L464.078 192.947C457.85 197.173 453.202 203.346 450.862 210.5L437.598 251.047C431.589 269.415 411.492 279.08 393.393 272.306L359.13 259.482C351.45 256.607 342.99 256.607 335.309 259.482L301.047 272.306C282.948 279.08 262.851 269.415 256.842 251.047L243.578 210.5C241.238 203.346 236.589 197.173 230.362 192.947L195.135 169.045C180.361 159.02 175.865 139.271 184.844 123.839L207.914 84.1915C211.531 77.9755 213.082 70.7722 212.344 63.6184L207.634 17.929C205.736 -0.477596 218.916 -17.0186 237.282 -19.2795L275.435 -23.9767C283.358 -24.952 290.684 -28.6854 296.129 -34.5221L322.374 -62.6549Z" fill="#9A94FF"/>
<path d="M118.28 -161.262C131.714 -175.662 154.537 -175.662 167.971 -161.262L194.216 -133.129C199.661 -127.293 206.987 -123.559 214.91 -122.584L253.063 -117.887C271.429 -115.626 284.609 -99.0849 282.711 -80.6784L278.001 -34.9889C277.263 -27.8351 278.815 -20.6318 282.431 -14.4158L305.501 25.2318C314.48 40.6637 309.984 60.4127 295.21 70.4373L259.984 94.3397C253.756 98.5654 249.107 104.739 246.767 111.892L233.503 152.44C227.494 170.808 207.397 180.472 189.298 173.698L155.036 160.875C147.356 158 138.895 158 131.215 160.875L96.9526 173.698C78.8534 180.472 58.7561 170.808 52.7475 152.44L39.4832 111.892C37.1433 104.739 32.4947 98.5654 26.2669 94.3397L-8.95971 70.4373C-23.7338 60.4127 -28.2295 40.6637 -19.2503 25.2318L3.81919 -14.4158C7.43604 -20.6318 8.98736 -27.8351 8.24985 -34.9889L3.5395 -80.6783C1.64188 -99.0849 14.8216 -115.626 33.1871 -117.887L71.3408 -122.584C79.2632 -123.559 86.5894 -127.293 92.0345 -133.129L118.28 -161.262Z" fill="#CAC7FF"/>
<path d="M130.205 94.7409C145.608 78.2303 171.776 78.2303 187.179 94.7409L217.271 126.997C223.514 133.689 231.914 137.97 240.998 139.088L284.744 144.474C305.801 147.066 320.913 166.032 318.737 187.136L313.336 239.522C312.491 247.725 314.269 255.984 318.416 263.111L344.867 308.57C355.163 326.263 350.008 348.907 333.068 360.401L292.678 387.807C285.538 392.652 280.208 399.731 277.525 407.932L262.317 454.423C255.427 475.483 232.384 486.564 211.632 478.797L172.348 464.094C163.542 460.798 153.842 460.798 145.036 464.094L105.752 478.797C84.9996 486.564 61.9566 475.483 55.0673 454.423L39.8588 407.932C37.1759 399.731 31.846 392.652 24.7054 387.807L-15.6845 360.401C-32.6241 348.907 -37.7787 326.264 -27.4833 308.57L-1.03257 263.111C3.11442 255.984 4.89313 247.725 4.04751 239.522L-1.35325 187.136C-3.52901 166.032 11.5825 147.066 32.6399 144.474L76.3858 139.088C85.4694 137.97 93.8694 133.689 100.113 126.997L130.205 94.7409Z" fill="#16194F"/>
<mask id="mask1_19_62" style="mask-type:alpha" maskUnits="userSpaceOnUse" x="-24" y="-173" width="335" height="349">
<path d="M118.28 -161.262C131.714 -175.662 154.537 -175.662 167.971 -161.262L194.216 -133.129C199.661 -127.293 206.987 -123.559 214.91 -122.584L253.063 -117.887C271.429 -115.626 284.609 -99.0849 282.711 -80.6784L278.001 -34.9889C277.263 -27.8351 278.815 -20.6318 282.431 -14.4158L305.501 25.2318C314.48 40.6637 309.984 60.4127 295.21 70.4373L259.984 94.3397C253.756 98.5654 249.107 104.739 246.767 111.892L233.503 152.44C227.494 170.808 207.397 180.472 189.298 173.698L155.036 160.875C147.356 158 138.895 158 131.215 160.875L96.9526 173.698C78.8534 180.472 58.7561 170.808 52.7475 152.44L39.4832 111.892C37.1433 104.739 32.4947 98.5654 26.2669 94.3397L-8.95971 70.4373C-23.7338 60.4127 -28.2295 40.6637 -19.2503 25.2318L3.81919 -14.4158C7.43604 -20.6318 8.98736 -27.8351 8.24985 -34.9889L3.5395 -80.6783C1.64188 -99.0849 14.8216 -115.626 33.1871 -117.887L71.3408 -122.584C79.2632 -123.559 86.5894 -127.293 92.0345 -133.129L118.28 -161.262Z" fill="#CAC7FF"/>
</mask>
<g mask="url(#mask1_19_62)">
<path d="M130.205 94.7408C145.608 78.2302 171.776 78.2302 187.179 94.7408L217.271 126.997C223.514 133.689 231.914 137.97 240.998 139.088L284.744 144.474C305.801 147.066 320.913 166.032 318.737 187.136L313.336 239.522C312.491 247.725 314.269 255.984 318.416 263.111L344.867 308.57C355.162 326.263 350.008 348.907 333.068 360.401L292.678 387.807C285.538 392.652 280.208 399.731 277.525 407.932L262.316 454.423C255.427 475.483 232.384 486.564 211.632 478.797L172.348 464.094C163.542 460.798 153.841 460.798 145.035 464.094L105.751 478.797C84.9994 486.564 61.9563 475.483 55.0671 454.423L39.8586 407.932C37.1757 399.731 31.8457 392.652 24.7052 387.807L-15.6847 360.401C-32.6243 348.907 -37.7789 326.263 -27.4836 308.57L-1.03281 263.111C3.11418 255.984 4.89288 247.725 4.04727 239.522L-1.35349 187.136C-3.52925 166.032 11.5823 147.066 32.6396 144.474L76.3856 139.088C85.4692 137.97 93.8692 133.689 100.112 126.997L130.205 94.7408Z" fill="#F44E77"/>
</g>
</g>
</svg>
