<svg width="566" height="546" viewBox="0 0 566 546" fill="none" xmlns="http://www.w3.org/2000/svg">
<g filter="url(#filter0_d_161_3)">
<rect x="50" y="25" width="223" height="180" rx="50" fill="white"/>
<rect x="50.25" y="25.25" width="222.5" height="179.5" rx="49.75" stroke="#CAD6F1" stroke-width="0.5"/>
</g>
<path d="M91.6504 87V72.7812H96.2988C97.8418 72.7812 99.0007 73.1003 99.7754 73.7383C100.557 74.3763 100.947 75.3203 100.947 76.5703C100.947 77.2344 100.758 77.8236 100.381 78.3379C100.003 78.8457 99.4889 79.2396 98.8379 79.5195C99.6061 79.7344 100.212 80.1445 100.654 80.75C101.104 81.349 101.328 82.0651 101.328 82.8984C101.328 84.1745 100.915 85.1771 100.088 85.9062C99.2611 86.6354 98.0924 87 96.582 87H91.6504ZM93.5254 80.3496V85.4668H96.6211C97.4935 85.4668 98.1803 85.2422 98.6816 84.793C99.1895 84.3372 99.4434 83.7122 99.4434 82.918C99.4434 81.2057 98.5124 80.3496 96.6504 80.3496H93.5254ZM93.5254 78.8457H96.3574C97.1777 78.8457 97.832 78.6406 98.3203 78.2305C98.8151 77.8203 99.0625 77.2637 99.0625 76.5605C99.0625 75.7793 98.8346 75.2129 98.3789 74.8613C97.9232 74.5033 97.2298 74.3242 96.2988 74.3242H93.5254V78.8457ZM110.352 87C110.247 86.7917 110.163 86.4206 110.098 85.8867C109.258 86.7591 108.255 87.1953 107.09 87.1953C106.048 87.1953 105.192 86.9023 104.521 86.3164C103.857 85.724 103.525 84.9753 103.525 84.0703C103.525 82.9701 103.942 82.1172 104.775 81.5117C105.615 80.8997 106.794 80.5938 108.311 80.5938H110.068V79.7637C110.068 79.1322 109.88 78.6309 109.502 78.2598C109.124 77.8822 108.568 77.6934 107.832 77.6934C107.188 77.6934 106.647 77.8561 106.211 78.1816C105.775 78.5072 105.557 78.901 105.557 79.3633H103.74C103.74 78.8359 103.926 78.3281 104.297 77.8398C104.674 77.3451 105.182 76.9544 105.82 76.668C106.465 76.3815 107.171 76.2383 107.939 76.2383C109.157 76.2383 110.111 76.5443 110.801 77.1562C111.491 77.7617 111.849 78.5983 111.875 79.666V84.5293C111.875 85.4993 111.999 86.2708 112.246 86.8438V87H110.352ZM107.354 85.623C107.92 85.623 108.457 85.4766 108.965 85.1836C109.473 84.8906 109.84 84.5098 110.068 84.041V81.873H108.652C106.439 81.873 105.332 82.5208 105.332 83.8164C105.332 84.3828 105.521 84.8255 105.898 85.1445C106.276 85.4635 106.761 85.623 107.354 85.623ZM116.67 87H114.863V72H116.67V87ZM126.094 87C125.99 86.7917 125.905 86.4206 125.84 85.8867C125 86.7591 123.997 87.1953 122.832 87.1953C121.79 87.1953 120.934 86.9023 120.264 86.3164C119.6 85.724 119.268 84.9753 119.268 84.0703C119.268 82.9701 119.684 82.1172 120.518 81.5117C121.357 80.8997 122.536 80.5938 124.053 80.5938H125.811V79.7637C125.811 79.1322 125.622 78.6309 125.244 78.2598C124.867 77.8822 124.31 77.6934 123.574 77.6934C122.93 77.6934 122.389 77.8561 121.953 78.1816C121.517 78.5072 121.299 78.901 121.299 79.3633H119.482C119.482 78.8359 119.668 78.3281 120.039 77.8398C120.417 77.3451 120.924 76.9544 121.562 76.668C122.207 76.3815 122.913 76.2383 123.682 76.2383C124.899 76.2383 125.853 76.5443 126.543 77.1562C127.233 77.7617 127.591 78.5983 127.617 79.666V84.5293C127.617 85.4993 127.741 86.2708 127.988 86.8438V87H126.094ZM123.096 85.623C123.662 85.623 124.199 85.4766 124.707 85.1836C125.215 84.8906 125.583 84.5098 125.811 84.041V81.873H124.395C122.181 81.873 121.074 82.5208 121.074 83.8164C121.074 84.3828 121.263 84.8255 121.641 85.1445C122.018 85.4635 122.503 85.623 123.096 85.623ZM132.158 76.4336L132.217 77.7617C133.024 76.7461 134.079 76.2383 135.381 76.2383C137.614 76.2383 138.74 77.498 138.76 80.0176V87H136.953V80.0078C136.947 79.2461 136.771 78.6829 136.426 78.3184C136.087 77.9538 135.557 77.7715 134.834 77.7715C134.248 77.7715 133.734 77.9277 133.291 78.2402C132.848 78.5527 132.503 78.9629 132.256 79.4707V87H130.449V76.4336H132.158ZM145.723 85.7207C146.367 85.7207 146.93 85.5254 147.412 85.1348C147.894 84.7441 148.161 84.2559 148.213 83.6699H149.922C149.889 84.2754 149.681 84.8516 149.297 85.3984C148.913 85.9453 148.398 86.3815 147.754 86.707C147.116 87.0326 146.439 87.1953 145.723 87.1953C144.284 87.1953 143.138 86.7168 142.285 85.7598C141.439 84.7962 141.016 83.4811 141.016 81.8145V81.5117C141.016 80.4831 141.204 79.5684 141.582 78.7676C141.96 77.9668 142.5 77.3451 143.203 76.9023C143.913 76.4596 144.749 76.2383 145.713 76.2383C146.898 76.2383 147.881 76.5931 148.662 77.3027C149.45 78.0124 149.87 78.9336 149.922 80.0664H148.213C148.161 79.3828 147.9 78.8229 147.432 78.3867C146.969 77.944 146.396 77.7227 145.713 77.7227C144.795 77.7227 144.082 78.0547 143.574 78.7188C143.073 79.3763 142.822 80.3301 142.822 81.5801V81.9219C142.822 83.1393 143.073 84.0768 143.574 84.7344C144.076 85.3919 144.792 85.7207 145.723 85.7207ZM156.338 87.1953C154.906 87.1953 153.74 86.7266 152.842 85.7891C151.943 84.8451 151.494 83.5853 151.494 82.0098V81.6777C151.494 80.6296 151.693 79.6953 152.09 78.875C152.493 78.0482 153.053 77.4036 153.77 76.9414C154.492 76.4727 155.273 76.2383 156.113 76.2383C157.487 76.2383 158.555 76.6908 159.316 77.5957C160.078 78.5007 160.459 79.7962 160.459 81.4824V82.2344H153.301C153.327 83.276 153.63 84.1191 154.209 84.7637C154.795 85.4017 155.537 85.7207 156.436 85.7207C157.074 85.7207 157.614 85.5905 158.057 85.3301C158.499 85.0697 158.887 84.7246 159.219 84.2949L160.322 85.1543C159.437 86.515 158.109 87.1953 156.338 87.1953ZM156.113 77.7227C155.384 77.7227 154.772 77.9896 154.277 78.5234C153.783 79.0508 153.477 79.793 153.359 80.75H158.652V80.6133C158.6 79.6953 158.353 78.9857 157.91 78.4844C157.467 77.9766 156.868 77.7227 156.113 77.7227Z" fill="black"/>
<path d="M105.43 141.52C105.43 140.452 105.13 139.605 104.531 138.98C103.945 138.342 102.943 137.757 101.523 137.223C100.104 136.689 98.8802 136.161 97.8516 135.641C96.8229 135.107 95.9375 134.501 95.1953 133.824C94.4661 133.134 93.8932 132.327 93.4766 131.402C93.0729 130.478 92.8711 129.378 92.8711 128.102C92.8711 125.901 93.5742 124.098 94.9805 122.691C96.3867 121.285 98.2552 120.465 100.586 120.23V116.051H103.711V120.289C106.016 120.615 107.819 121.578 109.121 123.18C110.423 124.768 111.074 126.832 111.074 129.371H105.43C105.43 127.809 105.104 126.643 104.453 125.875C103.815 125.094 102.956 124.703 101.875 124.703C100.807 124.703 99.9805 125.009 99.3945 125.621C98.8086 126.22 98.5156 127.053 98.5156 128.121C98.5156 129.111 98.8021 129.905 99.375 130.504C99.9479 131.103 101.009 131.715 102.559 132.34C104.121 132.965 105.404 133.557 106.406 134.117C107.409 134.664 108.255 135.289 108.945 135.992C109.635 136.682 110.163 137.477 110.527 138.375C110.892 139.26 111.074 140.296 111.074 141.48C111.074 143.694 110.384 145.491 109.004 146.871C107.624 148.251 105.723 149.065 103.301 149.312V153.199H100.195V149.332C97.526 149.046 95.4557 148.102 93.9844 146.5C92.526 144.885 91.7969 142.743 91.7969 140.074H97.4414C97.4414 141.624 97.806 142.815 98.5352 143.648C99.2773 144.469 100.339 144.879 101.719 144.879C102.865 144.879 103.77 144.579 104.434 143.98C105.098 143.368 105.43 142.548 105.43 141.52ZM115.742 135.016L117.383 120.562H133.32V125.27H122.012L121.309 131.383C122.65 130.667 124.076 130.309 125.586 130.309C128.294 130.309 130.417 131.148 131.953 132.828C133.49 134.508 134.258 136.858 134.258 139.879C134.258 141.715 133.867 143.362 133.086 144.82C132.318 146.266 131.211 147.392 129.766 148.199C128.32 148.993 126.615 149.391 124.648 149.391C122.93 149.391 121.335 149.046 119.863 148.355C118.392 147.652 117.227 146.669 116.367 145.406C115.521 144.143 115.072 142.704 115.02 141.09H120.605C120.723 142.275 121.133 143.199 121.836 143.863C122.552 144.514 123.483 144.84 124.629 144.84C125.905 144.84 126.888 144.384 127.578 143.473C128.268 142.548 128.613 141.246 128.613 139.566C128.613 137.952 128.216 136.715 127.422 135.855C126.628 134.996 125.501 134.566 124.043 134.566C122.702 134.566 121.615 134.918 120.781 135.621L120.234 136.129L115.742 135.016ZM139.57 156.129L136.621 154.586L137.324 153.316C138.197 151.728 138.646 150.146 138.672 148.57V144.195H143.438L143.418 148.102C143.405 149.547 143.04 151.005 142.324 152.477C141.608 153.948 140.69 155.165 139.57 156.129ZM162.949 120.27V124.918H162.402C159.85 124.957 157.793 125.621 156.23 126.91C154.681 128.199 153.75 129.99 153.438 132.281C154.948 130.745 156.855 129.977 159.16 129.977C161.634 129.977 163.6 130.862 165.059 132.633C166.517 134.404 167.246 136.734 167.246 139.625C167.246 141.474 166.842 143.147 166.035 144.645C165.241 146.142 164.108 147.307 162.637 148.141C161.178 148.974 159.525 149.391 157.676 149.391C154.681 149.391 152.259 148.349 150.41 146.266C148.574 144.182 147.656 141.402 147.656 137.926V135.895C147.656 132.809 148.236 130.087 149.395 127.73C150.566 125.361 152.24 123.531 154.414 122.242C156.602 120.94 159.134 120.283 162.012 120.27H162.949ZM157.441 134.508C156.53 134.508 155.703 134.749 154.961 135.23C154.219 135.699 153.672 136.324 153.32 137.105V138.824C153.32 140.712 153.691 142.19 154.434 143.258C155.176 144.312 156.217 144.84 157.559 144.84C158.77 144.84 159.746 144.365 160.488 143.414C161.243 142.451 161.621 141.207 161.621 139.684C161.621 138.134 161.243 136.884 160.488 135.934C159.733 134.983 158.717 134.508 157.441 134.508ZM189.746 137.242C189.746 141.174 188.932 144.182 187.305 146.266C185.677 148.349 183.294 149.391 180.156 149.391C177.057 149.391 174.688 148.368 173.047 146.324C171.406 144.28 170.566 141.35 170.527 137.535V132.301C170.527 128.329 171.348 125.315 172.988 123.258C174.642 121.201 177.018 120.172 180.117 120.172C183.216 120.172 185.586 121.194 187.227 123.238C188.867 125.27 189.707 128.193 189.746 132.008V137.242ZM184.102 131.5C184.102 129.143 183.776 127.431 183.125 126.363C182.487 125.283 181.484 124.742 180.117 124.742C178.789 124.742 177.806 125.257 177.168 126.285C176.543 127.301 176.211 128.896 176.172 131.07V137.984C176.172 140.302 176.484 142.027 177.109 143.16C177.747 144.28 178.763 144.84 180.156 144.84C181.536 144.84 182.533 144.299 183.145 143.219C183.757 142.138 184.076 140.484 184.102 138.258V131.5ZM212.715 137.242C212.715 141.174 211.901 144.182 210.273 146.266C208.646 148.349 206.263 149.391 203.125 149.391C200.026 149.391 197.656 148.368 196.016 146.324C194.375 144.28 193.535 141.35 193.496 137.535V132.301C193.496 128.329 194.316 125.315 195.957 123.258C197.611 121.201 199.987 120.172 203.086 120.172C206.185 120.172 208.555 121.194 210.195 123.238C211.836 125.27 212.676 128.193 212.715 132.008V137.242ZM207.07 131.5C207.07 129.143 206.745 127.431 206.094 126.363C205.456 125.283 204.453 124.742 203.086 124.742C201.758 124.742 200.775 125.257 200.137 126.285C199.512 127.301 199.18 128.896 199.141 131.07V137.984C199.141 140.302 199.453 142.027 200.078 143.16C200.716 144.28 201.732 144.84 203.125 144.84C204.505 144.84 205.501 144.299 206.113 143.219C206.725 142.138 207.044 140.484 207.07 138.258V131.5Z" fill="#554DDE"/>
<g filter="url(#filter1_d_161_3)">
<rect x="293" y="25" width="223" height="180" rx="50" fill="white"/>
<rect x="293.25" y="25.25" width="222.5" height="179.5" rx="49.75" stroke="#CAD6F1" stroke-width="0.5"/>
</g>
<path d="M336.535 85.4668H343.273V87H334.65V72.7812H336.535V85.4668ZM351.652 87C351.548 86.7917 351.464 86.4206 351.398 85.8867C350.559 86.7591 349.556 87.1953 348.391 87.1953C347.349 87.1953 346.493 86.9023 345.822 86.3164C345.158 85.724 344.826 84.9753 344.826 84.0703C344.826 82.9701 345.243 82.1172 346.076 81.5117C346.916 80.8997 348.094 80.5938 349.611 80.5938H351.369V79.7637C351.369 79.1322 351.18 78.6309 350.803 78.2598C350.425 77.8822 349.868 77.6934 349.133 77.6934C348.488 77.6934 347.948 77.8561 347.512 78.1816C347.076 78.5072 346.857 78.901 346.857 79.3633H345.041C345.041 78.8359 345.227 78.3281 345.598 77.8398C345.975 77.3451 346.483 76.9544 347.121 76.668C347.766 76.3815 348.472 76.2383 349.24 76.2383C350.458 76.2383 351.411 76.5443 352.102 77.1562C352.792 77.7617 353.15 78.5983 353.176 79.666V84.5293C353.176 85.4993 353.299 86.2708 353.547 86.8438V87H351.652ZM348.654 85.623C349.221 85.623 349.758 85.4766 350.266 85.1836C350.773 84.8906 351.141 84.5098 351.369 84.041V81.873H349.953C347.74 81.873 346.633 82.5208 346.633 83.8164C346.633 84.3828 346.822 84.8255 347.199 85.1445C347.577 85.4635 348.062 85.623 348.654 85.623ZM362.16 84.1973C362.16 83.709 361.975 83.3314 361.604 83.0645C361.239 82.791 360.598 82.5566 359.68 82.3613C358.768 82.166 358.042 81.9316 357.502 81.6582C356.968 81.3848 356.571 81.0592 356.311 80.6816C356.057 80.304 355.93 79.8548 355.93 79.334C355.93 78.4681 356.294 77.7357 357.023 77.1367C357.759 76.5378 358.697 76.2383 359.836 76.2383C361.034 76.2383 362.004 76.5475 362.746 77.166C363.495 77.7845 363.869 78.5755 363.869 79.5391H362.053C362.053 79.0443 361.841 78.6178 361.418 78.2598C361.001 77.9017 360.474 77.7227 359.836 77.7227C359.178 77.7227 358.664 77.8659 358.293 78.1523C357.922 78.4388 357.736 78.8132 357.736 79.2754C357.736 79.7116 357.909 80.0404 358.254 80.2617C358.599 80.4831 359.221 80.6947 360.119 80.8965C361.024 81.0983 361.757 81.3392 362.316 81.6191C362.876 81.8991 363.29 82.2376 363.557 82.6348C363.83 83.0254 363.967 83.5039 363.967 84.0703C363.967 85.0143 363.589 85.7728 362.834 86.3457C362.079 86.9121 361.099 87.1953 359.895 87.1953C359.048 87.1953 358.299 87.0456 357.648 86.7461C356.997 86.4466 356.486 86.0299 356.115 85.4961C355.751 84.9557 355.568 84.373 355.568 83.748H357.375C357.408 84.3535 357.648 84.8353 358.098 85.1934C358.553 85.5449 359.152 85.7207 359.895 85.7207C360.578 85.7207 361.125 85.584 361.535 85.3105C361.952 85.0306 362.16 84.6595 362.16 84.1973ZM368.771 73.875V76.4336H370.744V77.8301H368.771V84.3828C368.771 84.806 368.859 85.125 369.035 85.3398C369.211 85.5482 369.51 85.6523 369.934 85.6523C370.142 85.6523 370.428 85.6133 370.793 85.5352V87C370.318 87.1302 369.855 87.1953 369.406 87.1953C368.599 87.1953 367.99 86.9512 367.58 86.4629C367.17 85.9746 366.965 85.2812 366.965 84.3828V77.8301H365.041V76.4336H366.965V73.875H368.771ZM387.541 74.3242H382.971V87H381.105V74.3242H376.545V72.7812H387.541V74.3242ZM393.732 78.0547C393.459 78.0091 393.163 77.9863 392.844 77.9863C391.659 77.9863 390.855 78.4909 390.432 79.5V87H388.625V76.4336H390.383L390.412 77.6543C391.005 76.7103 391.844 76.2383 392.932 76.2383C393.283 76.2383 393.55 76.2839 393.732 76.375V78.0547ZM401.535 87C401.431 86.7917 401.346 86.4206 401.281 85.8867C400.441 86.7591 399.439 87.1953 398.273 87.1953C397.232 87.1953 396.376 86.9023 395.705 86.3164C395.041 85.724 394.709 84.9753 394.709 84.0703C394.709 82.9701 395.126 82.1172 395.959 81.5117C396.799 80.8997 397.977 80.5938 399.494 80.5938H401.252V79.7637C401.252 79.1322 401.063 78.6309 400.686 78.2598C400.308 77.8822 399.751 77.6934 399.016 77.6934C398.371 77.6934 397.831 77.8561 397.395 78.1816C396.958 78.5072 396.74 78.901 396.74 79.3633H394.924C394.924 78.8359 395.109 78.3281 395.48 77.8398C395.858 77.3451 396.366 76.9544 397.004 76.668C397.648 76.3815 398.355 76.2383 399.123 76.2383C400.34 76.2383 401.294 76.5443 401.984 77.1562C402.674 77.7617 403.033 78.5983 403.059 79.666V84.5293C403.059 85.4993 403.182 86.2708 403.43 86.8438V87H401.535ZM398.537 85.623C399.104 85.623 399.641 85.4766 400.148 85.1836C400.656 84.8906 401.024 84.5098 401.252 84.041V81.873H399.836C397.622 81.873 396.516 82.5208 396.516 83.8164C396.516 84.3828 396.704 84.8255 397.082 85.1445C397.46 85.4635 397.945 85.623 398.537 85.623ZM407.6 76.4336L407.658 77.7617C408.465 76.7461 409.52 76.2383 410.822 76.2383C413.055 76.2383 414.182 77.498 414.201 80.0176V87H412.395V80.0078C412.388 79.2461 412.212 78.6829 411.867 78.3184C411.529 77.9538 410.998 77.7715 410.275 77.7715C409.689 77.7715 409.175 77.9277 408.732 78.2402C408.29 78.5527 407.945 78.9629 407.697 79.4707V87H405.891V76.4336H407.6ZM423.078 84.1973C423.078 83.709 422.893 83.3314 422.521 83.0645C422.157 82.791 421.516 82.5566 420.598 82.3613C419.686 82.166 418.96 81.9316 418.42 81.6582C417.886 81.3848 417.489 81.0592 417.229 80.6816C416.975 80.304 416.848 79.8548 416.848 79.334C416.848 78.4681 417.212 77.7357 417.941 77.1367C418.677 76.5378 419.615 76.2383 420.754 76.2383C421.952 76.2383 422.922 76.5475 423.664 77.166C424.413 77.7845 424.787 78.5755 424.787 79.5391H422.971C422.971 79.0443 422.759 78.6178 422.336 78.2598C421.919 77.9017 421.392 77.7227 420.754 77.7227C420.096 77.7227 419.582 77.8659 419.211 78.1523C418.84 78.4388 418.654 78.8132 418.654 79.2754C418.654 79.7116 418.827 80.0404 419.172 80.2617C419.517 80.4831 420.139 80.6947 421.037 80.8965C421.942 81.0983 422.674 81.3392 423.234 81.6191C423.794 81.8991 424.208 82.2376 424.475 82.6348C424.748 83.0254 424.885 83.5039 424.885 84.0703C424.885 85.0143 424.507 85.7728 423.752 86.3457C422.997 86.9121 422.017 87.1953 420.812 87.1953C419.966 87.1953 419.217 87.0456 418.566 86.7461C417.915 86.4466 417.404 86.0299 417.033 85.4961C416.669 84.9557 416.486 84.373 416.486 83.748H418.293C418.326 84.3535 418.566 84.8353 419.016 85.1934C419.471 85.5449 420.07 85.7207 420.812 85.7207C421.496 85.7207 422.043 85.584 422.453 85.3105C422.87 85.0306 423.078 84.6595 423.078 84.1973ZM433.762 87C433.658 86.7917 433.573 86.4206 433.508 85.8867C432.668 86.7591 431.665 87.1953 430.5 87.1953C429.458 87.1953 428.602 86.9023 427.932 86.3164C427.268 85.724 426.936 84.9753 426.936 84.0703C426.936 82.9701 427.352 82.1172 428.186 81.5117C429.025 80.8997 430.204 80.5938 431.721 80.5938H433.479V79.7637C433.479 79.1322 433.29 78.6309 432.912 78.2598C432.535 77.8822 431.978 77.6934 431.242 77.6934C430.598 77.6934 430.057 77.8561 429.621 78.1816C429.185 78.5072 428.967 78.901 428.967 79.3633H427.15C427.15 78.8359 427.336 78.3281 427.707 77.8398C428.085 77.3451 428.592 76.9544 429.23 76.668C429.875 76.3815 430.581 76.2383 431.35 76.2383C432.567 76.2383 433.521 76.5443 434.211 77.1562C434.901 77.7617 435.259 78.5983 435.285 79.666V84.5293C435.285 85.4993 435.409 86.2708 435.656 86.8438V87H433.762ZM430.764 85.623C431.33 85.623 431.867 85.4766 432.375 85.1836C432.883 84.8906 433.251 84.5098 433.479 84.041V81.873H432.062C429.849 81.873 428.742 82.5208 428.742 83.8164C428.742 84.3828 428.931 84.8255 429.309 85.1445C429.686 85.4635 430.171 85.623 430.764 85.623ZM442.355 85.7207C443 85.7207 443.563 85.5254 444.045 85.1348C444.527 84.7441 444.794 84.2559 444.846 83.6699H446.555C446.522 84.2754 446.314 84.8516 445.93 85.3984C445.546 85.9453 445.031 86.3815 444.387 86.707C443.749 87.0326 443.072 87.1953 442.355 87.1953C440.917 87.1953 439.771 86.7168 438.918 85.7598C438.072 84.7962 437.648 83.4811 437.648 81.8145V81.5117C437.648 80.4831 437.837 79.5684 438.215 78.7676C438.592 77.9668 439.133 77.3451 439.836 76.9023C440.546 76.4596 441.382 76.2383 442.346 76.2383C443.531 76.2383 444.514 76.5931 445.295 77.3027C446.083 78.0124 446.503 78.9336 446.555 80.0664H444.846C444.794 79.3828 444.533 78.8229 444.064 78.3867C443.602 77.944 443.029 77.7227 442.346 77.7227C441.428 77.7227 440.715 78.0547 440.207 78.7188C439.706 79.3763 439.455 80.3301 439.455 81.5801V81.9219C439.455 83.1393 439.706 84.0768 440.207 84.7344C440.708 85.3919 441.424 85.7207 442.355 85.7207ZM451.037 73.875V76.4336H453.01V77.8301H451.037V84.3828C451.037 84.806 451.125 85.125 451.301 85.3398C451.477 85.5482 451.776 85.6523 452.199 85.6523C452.408 85.6523 452.694 85.6133 453.059 85.5352V87C452.583 87.1302 452.121 87.1953 451.672 87.1953C450.865 87.1953 450.256 86.9512 449.846 86.4629C449.436 85.9746 449.23 85.2812 449.23 84.3828V77.8301H447.307V76.4336H449.23V73.875H451.037ZM457.092 87H455.285V76.4336H457.092V87ZM455.139 73.6309C455.139 73.3379 455.227 73.0905 455.402 72.8887C455.585 72.6868 455.852 72.5859 456.203 72.5859C456.555 72.5859 456.822 72.6868 457.004 72.8887C457.186 73.0905 457.277 73.3379 457.277 73.6309C457.277 73.9238 457.186 74.168 457.004 74.3633C456.822 74.5586 456.555 74.6562 456.203 74.6562C455.852 74.6562 455.585 74.5586 455.402 74.3633C455.227 74.168 455.139 73.9238 455.139 73.6309ZM459.514 81.6191C459.514 80.584 459.715 79.653 460.119 78.8262C460.529 77.9993 461.096 77.3613 461.818 76.9121C462.548 76.4629 463.378 76.2383 464.309 76.2383C465.747 76.2383 466.91 76.7363 467.795 77.7324C468.687 78.7285 469.133 80.0534 469.133 81.707V81.834C469.133 82.8626 468.934 83.7871 468.537 84.6074C468.146 85.4212 467.583 86.056 466.848 86.5117C466.118 86.9674 465.279 87.1953 464.328 87.1953C462.896 87.1953 461.734 86.6973 460.842 85.7012C459.956 84.7051 459.514 83.3867 459.514 81.7461V81.6191ZM461.33 81.834C461.33 83.0059 461.6 83.9466 462.141 84.6562C462.688 85.3659 463.417 85.7207 464.328 85.7207C465.246 85.7207 465.975 85.3626 466.516 84.6465C467.056 83.9238 467.326 82.9147 467.326 81.6191C467.326 80.4603 467.049 79.5228 466.496 78.8066C465.949 78.084 465.22 77.7227 464.309 77.7227C463.417 77.7227 462.697 78.0775 462.15 78.7871C461.604 79.4967 461.33 80.5124 461.33 81.834ZM473.107 76.4336L473.166 77.7617C473.973 76.7461 475.028 76.2383 476.33 76.2383C478.563 76.2383 479.689 77.498 479.709 80.0176V87H477.902V80.0078C477.896 79.2461 477.72 78.6829 477.375 78.3184C477.036 77.9538 476.506 77.7715 475.783 77.7715C475.197 77.7715 474.683 77.9277 474.24 78.2402C473.798 78.5527 473.452 78.9629 473.205 79.4707V87H471.398V76.4336H473.107Z" fill="black"/>
<path d="M348.43 141.52C348.43 140.452 348.13 139.605 347.531 138.98C346.945 138.342 345.943 137.757 344.523 137.223C343.104 136.689 341.88 136.161 340.852 135.641C339.823 135.107 338.938 134.501 338.195 133.824C337.466 133.134 336.893 132.327 336.477 131.402C336.073 130.478 335.871 129.378 335.871 128.102C335.871 125.901 336.574 124.098 337.98 122.691C339.387 121.285 341.255 120.465 343.586 120.23V116.051H346.711V120.289C349.016 120.615 350.819 121.578 352.121 123.18C353.423 124.768 354.074 126.832 354.074 129.371H348.43C348.43 127.809 348.104 126.643 347.453 125.875C346.815 125.094 345.956 124.703 344.875 124.703C343.807 124.703 342.98 125.009 342.395 125.621C341.809 126.22 341.516 127.053 341.516 128.121C341.516 129.111 341.802 129.905 342.375 130.504C342.948 131.103 344.009 131.715 345.559 132.34C347.121 132.965 348.404 133.557 349.406 134.117C350.409 134.664 351.255 135.289 351.945 135.992C352.635 136.682 353.163 137.477 353.527 138.375C353.892 139.26 354.074 140.296 354.074 141.48C354.074 143.694 353.384 145.491 352.004 146.871C350.624 148.251 348.723 149.065 346.301 149.312V153.199H343.195V149.332C340.526 149.046 338.456 148.102 336.984 146.5C335.526 144.885 334.797 142.743 334.797 140.074H340.441C340.441 141.624 340.806 142.815 341.535 143.648C342.277 144.469 343.339 144.879 344.719 144.879C345.865 144.879 346.77 144.579 347.434 143.98C348.098 143.368 348.43 142.548 348.43 141.52ZM377.395 149H357.902V145.133L367.102 135.328C368.365 133.948 369.296 132.743 369.895 131.715C370.507 130.686 370.812 129.71 370.812 128.785C370.812 127.522 370.493 126.533 369.855 125.816C369.217 125.087 368.306 124.723 367.121 124.723C365.845 124.723 364.836 125.165 364.094 126.051C363.365 126.923 363 128.076 363 129.508H357.336C357.336 127.776 357.746 126.194 358.566 124.762C359.4 123.329 360.572 122.21 362.082 121.402C363.592 120.582 365.305 120.172 367.219 120.172C370.148 120.172 372.421 120.875 374.035 122.281C375.663 123.688 376.477 125.673 376.477 128.238C376.477 129.645 376.112 131.077 375.383 132.535C374.654 133.993 373.404 135.693 371.633 137.633L365.168 144.449H377.395V149ZM386.613 132.281H389.621C391.053 132.281 392.115 131.923 392.805 131.207C393.495 130.491 393.84 129.54 393.84 128.355C393.84 127.21 393.495 126.318 392.805 125.68C392.128 125.042 391.19 124.723 389.992 124.723C388.911 124.723 388.007 125.022 387.277 125.621C386.548 126.207 386.184 126.975 386.184 127.926H380.539C380.539 126.441 380.936 125.113 381.73 123.941C382.538 122.757 383.658 121.832 385.09 121.168C386.535 120.504 388.124 120.172 389.855 120.172C392.863 120.172 395.22 120.895 396.926 122.34C398.632 123.772 399.484 125.751 399.484 128.277C399.484 129.579 399.087 130.777 398.293 131.871C397.499 132.965 396.457 133.805 395.168 134.391C396.77 134.964 397.961 135.823 398.742 136.969C399.536 138.115 399.934 139.469 399.934 141.031C399.934 143.557 399.009 145.582 397.16 147.105C395.324 148.629 392.889 149.391 389.855 149.391C387.017 149.391 384.693 148.642 382.883 147.145C381.086 145.647 380.188 143.668 380.188 141.207H385.832C385.832 142.275 386.229 143.147 387.023 143.824C387.831 144.501 388.82 144.84 389.992 144.84C391.333 144.84 392.382 144.488 393.137 143.785C393.905 143.069 394.289 142.125 394.289 140.953C394.289 138.115 392.727 136.695 389.602 136.695H386.613V132.281ZM422.98 137.242C422.98 141.174 422.167 144.182 420.539 146.266C418.911 148.349 416.529 149.391 413.391 149.391C410.292 149.391 407.922 148.368 406.281 146.324C404.641 144.28 403.801 141.35 403.762 137.535V132.301C403.762 128.329 404.582 125.315 406.223 123.258C407.876 121.201 410.253 120.172 413.352 120.172C416.451 120.172 418.82 121.194 420.461 123.238C422.102 125.27 422.941 128.193 422.98 132.008V137.242ZM417.336 131.5C417.336 129.143 417.01 127.431 416.359 126.363C415.721 125.283 414.719 124.742 413.352 124.742C412.023 124.742 411.04 125.257 410.402 126.285C409.777 127.301 409.445 128.896 409.406 131.07V137.984C409.406 140.302 409.719 142.027 410.344 143.16C410.982 144.28 411.997 144.84 413.391 144.84C414.771 144.84 415.767 144.299 416.379 143.219C416.991 142.138 417.31 140.484 417.336 138.258V131.5Z" fill="#554DDE"/>
<g filter="url(#filter2_d_161_3)">
<rect x="50" y="225" width="466" height="246" rx="50" fill="white"/>
<rect x="50.25" y="225.25" width="465.5" height="245.5" rx="49.75" stroke="#CAD6F1" stroke-width="0.5"/>
</g>
<path d="M115.313 414.758L117.688 421.461L120.049 414.758H122.55V424H120.639V421.474L120.83 417.113L118.335 424H117.027L114.539 417.119L114.729 421.474V424H112.825V414.758H115.313ZM131.805 419.588C131.805 420.498 131.644 421.296 131.322 421.981C131.001 422.667 130.539 423.196 129.938 423.568C129.342 423.941 128.656 424.127 127.882 424.127C127.116 424.127 126.432 423.943 125.832 423.575C125.231 423.207 124.765 422.682 124.435 422C124.105 421.315 123.938 420.528 123.934 419.639V419.182C123.934 418.272 124.097 417.472 124.422 416.783C124.752 416.089 125.216 415.558 125.812 415.189C126.413 414.817 127.099 414.631 127.869 414.631C128.639 414.631 129.323 414.817 129.919 415.189C130.52 415.558 130.984 416.089 131.31 416.783C131.64 417.472 131.805 418.27 131.805 419.176V419.588ZM129.875 419.169C129.875 418.2 129.701 417.464 129.354 416.96C129.007 416.457 128.512 416.205 127.869 416.205C127.23 416.205 126.737 416.455 126.39 416.954C126.043 417.449 125.868 418.177 125.863 419.138V419.588C125.863 420.532 126.037 421.264 126.384 421.785C126.731 422.305 127.23 422.565 127.882 422.565C128.521 422.565 129.012 422.316 129.354 421.816C129.697 421.313 129.871 420.581 129.875 419.62V419.169ZM140.704 424H138.8L135.093 417.919V424H133.188V414.758H135.093L138.806 420.852V414.758H140.704V424Z" fill="#6A6D9E"/>
<rect x="111" y="266" width="14" height="134" rx="7" fill="#554DDE"/>
<rect x="129" y="317" width="14" height="83" rx="7" fill="#F44E77"/>
<path d="M171.958 414.758V424H170.06V414.758H171.958ZM174.801 414.758V416.25H167.26V414.758H174.801ZM180.99 414.758H182.888V420.864C182.888 421.575 182.736 422.174 182.431 422.661C182.131 423.147 181.714 423.513 181.181 423.759C180.652 424.004 180.042 424.127 179.353 424.127C178.663 424.127 178.049 424.004 177.512 423.759C176.979 423.513 176.56 423.147 176.255 422.661C175.954 422.174 175.804 421.575 175.804 420.864V414.758H177.708V420.864C177.708 421.279 177.774 421.618 177.905 421.88C178.036 422.142 178.225 422.335 178.47 422.458C178.72 422.58 179.014 422.642 179.353 422.642C179.7 422.642 179.994 422.58 180.235 422.458C180.48 422.335 180.667 422.142 180.793 421.88C180.925 421.618 180.99 421.279 180.99 420.864V414.758ZM190.658 422.515V424H185.738V422.515H190.658ZM186.36 414.758V424H184.456V414.758H186.36ZM190.017 418.522V419.969H185.738V418.522H190.017ZM190.651 414.758V416.25H185.738V414.758H190.651Z" fill="#6A6D9E"/>
<rect x="163" y="302" width="14" height="98" rx="7" fill="#554DDE"/>
<rect x="181" y="360" width="14" height="40" rx="7" fill="#F44E77"/>
<path d="M225.023 421.334L226.268 414.758H228.166L226.115 424H224.198L222.694 417.817L221.189 424H219.272L217.222 414.758H219.12L220.371 421.321L221.894 414.758H223.506L225.023 421.334ZM234.761 419.995H231.104V422.47H235.396V424H229.2V414.758H235.383V416.3H231.104V418.503H234.761V419.995ZM236.513 424V414.758H239.356C240.169 414.758 240.895 414.942 241.534 415.31C242.177 415.674 242.678 416.194 243.038 416.872C243.398 417.544 243.578 418.31 243.578 419.169V419.595C243.578 420.454 243.4 421.218 243.044 421.886C242.693 422.555 242.196 423.073 241.553 423.441C240.91 423.81 240.184 423.996 239.375 424H236.513ZM238.417 416.3V422.47H239.337C240.082 422.47 240.651 422.227 241.045 421.74C241.438 421.254 241.639 420.557 241.648 419.652V419.163C241.648 418.224 241.453 417.513 241.064 417.03C240.675 416.544 240.105 416.3 239.356 416.3H238.417Z" fill="#6A6D9E"/>
<rect x="215" y="280" width="14" height="120" rx="7" fill="#554DDE"/>
<rect x="233" y="326" width="14" height="74" rx="7" fill="#F44E77"/>
<path d="M277.782 416.3H274.951V424H273.047V416.3H270.254V414.758H277.782V416.3ZM286.396 424H284.492V420.039H280.778V424H278.874V414.758H280.778V418.503H284.492V414.758H286.396V424ZM295.061 414.758V420.845C295.061 421.857 294.743 422.656 294.108 423.245C293.478 423.833 292.615 424.127 291.519 424.127C290.439 424.127 289.583 423.841 288.948 423.27C288.313 422.699 287.989 421.914 287.977 420.915V414.758H289.881V420.858C289.881 421.463 290.025 421.905 290.312 422.185C290.604 422.46 291.007 422.597 291.519 422.597C292.589 422.597 293.133 422.034 293.15 420.909V414.758H295.061Z" fill="#6A6D9E"/>
<rect x="267" y="302" width="14" height="98" rx="7" fill="#554DDE"/>
<rect x="285" y="343" width="14" height="57" rx="7" fill="#F44E77"/>
<path d="M331.386 420.223H327.729V424H325.825V414.758H331.843V416.3H327.729V418.687H331.386V420.223ZM336.369 420.617H334.852V424H332.947V414.758H336.381C337.473 414.758 338.315 415.001 338.908 415.488C339.5 415.974 339.796 416.662 339.796 417.551C339.796 418.181 339.659 418.708 339.384 419.131C339.113 419.55 338.7 419.885 338.146 420.134L340.146 423.911V424H338.102L336.369 420.617ZM334.852 419.074H336.388C336.866 419.074 337.236 418.954 337.499 418.712C337.761 418.467 337.892 418.131 337.892 417.703C337.892 417.267 337.767 416.924 337.518 416.675C337.272 416.425 336.893 416.3 336.381 416.3H334.852V419.074ZM343.275 424H341.371V414.758H343.275V424Z" fill="#6A6D9E"/>
<rect x="319" y="326" width="14" height="74" rx="7" fill="#554DDE"/>
<rect x="337" y="367" width="14" height="33" rx="7" fill="#F44E77"/>
<path d="M379.618 421.575C379.618 421.215 379.491 420.94 379.237 420.75C378.983 420.555 378.526 420.352 377.866 420.141C377.206 419.925 376.683 419.713 376.298 419.506C375.248 418.939 374.724 418.175 374.724 417.214C374.724 416.715 374.863 416.271 375.143 415.881C375.426 415.488 375.83 415.181 376.355 414.961C376.884 414.741 377.476 414.631 378.132 414.631C378.792 414.631 379.381 414.751 379.897 414.993C380.413 415.23 380.813 415.566 381.097 416.002C381.384 416.438 381.528 416.933 381.528 417.487H379.624C379.624 417.064 379.491 416.736 379.224 416.503C378.958 416.266 378.583 416.148 378.101 416.148C377.635 416.148 377.273 416.247 377.015 416.446C376.757 416.641 376.628 416.899 376.628 417.221C376.628 417.521 376.778 417.773 377.079 417.976C377.383 418.179 377.83 418.37 378.418 418.547C379.501 418.873 380.291 419.277 380.786 419.76C381.281 420.242 381.528 420.843 381.528 421.562C381.528 422.362 381.226 422.991 380.621 423.448C380.015 423.901 379.201 424.127 378.177 424.127C377.466 424.127 376.818 423.998 376.234 423.74C375.65 423.477 375.204 423.12 374.895 422.667C374.59 422.214 374.438 421.689 374.438 421.093H376.349C376.349 422.113 376.958 422.623 378.177 422.623C378.63 422.623 378.983 422.532 379.237 422.35C379.491 422.163 379.618 421.905 379.618 421.575ZM388.041 422.096H384.702L384.067 424H382.042L385.483 414.758H387.248L390.707 424H388.682L388.041 422.096ZM385.216 420.553H387.527L386.365 417.094L385.216 420.553ZM397.766 416.3H394.935V424H393.03V416.3H390.237V414.758H397.766V416.3Z" fill="#6A6D9E"/>
<rect x="371" y="302" width="14" height="98" rx="7" fill="#554DDE"/>
<rect x="389" y="348" width="14" height="52" rx="7" fill="#F44E77"/>
<path d="M431.618 421.575C431.618 421.215 431.491 420.94 431.237 420.75C430.983 420.555 430.526 420.352 429.866 420.141C429.206 419.925 428.683 419.713 428.298 419.506C427.248 418.939 426.724 418.175 426.724 417.214C426.724 416.715 426.863 416.271 427.143 415.881C427.426 415.488 427.83 415.181 428.355 414.961C428.884 414.741 429.476 414.631 430.132 414.631C430.792 414.631 431.381 414.751 431.897 414.993C432.413 415.23 432.813 415.566 433.097 416.002C433.384 416.438 433.528 416.933 433.528 417.487H431.624C431.624 417.064 431.491 416.736 431.224 416.503C430.958 416.266 430.583 416.148 430.101 416.148C429.635 416.148 429.273 416.247 429.015 416.446C428.757 416.641 428.628 416.899 428.628 417.221C428.628 417.521 428.778 417.773 429.079 417.976C429.383 418.179 429.83 418.37 430.418 418.547C431.501 418.873 432.291 419.277 432.786 419.76C433.281 420.242 433.528 420.843 433.528 421.562C433.528 422.362 433.226 422.991 432.621 423.448C432.015 423.901 431.201 424.127 430.177 424.127C429.466 424.127 428.818 423.998 428.234 423.74C427.65 423.477 427.204 423.12 426.895 422.667C426.59 422.214 426.438 421.689 426.438 421.093H428.349C428.349 422.113 428.958 422.623 430.177 422.623C430.63 422.623 430.983 422.532 431.237 422.35C431.491 422.163 431.618 421.905 431.618 421.575ZM441.818 414.758V420.845C441.818 421.857 441.501 422.656 440.866 423.245C440.236 423.833 439.372 424.127 438.276 424.127C437.197 424.127 436.34 423.841 435.706 423.27C435.071 422.699 434.747 421.914 434.734 420.915V414.758H436.639V420.858C436.639 421.463 436.783 421.905 437.07 422.185C437.362 422.46 437.764 422.597 438.276 422.597C439.347 422.597 439.891 422.034 439.908 420.909V414.758H441.818ZM450.896 424H448.991L445.284 417.919V424H443.38V414.758H445.284L448.998 420.852V414.758H450.896V424Z" fill="#6A6D9E"/>
<rect x="423" y="275" width="14" height="125" rx="7" fill="#554DDE"/>
<rect x="441" y="313" width="14" height="87" rx="7" fill="#F44E77"/>
<defs>
<filter id="filter0_d_161_3" x="0" y="0" width="323" height="280" filterUnits="userSpaceOnUse" color-interpolation-filters="sRGB">
<feFlood flood-opacity="0" result="BackgroundImageFix"/>
<feColorMatrix in="SourceAlpha" type="matrix" values="0 0 0 0 0 0 0 0 0 0 0 0 0 0 0 0 0 0 127 0" result="hardAlpha"/>
<feOffset dy="25"/>
<feGaussianBlur stdDeviation="25"/>
<feColorMatrix type="matrix" values="0 0 0 0 0.0862745 0 0 0 0 0.0980392 0 0 0 0 0.309804 0 0 0 0.05 0"/>
<feBlend mode="normal" in2="BackgroundImageFix" result="effect1_dropShadow_161_3"/>
<feBlend mode="normal" in="SourceGraphic" in2="effect1_dropShadow_161_3" result="shape"/>
</filter>
<filter id="filter1_d_161_3" x="243" y="0" width="323" height="280" filterUnits="userSpaceOnUse" color-interpolation-filters="sRGB">
<feFlood flood-opacity="0" result="BackgroundImageFix"/>
<feColorMatrix in="SourceAlpha" type="matrix" values="0 0 0 0 0 0 0 0 0 0 0 0 0 0 0 0 0 0 127 0" result="hardAlpha"/>
<feOffset dy="25"/>
<feGaussianBlur stdDeviation="25"/>
<feColorMatrix type="matrix" values="0 0 0 0 0.0862745 0 0 0 0 0.0980392 0 0 0 0 0.309804 0 0 0 0.05 0"/>
<feBlend mode="normal" in2="BackgroundImageFix" result="effect1_dropShadow_161_3"/>
<feBlend mode="normal" in="SourceGraphic" in2="effect1_dropShadow_161_3" result="shape"/>
</filter>
<filter id="filter2_d_161_3" x="0" y="200" width="566" height="346" filterUnits="userSpaceOnUse" color-interpolation-filters="sRGB">
<feFlood flood-opacity="0" result="BackgroundImageFix"/>
<feColorMatrix in="SourceAlpha" type="matrix" values="0 0 0 0 0 0 0 0 0 0 0 0 0 0 0 0 0 0 127 0" result="hardAlpha"/>
<feOffset dy="25"/>
<feGaussianBlur stdDeviation="25"/>
<feColorMatrix type="matrix" values="0 0 0 0 0.0862745 0 0 0 0 0.0980392 0 0 0 0 0.309804 0 0 0 0.05 0"/>
<feBlend mode="normal" in2="BackgroundImageFix" result="effect1_dropShadow_161_3"/>
<feBlend mode="normal" in="SourceGraphic" in2="effect1_dropShadow_161_3" result="shape"/>
</filter>
</defs>
</svg>
