<svg width="40" height="60" viewBox="0 0 40 60" fill="none" xmlns="http://www.w3.org/2000/svg">
<path d="M27.856 5.31936L11.5168 2.19925C5.15627 0.984636 0 6.98363 0 15.5984V36.883C0 45.4978 5.15627 53.466 11.5168 54.6806L27.856 57.8007C34.2166 59.0154 39.3728 53.0164 39.3728 44.4016V23.117C39.3728 14.5022 34.2166 6.53397 27.856 5.31936Z" fill="#4EE0F4"/>
<path d="M28.0607 2.94017L11.5977 1.21519C5.19247 0.54406 0 6.98363 0 15.5984V36.883C0 45.4978 5.19247 53.0255 11.5977 53.6966L28.0607 55.4216C34.466 56.0927 39.6584 49.6531 39.6584 41.0384V19.7537C39.6584 11.139 34.466 3.6113 28.0607 2.94017Z" fill="#F44E77"/>
<path d="M28.1503 0H11.6331C5.2083 0 0 6.98363 0 15.5984V36.883C0 45.4978 5.2083 52.4814 11.6331 52.4814H28.1503C34.575 52.4814 39.7833 45.4978 39.7833 36.883V15.5984C39.7833 6.98363 34.575 0 28.1503 0Z" fill="#6F42CE"/>
<path d="M10.7415 16.021C10.7415 13.5494 12.2358 11.5459 14.079 11.5459H20.0153C22.112 11.5459 23.9579 12.1477 25.5528 13.3513C27.1656 14.5268 28.411 16.2202 29.2892 18.4314C30.1852 20.6426 30.6332 23.2457 30.6332 26.2406C30.6332 29.2356 30.1852 31.8387 29.2892 34.0499C28.411 36.2611 27.1656 37.9685 25.5528 39.172C23.9579 40.3477 22.112 40.9355 20.0153 40.9355H14.079C12.2358 40.9355 10.7415 38.9319 10.7415 36.4603V16.021ZM19.7466 33.2102C21.1085 33.2102 22.1926 32.6084 22.9991 31.4048C23.8234 30.1732 24.2356 28.4519 24.2356 26.2406C24.2356 24.0294 23.8234 22.3221 22.9991 21.1185C22.1926 19.8869 21.1085 19.2711 19.7466 19.2711H17.7451C17.3808 19.2711 17.0854 19.6672 17.0854 20.1559V32.3255C17.0854 32.8141 17.3808 33.2102 17.7451 33.2102H19.7466Z" fill="white"/>
</svg>
