<svg width="530" height="1246" viewBox="0 0 530 1246" fill="none" xmlns="http://www.w3.org/2000/svg">
<g filter="url(#filter0_d_203_4)">
<rect x="50" y="1171" width="1146" height="430" rx="50" transform="rotate(-90 50 1171)" fill="white"/>
</g>
<mask id="mask0_203_4" style="mask-type:alpha" maskUnits="userSpaceOnUse" x="124" y="368" width="282" height="175">
<rect x="124" y="368" width="281.793" height="174.326" rx="14.0601" fill="#16194F"/>
</mask>
<g mask="url(#mask0_203_4)">
<path d="M341.944 332.187C355.378 317.787 378.201 317.787 391.635 332.187L399.979 341.131C405.424 346.968 412.75 350.701 420.673 351.677L433.718 353.283C452.084 355.544 465.263 372.085 463.366 390.491L461.441 409.162C460.703 416.315 462.255 423.519 465.872 429.735L475.533 446.339C484.512 461.771 480.017 481.52 465.243 491.545L451.391 500.943C445.163 505.169 440.514 511.343 438.174 518.496L433.299 533.4C427.29 551.768 407.193 561.433 389.094 554.659L378.7 550.768C371.02 547.894 362.559 547.894 354.879 550.768L344.485 554.659C326.386 561.433 306.289 551.768 300.28 533.4L295.405 518.496C293.065 511.343 288.416 505.169 282.188 500.943L268.337 491.545C253.562 481.52 249.067 461.771 258.046 446.339L267.707 429.735C271.324 423.519 272.876 416.315 272.138 409.162L270.213 390.491C268.316 372.085 281.495 355.544 299.861 353.283L312.906 351.677C320.829 350.701 328.155 346.968 333.6 341.131L341.944 332.187Z" fill="#9A94FF"/>
<path d="M199.233 263.237C212.667 248.837 235.49 248.837 248.924 263.237L257.268 272.181C262.713 278.018 270.039 281.751 277.962 282.726L291.007 284.332C309.373 286.593 322.553 303.134 320.655 321.541L318.73 340.211C317.993 347.365 319.544 354.568 323.161 360.784L332.822 377.389C341.801 392.821 337.306 412.57 322.532 422.594L308.68 431.993C302.452 436.219 297.804 442.393 295.464 449.546L290.588 464.45C284.579 482.818 264.482 492.483 246.383 485.708L235.989 481.818C228.309 478.944 219.848 478.944 212.168 481.818L201.775 485.708C183.675 492.483 163.578 482.818 157.569 464.45L152.694 449.546C150.354 442.393 145.705 436.219 139.477 431.993L125.626 422.594C110.852 412.57 106.356 392.821 115.335 377.389L124.997 360.784C128.613 354.568 130.165 347.365 129.427 340.211L127.502 321.541C125.605 303.134 138.785 286.593 157.15 284.332L170.196 282.726C178.118 281.751 185.444 278.018 190.889 272.181L199.233 263.237Z" fill="#CAC7FF"/>
<path d="M206.476 443.418C221.879 426.908 248.048 426.908 263.451 443.418L273.018 453.673C279.261 460.366 287.661 464.646 296.744 465.764L311.702 467.606C332.759 470.198 347.871 489.164 345.695 510.268L343.488 531.675C342.643 539.877 344.421 548.137 348.568 555.264L359.646 574.302C369.941 591.995 364.787 614.639 347.847 626.133L331.965 636.91C324.824 641.755 319.494 648.833 316.811 657.035L311.221 674.124C304.332 695.184 281.289 706.265 260.537 698.498L248.62 694.038C239.814 690.742 230.113 690.742 221.307 694.038L209.39 698.498C188.638 706.265 165.595 695.184 158.706 674.124L153.116 657.035C150.433 648.833 145.103 641.755 137.962 636.91L122.08 626.133C105.14 614.639 99.9859 591.995 110.281 574.302L121.359 555.264C125.506 548.136 127.284 539.877 126.439 531.675L124.232 510.268C122.056 489.164 137.168 470.198 158.225 467.606L173.183 465.764C182.266 464.646 190.666 460.366 196.909 453.673L206.476 443.418Z" fill="#16194F"/>
<mask id="mask1_203_4" style="mask-type:alpha" maskUnits="userSpaceOnUse" x="110" y="252" width="228" height="236">
<path d="M199.233 263.237C212.667 248.837 235.49 248.837 248.924 263.237L257.268 272.181C262.713 278.018 270.039 281.751 277.962 282.726L291.007 284.332C309.373 286.593 322.553 303.134 320.655 321.541L318.73 340.211C317.993 347.365 319.544 354.568 323.161 360.784L332.822 377.389C341.801 392.821 337.306 412.57 322.532 422.594L308.68 431.993C302.452 436.219 297.804 442.393 295.464 449.546L290.588 464.45C284.579 482.818 264.482 492.483 246.383 485.708L235.989 481.818C228.309 478.944 219.848 478.944 212.168 481.818L201.775 485.708C183.675 492.483 163.578 482.818 157.569 464.45L152.694 449.546C150.354 442.393 145.705 436.219 139.477 431.993L125.626 422.594C110.852 412.57 106.356 392.821 115.335 377.389L124.997 360.784C128.613 354.568 130.165 347.365 129.427 340.211L127.502 321.541C125.605 303.134 138.785 286.593 157.15 284.332L170.196 282.726C178.118 281.751 185.444 278.018 190.889 272.181L199.233 263.237Z" fill="#CAC7FF"/>
</mask>
<g mask="url(#mask1_203_4)">
<path d="M206.476 443.418C221.879 426.908 248.048 426.908 263.45 443.418L273.018 453.673C279.261 460.366 287.661 464.646 296.744 465.764L311.702 467.606C332.759 470.198 347.871 489.164 345.695 510.268L343.488 531.675C342.643 539.877 344.421 548.137 348.568 555.264L359.646 574.302C369.941 591.995 364.786 614.639 347.847 626.133L331.965 636.91C324.824 641.755 319.494 648.833 316.811 657.035L311.221 674.124C304.332 695.184 281.289 706.265 260.537 698.498L248.62 694.038C239.814 690.742 230.113 690.742 221.307 694.038L209.39 698.498C188.638 706.265 165.595 695.184 158.706 674.124L153.115 657.035C150.433 648.833 145.103 641.755 137.962 636.91L122.08 626.133C105.14 614.639 99.9858 591.995 110.281 574.302L121.359 555.264C125.506 548.136 127.284 539.877 126.439 531.675L124.232 510.268C122.056 489.164 137.168 470.198 158.225 467.606L173.183 465.764C182.266 464.646 190.666 460.366 196.909 453.673L206.476 443.418Z" fill="#F44E77"/>
</g>
</g>
<path d="M233.477 83.5625V112H229.707V83.5625H233.477ZM245.391 96.3555V99.4414H232.656V96.3555H245.391ZM247.324 83.5625V86.6484H232.656V83.5625H247.324ZM254.375 94.1875V112H250.762V90.8672H254.277L254.375 94.1875ZM260.977 90.75L260.957 94.1094C260.658 94.0443 260.371 94.0052 260.098 93.9922C259.837 93.9661 259.538 93.9531 259.199 93.9531C258.366 93.9531 257.63 94.0833 256.992 94.3438C256.354 94.6042 255.814 94.9688 255.371 95.4375C254.928 95.9062 254.577 96.4661 254.316 97.1172C254.069 97.7552 253.906 98.4583 253.828 99.2266L252.812 99.8125C252.812 98.5365 252.936 97.3385 253.184 96.2188C253.444 95.099 253.841 94.1094 254.375 93.25C254.909 92.3776 255.586 91.7005 256.406 91.2188C257.24 90.724 258.229 90.4766 259.375 90.4766C259.635 90.4766 259.935 90.5091 260.273 90.5742C260.612 90.6263 260.846 90.6849 260.977 90.75ZM272.695 112.391C271.224 112.391 269.889 112.143 268.691 111.648C267.507 111.141 266.484 110.431 265.625 109.52C264.779 108.608 264.128 107.527 263.672 106.277C263.216 105.027 262.988 103.66 262.988 102.176V101.355C262.988 99.6367 263.242 98.1068 263.75 96.7656C264.258 95.4115 264.948 94.2656 265.82 93.3281C266.693 92.3906 267.682 91.681 268.789 91.1992C269.896 90.7174 271.042 90.4766 272.227 90.4766C273.737 90.4766 275.039 90.737 276.133 91.2578C277.24 91.7786 278.145 92.5078 278.848 93.4453C279.551 94.3698 280.072 95.4635 280.41 96.7266C280.749 97.9766 280.918 99.3438 280.918 100.828V102.449H265.137V99.5H277.305V99.2266C277.253 98.2891 277.057 97.3776 276.719 96.4922C276.393 95.6068 275.872 94.8776 275.156 94.3047C274.44 93.7318 273.464 93.4453 272.227 93.4453C271.406 93.4453 270.651 93.6211 269.961 93.9727C269.271 94.3112 268.678 94.819 268.184 95.4961C267.689 96.1732 267.305 97 267.031 97.9766C266.758 98.9531 266.621 100.079 266.621 101.355V102.176C266.621 103.178 266.758 104.122 267.031 105.008C267.318 105.88 267.728 106.648 268.262 107.312C268.809 107.977 269.466 108.497 270.234 108.875C271.016 109.253 271.901 109.441 272.891 109.441C274.167 109.441 275.247 109.181 276.133 108.66C277.018 108.139 277.793 107.443 278.457 106.57L280.645 108.309C280.189 108.999 279.609 109.656 278.906 110.281C278.203 110.906 277.337 111.414 276.309 111.805C275.293 112.195 274.089 112.391 272.695 112.391ZM293.906 112.391C292.435 112.391 291.1 112.143 289.902 111.648C288.717 111.141 287.695 110.431 286.836 109.52C285.99 108.608 285.339 107.527 284.883 106.277C284.427 105.027 284.199 103.66 284.199 102.176V101.355C284.199 99.6367 284.453 98.1068 284.961 96.7656C285.469 95.4115 286.159 94.2656 287.031 93.3281C287.904 92.3906 288.893 91.681 290 91.1992C291.107 90.7174 292.253 90.4766 293.438 90.4766C294.948 90.4766 296.25 90.737 297.344 91.2578C298.451 91.7786 299.355 92.5078 300.059 93.4453C300.762 94.3698 301.283 95.4635 301.621 96.7266C301.96 97.9766 302.129 99.3438 302.129 100.828V102.449H286.348V99.5H298.516V99.2266C298.464 98.2891 298.268 97.3776 297.93 96.4922C297.604 95.6068 297.083 94.8776 296.367 94.3047C295.651 93.7318 294.674 93.4453 293.438 93.4453C292.617 93.4453 291.862 93.6211 291.172 93.9727C290.482 94.3112 289.889 94.819 289.395 95.4961C288.9 96.1732 288.516 97 288.242 97.9766C287.969 98.9531 287.832 100.079 287.832 101.355V102.176C287.832 103.178 287.969 104.122 288.242 105.008C288.529 105.88 288.939 106.648 289.473 107.312C290.02 107.977 290.677 108.497 291.445 108.875C292.227 109.253 293.112 109.441 294.102 109.441C295.378 109.441 296.458 109.181 297.344 108.66C298.229 108.139 299.004 107.443 299.668 106.57L301.855 108.309C301.4 108.999 300.82 109.656 300.117 110.281C299.414 110.906 298.548 111.414 297.52 111.805C296.504 112.195 295.299 112.391 293.906 112.391Z" fill="black"/>
<path d="M212.795 158.43V167.365H208.4V158.43H212.795ZM212.268 206.271V214.094H207.902V206.271H212.268ZM218.127 197.014C218.127 195.842 217.863 194.787 217.336 193.85C216.809 192.912 215.939 192.053 214.729 191.271C213.518 190.49 211.896 189.768 209.865 189.104C207.404 188.342 205.275 187.414 203.479 186.32C201.701 185.227 200.324 183.869 199.348 182.248C198.391 180.627 197.912 178.664 197.912 176.359C197.912 173.957 198.43 171.887 199.465 170.148C200.5 168.41 201.965 167.072 203.859 166.135C205.754 165.197 207.98 164.729 210.539 164.729C212.531 164.729 214.309 165.031 215.871 165.637C217.434 166.223 218.752 167.102 219.826 168.273C220.92 169.445 221.75 170.881 222.316 172.58C222.902 174.279 223.195 176.242 223.195 178.469H217.805C217.805 177.16 217.648 175.959 217.336 174.865C217.023 173.771 216.555 172.824 215.93 172.023C215.305 171.203 214.543 170.578 213.645 170.148C212.746 169.699 211.711 169.475 210.539 169.475C208.898 169.475 207.541 169.758 206.467 170.324C205.412 170.891 204.631 171.691 204.123 172.727C203.615 173.742 203.361 174.924 203.361 176.271C203.361 177.521 203.615 178.615 204.123 179.553C204.631 180.49 205.49 181.34 206.701 182.102C207.932 182.844 209.621 183.576 211.77 184.299C214.289 185.1 216.428 186.047 218.186 187.141C219.943 188.215 221.281 189.543 222.199 191.125C223.117 192.688 223.576 194.631 223.576 196.955C223.576 199.475 223.01 201.604 221.877 203.342C220.744 205.061 219.152 206.369 217.102 207.268C215.051 208.166 212.648 208.615 209.895 208.615C208.234 208.615 206.594 208.391 204.973 207.941C203.352 207.492 201.887 206.76 200.578 205.744C199.27 204.709 198.225 203.352 197.443 201.672C196.662 199.973 196.271 197.893 196.271 195.432H201.721C201.721 197.092 201.955 198.469 202.424 199.562C202.912 200.637 203.557 201.496 204.357 202.141C205.158 202.766 206.037 203.215 206.994 203.488C207.971 203.742 208.938 203.869 209.895 203.869C211.652 203.869 213.137 203.596 214.348 203.049C215.578 202.482 216.516 201.682 217.16 200.646C217.805 199.611 218.127 198.4 218.127 197.014ZM257.121 183.273V189.777C257.121 193.273 256.809 196.223 256.184 198.625C255.559 201.027 254.66 202.961 253.488 204.426C252.316 205.891 250.9 206.955 249.24 207.619C247.6 208.264 245.744 208.586 243.674 208.586C242.033 208.586 240.52 208.381 239.133 207.971C237.746 207.561 236.496 206.906 235.383 206.008C234.289 205.09 233.352 203.898 232.57 202.434C231.789 200.969 231.193 199.191 230.783 197.102C230.373 195.012 230.168 192.57 230.168 189.777V183.273C230.168 179.777 230.48 176.848 231.105 174.484C231.75 172.121 232.658 170.227 233.83 168.801C235.002 167.355 236.408 166.32 238.049 165.695C239.709 165.07 241.564 164.758 243.615 164.758C245.275 164.758 246.799 164.963 248.186 165.373C249.592 165.764 250.842 166.398 251.936 167.277C253.029 168.137 253.957 169.289 254.719 170.734C255.5 172.16 256.096 173.908 256.506 175.979C256.916 178.049 257.121 180.48 257.121 183.273ZM251.672 190.656V182.365C251.672 180.451 251.555 178.771 251.32 177.326C251.105 175.861 250.783 174.611 250.354 173.576C249.924 172.541 249.377 171.701 248.713 171.057C248.068 170.412 247.316 169.943 246.457 169.65C245.617 169.338 244.67 169.182 243.615 169.182C242.326 169.182 241.184 169.426 240.188 169.914C239.191 170.383 238.352 171.135 237.668 172.17C237.004 173.205 236.496 174.562 236.145 176.242C235.793 177.922 235.617 179.963 235.617 182.365V190.656C235.617 192.57 235.725 194.26 235.939 195.725C236.174 197.189 236.516 198.459 236.965 199.533C237.414 200.588 237.961 201.457 238.605 202.141C239.25 202.824 239.992 203.332 240.832 203.664C241.691 203.977 242.639 204.133 243.674 204.133C245.002 204.133 246.164 203.879 247.16 203.371C248.156 202.863 248.986 202.072 249.65 200.998C250.334 199.904 250.842 198.508 251.174 196.809C251.506 195.09 251.672 193.039 251.672 190.656ZM283.547 165.344L265.764 211.662H261.105L278.918 165.344H283.547ZM294.855 182.6V208H289.406V176.301H294.562L294.855 182.6ZM293.742 190.949L291.223 190.861C291.242 188.693 291.525 186.691 292.072 184.855C292.619 183 293.43 181.389 294.504 180.021C295.578 178.654 296.916 177.6 298.518 176.857C300.119 176.096 301.975 175.715 304.084 175.715C305.568 175.715 306.936 175.93 308.186 176.359C309.436 176.77 310.52 177.424 311.438 178.322C312.355 179.221 313.068 180.373 313.576 181.779C314.084 183.186 314.338 184.885 314.338 186.877V208H308.918V187.141C308.918 185.48 308.635 184.152 308.068 183.156C307.521 182.16 306.74 181.438 305.725 180.988C304.709 180.52 303.518 180.285 302.15 180.285C300.549 180.285 299.211 180.568 298.137 181.135C297.062 181.701 296.203 182.482 295.559 183.479C294.914 184.475 294.445 185.617 294.152 186.906C293.879 188.176 293.742 189.523 293.742 190.949ZM314.279 187.961L310.646 189.074C310.666 187.336 310.949 185.666 311.496 184.064C312.062 182.463 312.873 181.037 313.928 179.787C315.002 178.537 316.32 177.551 317.883 176.828C319.445 176.086 321.232 175.715 323.244 175.715C324.943 175.715 326.447 175.939 327.756 176.389C329.084 176.838 330.197 177.531 331.096 178.469C332.014 179.387 332.707 180.568 333.176 182.014C333.645 183.459 333.879 185.178 333.879 187.17V208H328.43V187.111C328.43 185.334 328.146 183.957 327.58 182.98C327.033 181.984 326.252 181.291 325.236 180.9C324.24 180.49 323.049 180.285 321.662 180.285C320.471 180.285 319.416 180.49 318.498 180.9C317.58 181.311 316.809 181.877 316.184 182.6C315.559 183.303 315.08 184.113 314.748 185.031C314.436 185.949 314.279 186.926 314.279 187.961Z" fill="black"/>
<rect x="98" y="632" width="333" height="13.7921" rx="6.89604" fill="#16194F" fill-opacity="0.85"/>
<rect x="98" y="670.421" width="333" height="13.7921" rx="6.89604" fill="#16194F" fill-opacity="0.85"/>
<rect x="98" y="708.842" width="333" height="13.7921" rx="6.89604" fill="#16194F" fill-opacity="0.85"/>
<rect x="98" y="747.262" width="333" height="13.7921" rx="6.89604" fill="#16194F" fill-opacity="0.85"/>
<rect x="98" y="785.683" width="333" height="13.7921" rx="6.89604" fill="#16194F" fill-opacity="0.85"/>
<rect x="98" y="824.104" width="333" height="13.7921" rx="6.89604" fill="#16194F" fill-opacity="0.85"/>
<rect x="98" y="862.525" width="333" height="13.7921" rx="6.89604" fill="#16194F" fill-opacity="0.85"/>
<rect x="98" y="900.946" width="333" height="13.7921" rx="6.89604" fill="#16194F" fill-opacity="0.85"/>
<rect x="98" y="939.366" width="333" height="13.7921" rx="6.89604" fill="#16194F" fill-opacity="0.85"/>
<rect x="98" y="977.787" width="333" height="13.7921" rx="6.89604" fill="#16194F" fill-opacity="0.85"/>
<rect x="98" y="1016.21" width="333" height="13.7921" rx="6.89604" fill="#16194F" fill-opacity="0.85"/>
<path d="M295 406C295 394.954 303.954 386 315 386H442C453.046 386 462 394.954 462 406V422C462 433.046 453.046 442 442 442H315C303.954 442 295 433.046 295 422V406Z" fill="#F44E77"/>
<path d="M348.074 417.688C348.074 417.289 348.012 416.938 347.887 416.633C347.77 416.32 347.559 416.039 347.254 415.789C346.957 415.539 346.543 415.301 346.012 415.074C345.488 414.848 344.824 414.617 344.02 414.383C343.176 414.133 342.414 413.855 341.734 413.551C341.055 413.238 340.473 412.883 339.988 412.484C339.504 412.086 339.133 411.629 338.875 411.113C338.617 410.598 338.488 410.008 338.488 409.344C338.488 408.68 338.625 408.066 338.898 407.504C339.172 406.941 339.562 406.453 340.07 406.039C340.586 405.617 341.199 405.289 341.91 405.055C342.621 404.82 343.414 404.703 344.289 404.703C345.57 404.703 346.656 404.949 347.547 405.441C348.445 405.926 349.129 406.562 349.598 407.352C350.066 408.133 350.301 408.969 350.301 409.859H348.051C348.051 409.219 347.914 408.652 347.641 408.16C347.367 407.66 346.953 407.27 346.398 406.988C345.844 406.699 345.141 406.555 344.289 406.555C343.484 406.555 342.82 406.676 342.297 406.918C341.773 407.16 341.383 407.488 341.125 407.902C340.875 408.316 340.75 408.789 340.75 409.32C340.75 409.68 340.824 410.008 340.973 410.305C341.129 410.594 341.367 410.863 341.688 411.113C342.016 411.363 342.43 411.594 342.93 411.805C343.438 412.016 344.043 412.219 344.746 412.414C345.715 412.688 346.551 412.992 347.254 413.328C347.957 413.664 348.535 414.043 348.988 414.465C349.449 414.879 349.789 415.352 350.008 415.883C350.234 416.406 350.348 417 350.348 417.664C350.348 418.359 350.207 418.988 349.926 419.551C349.645 420.113 349.242 420.594 348.719 420.992C348.195 421.391 347.566 421.699 346.832 421.918C346.105 422.129 345.293 422.234 344.395 422.234C343.605 422.234 342.828 422.125 342.062 421.906C341.305 421.688 340.613 421.359 339.988 420.922C339.371 420.484 338.875 419.945 338.5 419.305C338.133 418.656 337.949 417.906 337.949 417.055H340.199C340.199 417.641 340.312 418.145 340.539 418.566C340.766 418.98 341.074 419.324 341.465 419.598C341.863 419.871 342.312 420.074 342.812 420.207C343.32 420.332 343.848 420.395 344.395 420.395C345.184 420.395 345.852 420.285 346.398 420.066C346.945 419.848 347.359 419.535 347.641 419.129C347.93 418.723 348.074 418.242 348.074 417.688Z" fill="black"/>
<path d="M348.074 417.688C348.074 417.289 348.012 416.938 347.887 416.633C347.77 416.32 347.559 416.039 347.254 415.789C346.957 415.539 346.543 415.301 346.012 415.074C345.488 414.848 344.824 414.617 344.02 414.383C343.176 414.133 342.414 413.855 341.734 413.551C341.055 413.238 340.473 412.883 339.988 412.484C339.504 412.086 339.133 411.629 338.875 411.113C338.617 410.598 338.488 410.008 338.488 409.344C338.488 408.68 338.625 408.066 338.898 407.504C339.172 406.941 339.562 406.453 340.07 406.039C340.586 405.617 341.199 405.289 341.91 405.055C342.621 404.82 343.414 404.703 344.289 404.703C345.57 404.703 346.656 404.949 347.547 405.441C348.445 405.926 349.129 406.562 349.598 407.352C350.066 408.133 350.301 408.969 350.301 409.859H348.051C348.051 409.219 347.914 408.652 347.641 408.16C347.367 407.66 346.953 407.27 346.398 406.988C345.844 406.699 345.141 406.555 344.289 406.555C343.484 406.555 342.82 406.676 342.297 406.918C341.773 407.16 341.383 407.488 341.125 407.902C340.875 408.316 340.75 408.789 340.75 409.32C340.75 409.68 340.824 410.008 340.973 410.305C341.129 410.594 341.367 410.863 341.688 411.113C342.016 411.363 342.43 411.594 342.93 411.805C343.438 412.016 344.043 412.219 344.746 412.414C345.715 412.688 346.551 412.992 347.254 413.328C347.957 413.664 348.535 414.043 348.988 414.465C349.449 414.879 349.789 415.352 350.008 415.883C350.234 416.406 350.348 417 350.348 417.664C350.348 418.359 350.207 418.988 349.926 419.551C349.645 420.113 349.242 420.594 348.719 420.992C348.195 421.391 347.566 421.699 346.832 421.918C346.105 422.129 345.293 422.234 344.395 422.234C343.605 422.234 342.828 422.125 342.062 421.906C341.305 421.688 340.613 421.359 339.988 420.922C339.371 420.484 338.875 419.945 338.5 419.305C338.133 418.656 337.949 417.906 337.949 417.055H340.199C340.199 417.641 340.312 418.145 340.539 418.566C340.766 418.98 341.074 419.324 341.465 419.598C341.863 419.871 342.312 420.074 342.812 420.207C343.32 420.332 343.848 420.395 344.395 420.395C345.184 420.395 345.852 420.285 346.398 420.066C346.945 419.848 347.359 419.535 347.641 419.129C347.93 418.723 348.074 418.242 348.074 417.688Z" fill="black"/>
<path d="M348.074 417.688C348.074 417.289 348.012 416.938 347.887 416.633C347.77 416.32 347.559 416.039 347.254 415.789C346.957 415.539 346.543 415.301 346.012 415.074C345.488 414.848 344.824 414.617 344.02 414.383C343.176 414.133 342.414 413.855 341.734 413.551C341.055 413.238 340.473 412.883 339.988 412.484C339.504 412.086 339.133 411.629 338.875 411.113C338.617 410.598 338.488 410.008 338.488 409.344C338.488 408.68 338.625 408.066 338.898 407.504C339.172 406.941 339.562 406.453 340.07 406.039C340.586 405.617 341.199 405.289 341.91 405.055C342.621 404.82 343.414 404.703 344.289 404.703C345.57 404.703 346.656 404.949 347.547 405.441C348.445 405.926 349.129 406.562 349.598 407.352C350.066 408.133 350.301 408.969 350.301 409.859H348.051C348.051 409.219 347.914 408.652 347.641 408.16C347.367 407.66 346.953 407.27 346.398 406.988C345.844 406.699 345.141 406.555 344.289 406.555C343.484 406.555 342.82 406.676 342.297 406.918C341.773 407.16 341.383 407.488 341.125 407.902C340.875 408.316 340.75 408.789 340.75 409.32C340.75 409.68 340.824 410.008 340.973 410.305C341.129 410.594 341.367 410.863 341.688 411.113C342.016 411.363 342.43 411.594 342.93 411.805C343.438 412.016 344.043 412.219 344.746 412.414C345.715 412.688 346.551 412.992 347.254 413.328C347.957 413.664 348.535 414.043 348.988 414.465C349.449 414.879 349.789 415.352 350.008 415.883C350.234 416.406 350.348 417 350.348 417.664C350.348 418.359 350.207 418.988 349.926 419.551C349.645 420.113 349.242 420.594 348.719 420.992C348.195 421.391 347.566 421.699 346.832 421.918C346.105 422.129 345.293 422.234 344.395 422.234C343.605 422.234 342.828 422.125 342.062 421.906C341.305 421.688 340.613 421.359 339.988 420.922C339.371 420.484 338.875 419.945 338.5 419.305C338.133 418.656 337.949 417.906 337.949 417.055H340.199C340.199 417.641 340.312 418.145 340.539 418.566C340.766 418.98 341.074 419.324 341.465 419.598C341.863 419.871 342.312 420.074 342.812 420.207C343.32 420.332 343.848 420.395 344.395 420.395C345.184 420.395 345.852 420.285 346.398 420.066C346.945 419.848 347.359 419.535 347.641 419.129C347.93 418.723 348.074 418.242 348.074 417.688Z" fill="black"/>
<path d="M355.258 409.32V422H353.078V409.32H355.258ZM352.914 405.957C352.914 405.605 353.02 405.309 353.23 405.066C353.449 404.824 353.77 404.703 354.191 404.703C354.605 404.703 354.922 404.824 355.141 405.066C355.367 405.309 355.48 405.605 355.48 405.957C355.48 406.293 355.367 406.582 355.141 406.824C354.922 407.059 354.605 407.176 354.191 407.176C353.77 407.176 353.449 407.059 353.23 406.824C353.02 406.582 352.914 406.293 352.914 405.957Z" fill="black"/>
<path d="M355.258 409.32V422H353.078V409.32H355.258ZM352.914 405.957C352.914 405.605 353.02 405.309 353.23 405.066C353.449 404.824 353.77 404.703 354.191 404.703C354.605 404.703 354.922 404.824 355.141 405.066C355.367 405.309 355.48 405.605 355.48 405.957C355.48 406.293 355.367 406.582 355.141 406.824C354.922 407.059 354.605 407.176 354.191 407.176C353.77 407.176 353.449 407.059 353.23 406.824C353.02 406.582 352.914 406.293 352.914 405.957Z" fill="black"/>
<path d="M355.258 409.32V422H353.078V409.32H355.258ZM352.914 405.957C352.914 405.605 353.02 405.309 353.23 405.066C353.449 404.824 353.77 404.703 354.191 404.703C354.605 404.703 354.922 404.824 355.141 405.066C355.367 405.309 355.48 405.605 355.48 405.957C355.48 406.293 355.367 406.582 355.141 406.824C354.922 407.059 354.605 407.176 354.191 407.176C353.77 407.176 353.449 407.059 353.23 406.824C353.02 406.582 352.914 406.293 352.914 405.957Z" fill="black"/>
<path d="M366.953 409.32H368.922V421.73C368.922 422.848 368.695 423.801 368.242 424.59C367.789 425.379 367.156 425.977 366.344 426.383C365.539 426.797 364.609 427.004 363.555 427.004C363.117 427.004 362.602 426.934 362.008 426.793C361.422 426.66 360.844 426.43 360.273 426.102C359.711 425.781 359.238 425.348 358.855 424.801L359.992 423.512C360.523 424.152 361.078 424.598 361.656 424.848C362.242 425.098 362.82 425.223 363.391 425.223C364.078 425.223 364.672 425.094 365.172 424.836C365.672 424.578 366.059 424.195 366.332 423.688C366.613 423.188 366.754 422.57 366.754 421.836V412.109L366.953 409.32ZM358.223 415.801V415.555C358.223 414.586 358.336 413.707 358.562 412.918C358.797 412.121 359.129 411.438 359.559 410.867C359.996 410.297 360.523 409.859 361.141 409.555C361.758 409.242 362.453 409.086 363.227 409.086C364.023 409.086 364.719 409.227 365.312 409.508C365.914 409.781 366.422 410.184 366.836 410.715C367.258 411.238 367.59 411.871 367.832 412.613C368.074 413.355 368.242 414.195 368.336 415.133V416.211C368.25 417.141 368.082 417.977 367.832 418.719C367.59 419.461 367.258 420.094 366.836 420.617C366.422 421.141 365.914 421.543 365.312 421.824C364.711 422.098 364.008 422.234 363.203 422.234C362.445 422.234 361.758 422.074 361.141 421.754C360.531 421.434 360.008 420.984 359.57 420.406C359.133 419.828 358.797 419.148 358.562 418.367C358.336 417.578 358.223 416.723 358.223 415.801ZM360.391 415.555V415.801C360.391 416.434 360.453 417.027 360.578 417.582C360.711 418.137 360.91 418.625 361.176 419.047C361.449 419.469 361.797 419.801 362.219 420.043C362.641 420.277 363.145 420.395 363.73 420.395C364.449 420.395 365.043 420.242 365.512 419.938C365.98 419.633 366.352 419.23 366.625 418.73C366.906 418.23 367.125 417.688 367.281 417.102V414.277C367.195 413.848 367.062 413.434 366.883 413.035C366.711 412.629 366.484 412.27 366.203 411.957C365.93 411.637 365.59 411.383 365.184 411.195C364.777 411.008 364.301 410.914 363.754 410.914C363.16 410.914 362.648 411.039 362.219 411.289C361.797 411.531 361.449 411.867 361.176 412.297C360.91 412.719 360.711 413.211 360.578 413.773C360.453 414.328 360.391 414.922 360.391 415.555Z" fill="black"/>
<path d="M366.953 409.32H368.922V421.73C368.922 422.848 368.695 423.801 368.242 424.59C367.789 425.379 367.156 425.977 366.344 426.383C365.539 426.797 364.609 427.004 363.555 427.004C363.117 427.004 362.602 426.934 362.008 426.793C361.422 426.66 360.844 426.43 360.273 426.102C359.711 425.781 359.238 425.348 358.855 424.801L359.992 423.512C360.523 424.152 361.078 424.598 361.656 424.848C362.242 425.098 362.82 425.223 363.391 425.223C364.078 425.223 364.672 425.094 365.172 424.836C365.672 424.578 366.059 424.195 366.332 423.688C366.613 423.188 366.754 422.57 366.754 421.836V412.109L366.953 409.32ZM358.223 415.801V415.555C358.223 414.586 358.336 413.707 358.562 412.918C358.797 412.121 359.129 411.438 359.559 410.867C359.996 410.297 360.523 409.859 361.141 409.555C361.758 409.242 362.453 409.086 363.227 409.086C364.023 409.086 364.719 409.227 365.312 409.508C365.914 409.781 366.422 410.184 366.836 410.715C367.258 411.238 367.59 411.871 367.832 412.613C368.074 413.355 368.242 414.195 368.336 415.133V416.211C368.25 417.141 368.082 417.977 367.832 418.719C367.59 419.461 367.258 420.094 366.836 420.617C366.422 421.141 365.914 421.543 365.312 421.824C364.711 422.098 364.008 422.234 363.203 422.234C362.445 422.234 361.758 422.074 361.141 421.754C360.531 421.434 360.008 420.984 359.57 420.406C359.133 419.828 358.797 419.148 358.562 418.367C358.336 417.578 358.223 416.723 358.223 415.801ZM360.391 415.555V415.801C360.391 416.434 360.453 417.027 360.578 417.582C360.711 418.137 360.91 418.625 361.176 419.047C361.449 419.469 361.797 419.801 362.219 420.043C362.641 420.277 363.145 420.395 363.73 420.395C364.449 420.395 365.043 420.242 365.512 419.938C365.98 419.633 366.352 419.23 366.625 418.73C366.906 418.23 367.125 417.688 367.281 417.102V414.277C367.195 413.848 367.062 413.434 366.883 413.035C366.711 412.629 366.484 412.27 366.203 411.957C365.93 411.637 365.59 411.383 365.184 411.195C364.777 411.008 364.301 410.914 363.754 410.914C363.16 410.914 362.648 411.039 362.219 411.289C361.797 411.531 361.449 411.867 361.176 412.297C360.91 412.719 360.711 413.211 360.578 413.773C360.453 414.328 360.391 414.922 360.391 415.555Z" fill="black"/>
<path d="M366.953 409.32H368.922V421.73C368.922 422.848 368.695 423.801 368.242 424.59C367.789 425.379 367.156 425.977 366.344 426.383C365.539 426.797 364.609 427.004 363.555 427.004C363.117 427.004 362.602 426.934 362.008 426.793C361.422 426.66 360.844 426.43 360.273 426.102C359.711 425.781 359.238 425.348 358.855 424.801L359.992 423.512C360.523 424.152 361.078 424.598 361.656 424.848C362.242 425.098 362.82 425.223 363.391 425.223C364.078 425.223 364.672 425.094 365.172 424.836C365.672 424.578 366.059 424.195 366.332 423.688C366.613 423.188 366.754 422.57 366.754 421.836V412.109L366.953 409.32ZM358.223 415.801V415.555C358.223 414.586 358.336 413.707 358.562 412.918C358.797 412.121 359.129 411.438 359.559 410.867C359.996 410.297 360.523 409.859 361.141 409.555C361.758 409.242 362.453 409.086 363.227 409.086C364.023 409.086 364.719 409.227 365.312 409.508C365.914 409.781 366.422 410.184 366.836 410.715C367.258 411.238 367.59 411.871 367.832 412.613C368.074 413.355 368.242 414.195 368.336 415.133V416.211C368.25 417.141 368.082 417.977 367.832 418.719C367.59 419.461 367.258 420.094 366.836 420.617C366.422 421.141 365.914 421.543 365.312 421.824C364.711 422.098 364.008 422.234 363.203 422.234C362.445 422.234 361.758 422.074 361.141 421.754C360.531 421.434 360.008 420.984 359.57 420.406C359.133 419.828 358.797 419.148 358.562 418.367C358.336 417.578 358.223 416.723 358.223 415.801ZM360.391 415.555V415.801C360.391 416.434 360.453 417.027 360.578 417.582C360.711 418.137 360.91 418.625 361.176 419.047C361.449 419.469 361.797 419.801 362.219 420.043C362.641 420.277 363.145 420.395 363.73 420.395C364.449 420.395 365.043 420.242 365.512 419.938C365.98 419.633 366.352 419.23 366.625 418.73C366.906 418.23 367.125 417.688 367.281 417.102V414.277C367.195 413.848 367.062 413.434 366.883 413.035C366.711 412.629 366.484 412.27 366.203 411.957C365.93 411.637 365.59 411.383 365.184 411.195C364.777 411.008 364.301 410.914 363.754 410.914C363.16 410.914 362.648 411.039 362.219 411.289C361.797 411.531 361.449 411.867 361.176 412.297C360.91 412.719 360.711 413.211 360.578 413.773C360.453 414.328 360.391 414.922 360.391 415.555Z" fill="black"/>
<path d="M374.383 412.027V422H372.215V409.32H374.266L374.383 412.027ZM373.867 415.18L372.965 415.145C372.973 414.277 373.102 413.477 373.352 412.742C373.602 412 373.953 411.355 374.406 410.809C374.859 410.262 375.398 409.84 376.023 409.543C376.656 409.238 377.355 409.086 378.121 409.086C378.746 409.086 379.309 409.172 379.809 409.344C380.309 409.508 380.734 409.773 381.086 410.141C381.445 410.508 381.719 410.984 381.906 411.57C382.094 412.148 382.188 412.855 382.188 413.691V422H380.008V413.668C380.008 413.004 379.91 412.473 379.715 412.074C379.52 411.668 379.234 411.375 378.859 411.195C378.484 411.008 378.023 410.914 377.477 410.914C376.938 410.914 376.445 411.027 376 411.254C375.562 411.48 375.184 411.793 374.863 412.191C374.551 412.59 374.305 413.047 374.125 413.562C373.953 414.07 373.867 414.609 373.867 415.18Z" fill="black"/>
<path d="M374.383 412.027V422H372.215V409.32H374.266L374.383 412.027ZM373.867 415.18L372.965 415.145C372.973 414.277 373.102 413.477 373.352 412.742C373.602 412 373.953 411.355 374.406 410.809C374.859 410.262 375.398 409.84 376.023 409.543C376.656 409.238 377.355 409.086 378.121 409.086C378.746 409.086 379.309 409.172 379.809 409.344C380.309 409.508 380.734 409.773 381.086 410.141C381.445 410.508 381.719 410.984 381.906 411.57C382.094 412.148 382.188 412.855 382.188 413.691V422H380.008V413.668C380.008 413.004 379.91 412.473 379.715 412.074C379.52 411.668 379.234 411.375 378.859 411.195C378.484 411.008 378.023 410.914 377.477 410.914C376.938 410.914 376.445 411.027 376 411.254C375.562 411.48 375.184 411.793 374.863 412.191C374.551 412.59 374.305 413.047 374.125 413.562C373.953 414.07 373.867 414.609 373.867 415.18Z" fill="black"/>
<path d="M374.383 412.027V422H372.215V409.32H374.266L374.383 412.027ZM373.867 415.18L372.965 415.145C372.973 414.277 373.102 413.477 373.352 412.742C373.602 412 373.953 411.355 374.406 410.809C374.859 410.262 375.398 409.84 376.023 409.543C376.656 409.238 377.355 409.086 378.121 409.086C378.746 409.086 379.309 409.172 379.809 409.344C380.309 409.508 380.734 409.773 381.086 410.141C381.445 410.508 381.719 410.984 381.906 411.57C382.094 412.148 382.188 412.855 382.188 413.691V422H380.008V413.668C380.008 413.004 379.91 412.473 379.715 412.074C379.52 411.668 379.234 411.375 378.859 411.195C378.484 411.008 378.023 410.914 377.477 410.914C376.938 410.914 376.445 411.027 376 411.254C375.562 411.48 375.184 411.793 374.863 412.191C374.551 412.59 374.305 413.047 374.125 413.562C373.953 414.07 373.867 414.609 373.867 415.18Z" fill="black"/>
<path d="M401.523 404.938H403.773V416.48C403.773 417.762 403.488 418.828 402.918 419.68C402.348 420.531 401.59 421.172 400.645 421.602C399.707 422.023 398.688 422.234 397.586 422.234C396.43 422.234 395.383 422.023 394.445 421.602C393.516 421.172 392.777 420.531 392.23 419.68C391.691 418.828 391.422 417.762 391.422 416.48V404.938H393.66V416.48C393.66 417.371 393.824 418.105 394.152 418.684C394.48 419.262 394.938 419.691 395.523 419.973C396.117 420.254 396.805 420.395 397.586 420.395C398.375 420.395 399.062 420.254 399.648 419.973C400.242 419.691 400.703 419.262 401.031 418.684C401.359 418.105 401.523 417.371 401.523 416.48V404.938Z" fill="black"/>
<path d="M401.523 404.938H403.773V416.48C403.773 417.762 403.488 418.828 402.918 419.68C402.348 420.531 401.59 421.172 400.645 421.602C399.707 422.023 398.688 422.234 397.586 422.234C396.43 422.234 395.383 422.023 394.445 421.602C393.516 421.172 392.777 420.531 392.23 419.68C391.691 418.828 391.422 417.762 391.422 416.48V404.938H393.66V416.48C393.66 417.371 393.824 418.105 394.152 418.684C394.48 419.262 394.938 419.691 395.523 419.973C396.117 420.254 396.805 420.395 397.586 420.395C398.375 420.395 399.062 420.254 399.648 419.973C400.242 419.691 400.703 419.262 401.031 418.684C401.359 418.105 401.523 417.371 401.523 416.48V404.938Z" fill="black"/>
<path d="M401.523 404.938H403.773V416.48C403.773 417.762 403.488 418.828 402.918 419.68C402.348 420.531 401.59 421.172 400.645 421.602C399.707 422.023 398.688 422.234 397.586 422.234C396.43 422.234 395.383 422.023 394.445 421.602C393.516 421.172 392.777 420.531 392.23 419.68C391.691 418.828 391.422 417.762 391.422 416.48V404.938H393.66V416.48C393.66 417.371 393.824 418.105 394.152 418.684C394.48 419.262 394.938 419.691 395.523 419.973C396.117 420.254 396.805 420.395 397.586 420.395C398.375 420.395 399.062 420.254 399.648 419.973C400.242 419.691 400.703 419.262 401.031 418.684C401.359 418.105 401.523 417.371 401.523 416.48V404.938Z" fill="black"/>
<path d="M409.164 411.758V426.875H406.984V409.32H408.977L409.164 411.758ZM417.707 415.555V415.801C417.707 416.723 417.598 417.578 417.379 418.367C417.16 419.148 416.84 419.828 416.418 420.406C416.004 420.984 415.492 421.434 414.883 421.754C414.273 422.074 413.574 422.234 412.785 422.234C411.98 422.234 411.27 422.102 410.652 421.836C410.035 421.57 409.512 421.184 409.082 420.676C408.652 420.168 408.309 419.559 408.051 418.848C407.801 418.137 407.629 417.336 407.535 416.445V415.133C407.629 414.195 407.805 413.355 408.062 412.613C408.32 411.871 408.66 411.238 409.082 410.715C409.512 410.184 410.031 409.781 410.641 409.508C411.25 409.227 411.953 409.086 412.75 409.086C413.547 409.086 414.254 409.242 414.871 409.555C415.488 409.859 416.008 410.297 416.43 410.867C416.852 411.438 417.168 412.121 417.379 412.918C417.598 413.707 417.707 414.586 417.707 415.555ZM415.527 415.801V415.555C415.527 414.922 415.461 414.328 415.328 413.773C415.195 413.211 414.988 412.719 414.707 412.297C414.434 411.867 414.082 411.531 413.652 411.289C413.223 411.039 412.711 410.914 412.117 410.914C411.57 410.914 411.094 411.008 410.688 411.195C410.289 411.383 409.949 411.637 409.668 411.957C409.387 412.27 409.156 412.629 408.977 413.035C408.805 413.434 408.676 413.848 408.59 414.277V417.312C408.746 417.859 408.965 418.375 409.246 418.859C409.527 419.336 409.902 419.723 410.371 420.02C410.84 420.309 411.43 420.453 412.141 420.453C412.727 420.453 413.23 420.332 413.652 420.09C414.082 419.84 414.434 419.5 414.707 419.07C414.988 418.641 415.195 418.148 415.328 417.594C415.461 417.031 415.527 416.434 415.527 415.801Z" fill="black"/>
<path d="M409.164 411.758V426.875H406.984V409.32H408.977L409.164 411.758ZM417.707 415.555V415.801C417.707 416.723 417.598 417.578 417.379 418.367C417.16 419.148 416.84 419.828 416.418 420.406C416.004 420.984 415.492 421.434 414.883 421.754C414.273 422.074 413.574 422.234 412.785 422.234C411.98 422.234 411.27 422.102 410.652 421.836C410.035 421.57 409.512 421.184 409.082 420.676C408.652 420.168 408.309 419.559 408.051 418.848C407.801 418.137 407.629 417.336 407.535 416.445V415.133C407.629 414.195 407.805 413.355 408.062 412.613C408.32 411.871 408.66 411.238 409.082 410.715C409.512 410.184 410.031 409.781 410.641 409.508C411.25 409.227 411.953 409.086 412.75 409.086C413.547 409.086 414.254 409.242 414.871 409.555C415.488 409.859 416.008 410.297 416.43 410.867C416.852 411.438 417.168 412.121 417.379 412.918C417.598 413.707 417.707 414.586 417.707 415.555ZM415.527 415.801V415.555C415.527 414.922 415.461 414.328 415.328 413.773C415.195 413.211 414.988 412.719 414.707 412.297C414.434 411.867 414.082 411.531 413.652 411.289C413.223 411.039 412.711 410.914 412.117 410.914C411.57 410.914 411.094 411.008 410.688 411.195C410.289 411.383 409.949 411.637 409.668 411.957C409.387 412.27 409.156 412.629 408.977 413.035C408.805 413.434 408.676 413.848 408.59 414.277V417.312C408.746 417.859 408.965 418.375 409.246 418.859C409.527 419.336 409.902 419.723 410.371 420.02C410.84 420.309 411.43 420.453 412.141 420.453C412.727 420.453 413.23 420.332 413.652 420.09C414.082 419.84 414.434 419.5 414.707 419.07C414.988 418.641 415.195 418.148 415.328 417.594C415.461 417.031 415.527 416.434 415.527 415.801Z" fill="black"/>
<path d="M409.164 411.758V426.875H406.984V409.32H408.977L409.164 411.758ZM417.707 415.555V415.801C417.707 416.723 417.598 417.578 417.379 418.367C417.16 419.148 416.84 419.828 416.418 420.406C416.004 420.984 415.492 421.434 414.883 421.754C414.273 422.074 413.574 422.234 412.785 422.234C411.98 422.234 411.27 422.102 410.652 421.836C410.035 421.57 409.512 421.184 409.082 420.676C408.652 420.168 408.309 419.559 408.051 418.848C407.801 418.137 407.629 417.336 407.535 416.445V415.133C407.629 414.195 407.805 413.355 408.062 412.613C408.32 411.871 408.66 411.238 409.082 410.715C409.512 410.184 410.031 409.781 410.641 409.508C411.25 409.227 411.953 409.086 412.75 409.086C413.547 409.086 414.254 409.242 414.871 409.555C415.488 409.859 416.008 410.297 416.43 410.867C416.852 411.438 417.168 412.121 417.379 412.918C417.598 413.707 417.707 414.586 417.707 415.555ZM415.527 415.801V415.555C415.527 414.922 415.461 414.328 415.328 413.773C415.195 413.211 414.988 412.719 414.707 412.297C414.434 411.867 414.082 411.531 413.652 411.289C413.223 411.039 412.711 410.914 412.117 410.914C411.57 410.914 411.094 411.008 410.688 411.195C410.289 411.383 409.949 411.637 409.668 411.957C409.387 412.27 409.156 412.629 408.977 413.035C408.805 413.434 408.676 413.848 408.59 414.277V417.312C408.746 417.859 408.965 418.375 409.246 418.859C409.527 419.336 409.902 419.723 410.371 420.02C410.84 420.309 411.43 420.453 412.141 420.453C412.727 420.453 413.23 420.332 413.652 420.09C414.082 419.84 414.434 419.5 414.707 419.07C414.988 418.641 415.195 418.148 415.328 417.594C415.461 417.031 415.527 416.434 415.527 415.801Z" fill="black"/>
<defs>
<filter id="filter0_d_203_4" x="0" y="0" width="530" height="1246" filterUnits="userSpaceOnUse" color-interpolation-filters="sRGB">
<feFlood flood-opacity="0" result="BackgroundImageFix"/>
<feColorMatrix in="SourceAlpha" type="matrix" values="0 0 0 0 0 0 0 0 0 0 0 0 0 0 0 0 0 0 127 0" result="hardAlpha"/>
<feOffset dy="25"/>
<feGaussianBlur stdDeviation="25"/>
<feComposite in2="hardAlpha" operator="out"/>
<feColorMatrix type="matrix" values="0 0 0 0 0 0 0 0 0 0 0 0 0 0 0 0 0 0 0.05 0"/>
<feBlend mode="normal" in2="BackgroundImageFix" result="effect1_dropShadow_203_4"/>
<feBlend mode="normal" in="SourceGraphic" in2="effect1_dropShadow_203_4" result="shape"/>
</filter>
</defs>
</svg>
