<svg width="29" height="28" viewBox="0 0 29 28" fill="none" xmlns="http://www.w3.org/2000/svg">
<path fill-rule="evenodd" clip-rule="evenodd" d="M0.762207 14C0.762207 12.8955 1.38901 11.9999 2.1622 11.9999H27.3622C28.1353 11.9999 28.7622 12.8955 28.7622 14C28.7622 15.1047 28.1353 16.0001 27.3622 16.0001H2.1622C1.38901 16.0001 0.762207 15.1047 0.762207 14Z" fill="#3EBDF2"/>
<path fill-rule="evenodd" clip-rule="evenodd" d="M17.9723 0.585786C18.5189 -0.195262 19.4055 -0.195262 19.9522 0.585786L28.3522 12.5859C28.8988 13.3668 28.8988 14.6333 28.3522 15.4143L19.9522 27.4144C19.4055 28.1952 18.5189 28.1952 17.9723 27.4144C17.4256 26.6333 17.4256 25.3668 17.9723 24.5859L25.3823 14L17.9723 3.41423C17.4256 2.63316 17.4256 1.36685 17.9723 0.585786Z" fill="#DD2F6C"/>
</svg>
