<svg width="1010" height="196" viewBox="0 0 1010 196" fill="none" xmlns="http://www.w3.org/2000/svg">
<g filter="url(#filter0_d_207_5)">
<rect x="50" y="25" width="910" height="96" rx="48" fill="white"/>
</g>
<line x1="901.029" y1="57" x2="901.029" y2="89" stroke="black" stroke-width="5"/>
<path d="M885 70.5H917" stroke="black" stroke-width="5"/>
<path d="M116.91 81H113.195L113.219 78.2578H116.91C117.832 78.2578 118.609 78.0508 119.242 77.6367C119.875 77.2148 120.352 76.6016 120.672 75.7969C121 74.9922 121.164 74.0195 121.164 72.8789V72.0469C121.164 71.1719 121.07 70.4023 120.883 69.7383C120.703 69.0742 120.434 68.5156 120.074 68.0625C119.715 67.6094 119.273 67.2695 118.75 67.043C118.227 66.8086 117.625 66.6914 116.945 66.6914H113.125V63.9375H116.945C118.086 63.9375 119.129 64.1328 120.074 64.5234C121.027 64.9062 121.852 65.457 122.547 66.1758C123.242 66.8945 123.777 67.7539 124.152 68.7539C124.535 69.7461 124.727 70.8516 124.727 72.0703V72.8789C124.727 74.0898 124.535 75.1953 124.152 76.1953C123.777 77.1953 123.242 78.0547 122.547 78.7734C121.859 79.4844 121.035 80.0352 120.074 80.4258C119.121 80.8086 118.066 81 116.91 81ZM115.188 63.9375V81H111.672V63.9375H115.188ZM126.531 74.7891V74.543C126.531 73.6133 126.664 72.7578 126.93 71.9766C127.195 71.1875 127.582 70.5039 128.09 69.9258C128.598 69.3477 129.223 68.8984 129.965 68.5781C130.707 68.25 131.559 68.0859 132.52 68.0859C133.48 68.0859 134.336 68.25 135.086 68.5781C135.836 68.8984 136.465 69.3477 136.973 69.9258C137.488 70.5039 137.879 71.1875 138.145 71.9766C138.41 72.7578 138.543 73.6133 138.543 74.543V74.7891C138.543 75.7109 138.41 76.5664 138.145 77.3555C137.879 78.1367 137.488 78.8203 136.973 79.4062C136.465 79.9844 135.84 80.4336 135.098 80.7539C134.355 81.0742 133.504 81.2344 132.543 81.2344C131.582 81.2344 130.727 81.0742 129.977 80.7539C129.234 80.4336 128.605 79.9844 128.09 79.4062C127.582 78.8203 127.195 78.1367 126.93 77.3555C126.664 76.5664 126.531 75.7109 126.531 74.7891ZM129.906 74.543V74.7891C129.906 75.3203 129.953 75.8164 130.047 76.2773C130.141 76.7383 130.289 77.1445 130.492 77.4961C130.703 77.8398 130.977 78.1094 131.312 78.3047C131.648 78.5 132.059 78.5977 132.543 78.5977C133.012 78.5977 133.414 78.5 133.75 78.3047C134.086 78.1094 134.355 77.8398 134.559 77.4961C134.762 77.1445 134.91 76.7383 135.004 76.2773C135.105 75.8164 135.156 75.3203 135.156 74.7891V74.543C135.156 74.0273 135.105 73.543 135.004 73.0898C134.91 72.6289 134.758 72.2227 134.547 71.8711C134.344 71.5117 134.074 71.2305 133.738 71.0273C133.402 70.8242 132.996 70.7227 132.52 70.7227C132.043 70.7227 131.637 70.8242 131.301 71.0273C130.973 71.2305 130.703 71.5117 130.492 71.8711C130.289 72.2227 130.141 72.6289 130.047 73.0898C129.953 73.543 129.906 74.0273 129.906 74.543ZM150.355 79.5703L153.719 68.3203H157.34L152.242 82.9102C152.133 83.2305 151.984 83.5742 151.797 83.9414C151.617 84.3086 151.371 84.6562 151.059 84.9844C150.754 85.3203 150.367 85.5938 149.898 85.8047C149.438 86.0156 148.871 86.1211 148.199 86.1211C147.879 86.1211 147.617 86.1016 147.414 86.0625C147.211 86.0234 146.969 85.9688 146.688 85.8984V83.4258C146.773 83.4258 146.863 83.4258 146.957 83.4258C147.051 83.4336 147.141 83.4375 147.227 83.4375C147.672 83.4375 148.035 83.3867 148.316 83.2852C148.598 83.1836 148.824 83.0273 148.996 82.8164C149.168 82.6133 149.305 82.3477 149.406 82.0195L150.355 79.5703ZM148.949 68.3203L151.703 77.5078L152.184 81.082L149.887 81.3281L145.328 68.3203H148.949ZM157.961 74.7891V74.543C157.961 73.6133 158.094 72.7578 158.359 71.9766C158.625 71.1875 159.012 70.5039 159.52 69.9258C160.027 69.3477 160.652 68.8984 161.395 68.5781C162.137 68.25 162.988 68.0859 163.949 68.0859C164.91 68.0859 165.766 68.25 166.516 68.5781C167.266 68.8984 167.895 69.3477 168.402 69.9258C168.918 70.5039 169.309 71.1875 169.574 71.9766C169.84 72.7578 169.973 73.6133 169.973 74.543V74.7891C169.973 75.7109 169.84 76.5664 169.574 77.3555C169.309 78.1367 168.918 78.8203 168.402 79.4062C167.895 79.9844 167.27 80.4336 166.527 80.7539C165.785 81.0742 164.934 81.2344 163.973 81.2344C163.012 81.2344 162.156 81.0742 161.406 80.7539C160.664 80.4336 160.035 79.9844 159.52 79.4062C159.012 78.8203 158.625 78.1367 158.359 77.3555C158.094 76.5664 157.961 75.7109 157.961 74.7891ZM161.336 74.543V74.7891C161.336 75.3203 161.383 75.8164 161.477 76.2773C161.57 76.7383 161.719 77.1445 161.922 77.4961C162.133 77.8398 162.406 78.1094 162.742 78.3047C163.078 78.5 163.488 78.5977 163.973 78.5977C164.441 78.5977 164.844 78.5 165.18 78.3047C165.516 78.1094 165.785 77.8398 165.988 77.4961C166.191 77.1445 166.34 76.7383 166.434 76.2773C166.535 75.8164 166.586 75.3203 166.586 74.7891V74.543C166.586 74.0273 166.535 73.543 166.434 73.0898C166.34 72.6289 166.188 72.2227 165.977 71.8711C165.773 71.5117 165.504 71.2305 165.168 71.0273C164.832 70.8242 164.426 70.7227 163.949 70.7227C163.473 70.7227 163.066 70.8242 162.73 71.0273C162.402 71.2305 162.133 71.5117 161.922 71.8711C161.719 72.2227 161.57 72.6289 161.477 73.0898C161.383 73.543 161.336 74.0273 161.336 74.543ZM179.547 77.9648V68.3203H182.922V81H179.746L179.547 77.9648ZM179.922 75.3633L180.918 75.3398C180.918 76.1836 180.82 76.9688 180.625 77.6953C180.43 78.4141 180.137 79.0391 179.746 79.5703C179.355 80.0938 178.863 80.5039 178.27 80.8008C177.676 81.0898 176.977 81.2344 176.172 81.2344C175.555 81.2344 174.984 81.1484 174.461 80.9766C173.945 80.7969 173.5 80.5195 173.125 80.1445C172.758 79.7617 172.469 79.2734 172.258 78.6797C172.055 78.0781 171.953 77.3555 171.953 76.5117V68.3203H175.328V76.5352C175.328 76.9102 175.371 77.2266 175.457 77.4844C175.551 77.7422 175.68 77.9531 175.844 78.1172C176.008 78.2812 176.199 78.3984 176.418 78.4688C176.645 78.5391 176.895 78.5742 177.168 78.5742C177.863 78.5742 178.41 78.4336 178.809 78.1523C179.215 77.8711 179.5 77.4883 179.664 77.0039C179.836 76.5117 179.922 75.9648 179.922 75.3633ZM188.805 71.0273V81H185.43V68.3203H188.594L188.805 71.0273ZM188.312 74.2148H187.398C187.398 73.2773 187.52 72.4336 187.762 71.6836C188.004 70.9258 188.344 70.2812 188.781 69.75C189.219 69.2109 189.738 68.8008 190.34 68.5195C190.949 68.2305 191.629 68.0859 192.379 68.0859C192.973 68.0859 193.516 68.1719 194.008 68.3438C194.5 68.5156 194.922 68.7891 195.273 69.1641C195.633 69.5391 195.906 70.0352 196.094 70.6523C196.289 71.2695 196.387 72.0234 196.387 72.9141V81H192.988V72.9023C192.988 72.3398 192.91 71.9023 192.754 71.5898C192.598 71.2773 192.367 71.0586 192.062 70.9336C191.766 70.8008 191.398 70.7344 190.961 70.7344C190.508 70.7344 190.113 70.8242 189.777 71.0039C189.449 71.1836 189.176 71.4336 188.957 71.7539C188.746 72.0664 188.586 72.4336 188.477 72.8555C188.367 73.2773 188.312 73.7305 188.312 74.2148ZM208.223 63V81H204.848V63H208.223ZM207.742 74.2148H206.816C206.824 73.332 206.941 72.5195 207.168 71.7773C207.395 71.0273 207.719 70.3789 208.141 69.832C208.562 69.2773 209.066 68.8477 209.652 68.543C210.246 68.2383 210.902 68.0859 211.621 68.0859C212.246 68.0859 212.812 68.1758 213.32 68.3555C213.836 68.5273 214.277 68.8086 214.645 69.1992C215.02 69.582 215.309 70.0859 215.512 70.7109C215.715 71.3359 215.816 72.0938 215.816 72.9844V81H212.418V72.9609C212.418 72.3984 212.336 71.957 212.172 71.6367C212.016 71.3086 211.785 71.0781 211.48 70.9453C211.184 70.8047 210.816 70.7344 210.379 70.7344C209.895 70.7344 209.48 70.8242 209.137 71.0039C208.801 71.1836 208.531 71.4336 208.328 71.7539C208.125 72.0664 207.977 72.4336 207.883 72.8555C207.789 73.2773 207.742 73.7305 207.742 74.2148ZM225.227 78.1406V72.4922C225.227 72.0859 225.16 71.7383 225.027 71.4492C224.895 71.1523 224.688 70.9219 224.406 70.7578C224.133 70.5938 223.777 70.5117 223.34 70.5117C222.965 70.5117 222.641 70.5781 222.367 70.7109C222.094 70.8359 221.883 71.0195 221.734 71.2617C221.586 71.4961 221.512 71.7734 221.512 72.0938H218.137C218.137 71.5547 218.262 71.043 218.512 70.5586C218.762 70.0742 219.125 69.6484 219.602 69.2812C220.078 68.9062 220.645 68.6133 221.301 68.4023C221.965 68.1914 222.707 68.0859 223.527 68.0859C224.512 68.0859 225.387 68.25 226.152 68.5781C226.918 68.9062 227.52 69.3984 227.957 70.0547C228.402 70.7109 228.625 71.5312 228.625 72.5156V77.9414C228.625 78.6367 228.668 79.207 228.754 79.6523C228.84 80.0898 228.965 80.4727 229.129 80.8008V81H225.719C225.555 80.6562 225.43 80.2266 225.344 79.7109C225.266 79.1875 225.227 78.6641 225.227 78.1406ZM225.672 73.2773L225.695 75.1875H223.809C223.363 75.1875 222.977 75.2383 222.648 75.3398C222.32 75.4414 222.051 75.5859 221.84 75.7734C221.629 75.9531 221.473 76.1641 221.371 76.4062C221.277 76.6484 221.23 76.9141 221.23 77.2031C221.23 77.4922 221.297 77.7539 221.43 77.9883C221.562 78.2148 221.754 78.3945 222.004 78.5273C222.254 78.6523 222.547 78.7148 222.883 78.7148C223.391 78.7148 223.832 78.6133 224.207 78.4102C224.582 78.207 224.871 77.957 225.074 77.6602C225.285 77.3633 225.395 77.082 225.402 76.8164L226.293 78.2461C226.168 78.5664 225.996 78.8984 225.777 79.2422C225.566 79.5859 225.297 79.9102 224.969 80.2148C224.641 80.5117 224.246 80.7578 223.785 80.9531C223.324 81.1406 222.777 81.2344 222.145 81.2344C221.34 81.2344 220.609 81.0742 219.953 80.7539C219.305 80.4258 218.789 79.9766 218.406 79.4062C218.031 78.8281 217.844 78.1719 217.844 77.4375C217.844 76.7734 217.969 76.1836 218.219 75.668C218.469 75.1523 218.836 74.7188 219.32 74.3672C219.812 74.0078 220.426 73.7383 221.16 73.5586C221.895 73.3711 222.746 73.2773 223.715 73.2773H225.672ZM235.352 78.5391L238.164 68.3203H241.691L237.414 81H235.281L235.352 78.5391ZM233.418 68.3203L236.242 78.5508L236.301 81H234.156L229.879 68.3203H233.418ZM248.875 81.2344C247.891 81.2344 247.008 81.0781 246.227 80.7656C245.445 80.4453 244.781 80.0039 244.234 79.4414C243.695 78.8789 243.281 78.2266 242.992 77.4844C242.703 76.7344 242.559 75.9375 242.559 75.0938V74.625C242.559 73.6641 242.695 72.7852 242.969 71.9883C243.242 71.1914 243.633 70.5 244.141 69.9141C244.656 69.3281 245.281 68.8789 246.016 68.5664C246.75 68.2461 247.578 68.0859 248.5 68.0859C249.398 68.0859 250.195 68.2344 250.891 68.5312C251.586 68.8281 252.168 69.25 252.637 69.7969C253.113 70.3438 253.473 71 253.715 71.7656C253.957 72.5234 254.078 73.3672 254.078 74.2969V75.7031H244V73.4531H250.762V73.1953C250.762 72.7266 250.676 72.3086 250.504 71.9414C250.34 71.5664 250.09 71.2695 249.754 71.0508C249.418 70.832 248.988 70.7227 248.465 70.7227C248.02 70.7227 247.637 70.8203 247.316 71.0156C246.996 71.2109 246.734 71.4844 246.531 71.8359C246.336 72.1875 246.188 72.6016 246.086 73.0781C245.992 73.5469 245.945 74.0625 245.945 74.625V75.0938C245.945 75.6016 246.016 76.0703 246.156 76.5C246.305 76.9297 246.512 77.3008 246.777 77.6133C247.051 77.9258 247.379 78.168 247.762 78.3398C248.152 78.5117 248.594 78.5977 249.086 78.5977C249.695 78.5977 250.262 78.4805 250.785 78.2461C251.316 78.0039 251.773 77.6406 252.156 77.1562L253.797 78.9375C253.531 79.3203 253.168 79.6875 252.707 80.0391C252.254 80.3906 251.707 80.6797 251.066 80.9062C250.426 81.125 249.695 81.2344 248.875 81.2344ZM265.539 68.3203V81H262.152V68.3203H265.539ZM261.941 65.0156C261.941 64.5234 262.113 64.1172 262.457 63.7969C262.801 63.4766 263.262 63.3164 263.84 63.3164C264.41 63.3164 264.867 63.4766 265.211 63.7969C265.562 64.1172 265.738 64.5234 265.738 65.0156C265.738 65.5078 265.562 65.9141 265.211 66.2344C264.867 66.5547 264.41 66.7148 263.84 66.7148C263.262 66.7148 262.801 66.5547 262.457 66.2344C262.113 65.9141 261.941 65.5078 261.941 65.0156ZM275.184 77.4961C275.184 77.2539 275.113 77.0352 274.973 76.8398C274.832 76.6445 274.57 76.4648 274.188 76.3008C273.812 76.1289 273.27 75.9727 272.559 75.832C271.918 75.6914 271.32 75.5156 270.766 75.3047C270.219 75.0859 269.742 74.8242 269.336 74.5195C268.938 74.2148 268.625 73.8555 268.398 73.4414C268.172 73.0195 268.059 72.5391 268.059 72C268.059 71.4688 268.172 70.9688 268.398 70.5C268.633 70.0312 268.965 69.6172 269.395 69.2578C269.832 68.8906 270.363 68.6055 270.988 68.4023C271.621 68.1914 272.332 68.0859 273.121 68.0859C274.223 68.0859 275.168 68.2617 275.957 68.6133C276.754 68.9648 277.363 69.4492 277.785 70.0664C278.215 70.6758 278.43 71.3711 278.43 72.1523H275.055C275.055 71.8242 274.984 71.5312 274.844 71.2734C274.711 71.0078 274.5 70.8008 274.211 70.6523C273.93 70.4961 273.562 70.418 273.109 70.418C272.734 70.418 272.41 70.4844 272.137 70.6172C271.863 70.7422 271.652 70.9141 271.504 71.1328C271.363 71.3438 271.293 71.5781 271.293 71.8359C271.293 72.0312 271.332 72.207 271.41 72.3633C271.496 72.5117 271.633 72.6484 271.82 72.7734C272.008 72.8984 272.25 73.0156 272.547 73.125C272.852 73.2266 273.227 73.3203 273.672 73.4062C274.586 73.5938 275.402 73.8398 276.121 74.1445C276.84 74.4414 277.41 74.8477 277.832 75.3633C278.254 75.8711 278.465 76.5391 278.465 77.3672C278.465 77.9297 278.34 78.4453 278.09 78.9141C277.84 79.3828 277.48 79.793 277.012 80.1445C276.543 80.4883 275.98 80.7578 275.324 80.9531C274.676 81.1406 273.945 81.2344 273.133 81.2344C271.953 81.2344 270.953 81.0234 270.133 80.6016C269.32 80.1797 268.703 79.6445 268.281 78.9961C267.867 78.3398 267.66 77.668 267.66 76.9805H270.859C270.875 77.4414 270.992 77.8125 271.211 78.0938C271.438 78.375 271.723 78.5781 272.066 78.7031C272.418 78.8281 272.797 78.8906 273.203 78.8906C273.641 78.8906 274.004 78.832 274.293 78.7148C274.582 78.5898 274.801 78.4258 274.949 78.2227C275.105 78.0117 275.184 77.7695 275.184 77.4961ZM287.512 77.4961C287.512 77.2539 287.441 77.0352 287.301 76.8398C287.16 76.6445 286.898 76.4648 286.516 76.3008C286.141 76.1289 285.598 75.9727 284.887 75.832C284.246 75.6914 283.648 75.5156 283.094 75.3047C282.547 75.0859 282.07 74.8242 281.664 74.5195C281.266 74.2148 280.953 73.8555 280.727 73.4414C280.5 73.0195 280.387 72.5391 280.387 72C280.387 71.4688 280.5 70.9688 280.727 70.5C280.961 70.0312 281.293 69.6172 281.723 69.2578C282.16 68.8906 282.691 68.6055 283.316 68.4023C283.949 68.1914 284.66 68.0859 285.449 68.0859C286.551 68.0859 287.496 68.2617 288.285 68.6133C289.082 68.9648 289.691 69.4492 290.113 70.0664C290.543 70.6758 290.758 71.3711 290.758 72.1523H287.383C287.383 71.8242 287.312 71.5312 287.172 71.2734C287.039 71.0078 286.828 70.8008 286.539 70.6523C286.258 70.4961 285.891 70.418 285.438 70.418C285.062 70.418 284.738 70.4844 284.465 70.6172C284.191 70.7422 283.98 70.9141 283.832 71.1328C283.691 71.3438 283.621 71.5781 283.621 71.8359C283.621 72.0312 283.66 72.207 283.738 72.3633C283.824 72.5117 283.961 72.6484 284.148 72.7734C284.336 72.8984 284.578 73.0156 284.875 73.125C285.18 73.2266 285.555 73.3203 286 73.4062C286.914 73.5938 287.73 73.8398 288.449 74.1445C289.168 74.4414 289.738 74.8477 290.16 75.3633C290.582 75.8711 290.793 76.5391 290.793 77.3672C290.793 77.9297 290.668 78.4453 290.418 78.9141C290.168 79.3828 289.809 79.793 289.34 80.1445C288.871 80.4883 288.309 80.7578 287.652 80.9531C287.004 81.1406 286.273 81.2344 285.461 81.2344C284.281 81.2344 283.281 81.0234 282.461 80.6016C281.648 80.1797 281.031 79.6445 280.609 78.9961C280.195 78.3398 279.988 77.668 279.988 76.9805H283.188C283.203 77.4414 283.32 77.8125 283.539 78.0938C283.766 78.375 284.051 78.5781 284.395 78.7031C284.746 78.8281 285.125 78.8906 285.531 78.8906C285.969 78.8906 286.332 78.832 286.621 78.7148C286.91 78.5898 287.129 78.4258 287.277 78.2227C287.434 78.0117 287.512 77.7695 287.512 77.4961ZM300.484 77.9648V68.3203H303.859V81H300.684L300.484 77.9648ZM300.859 75.3633L301.855 75.3398C301.855 76.1836 301.758 76.9688 301.562 77.6953C301.367 78.4141 301.074 79.0391 300.684 79.5703C300.293 80.0938 299.801 80.5039 299.207 80.8008C298.613 81.0898 297.914 81.2344 297.109 81.2344C296.492 81.2344 295.922 81.1484 295.398 80.9766C294.883 80.7969 294.438 80.5195 294.062 80.1445C293.695 79.7617 293.406 79.2734 293.195 78.6797C292.992 78.0781 292.891 77.3555 292.891 76.5117V68.3203H296.266V76.5352C296.266 76.9102 296.309 77.2266 296.395 77.4844C296.488 77.7422 296.617 77.9531 296.781 78.1172C296.945 78.2812 297.137 78.3984 297.355 78.4688C297.582 78.5391 297.832 78.5742 298.105 78.5742C298.801 78.5742 299.348 78.4336 299.746 78.1523C300.152 77.8711 300.438 77.4883 300.602 77.0039C300.773 76.5117 300.859 75.9648 300.859 75.3633ZM312.273 81.2344C311.289 81.2344 310.406 81.0781 309.625 80.7656C308.844 80.4453 308.18 80.0039 307.633 79.4414C307.094 78.8789 306.68 78.2266 306.391 77.4844C306.102 76.7344 305.957 75.9375 305.957 75.0938V74.625C305.957 73.6641 306.094 72.7852 306.367 71.9883C306.641 71.1914 307.031 70.5 307.539 69.9141C308.055 69.3281 308.68 68.8789 309.414 68.5664C310.148 68.2461 310.977 68.0859 311.898 68.0859C312.797 68.0859 313.594 68.2344 314.289 68.5312C314.984 68.8281 315.566 69.25 316.035 69.7969C316.512 70.3438 316.871 71 317.113 71.7656C317.355 72.5234 317.477 73.3672 317.477 74.2969V75.7031H307.398V73.4531H314.16V73.1953C314.16 72.7266 314.074 72.3086 313.902 71.9414C313.738 71.5664 313.488 71.2695 313.152 71.0508C312.816 70.832 312.387 70.7227 311.863 70.7227C311.418 70.7227 311.035 70.8203 310.715 71.0156C310.395 71.2109 310.133 71.4844 309.93 71.8359C309.734 72.1875 309.586 72.6016 309.484 73.0781C309.391 73.5469 309.344 74.0625 309.344 74.625V75.0938C309.344 75.6016 309.414 76.0703 309.555 76.5C309.703 76.9297 309.91 77.3008 310.176 77.6133C310.449 77.9258 310.777 78.168 311.16 78.3398C311.551 78.5117 311.992 78.5977 312.484 78.5977C313.094 78.5977 313.66 78.4805 314.184 78.2461C314.715 78.0039 315.172 77.6406 315.555 77.1562L317.195 78.9375C316.93 79.3203 316.566 79.6875 316.105 80.0391C315.652 80.3906 315.105 80.6797 314.465 80.9062C313.824 81.125 313.094 81.2344 312.273 81.2344ZM326.254 77.4961C326.254 77.2539 326.184 77.0352 326.043 76.8398C325.902 76.6445 325.641 76.4648 325.258 76.3008C324.883 76.1289 324.34 75.9727 323.629 75.832C322.988 75.6914 322.391 75.5156 321.836 75.3047C321.289 75.0859 320.812 74.8242 320.406 74.5195C320.008 74.2148 319.695 73.8555 319.469 73.4414C319.242 73.0195 319.129 72.5391 319.129 72C319.129 71.4688 319.242 70.9688 319.469 70.5C319.703 70.0312 320.035 69.6172 320.465 69.2578C320.902 68.8906 321.434 68.6055 322.059 68.4023C322.691 68.1914 323.402 68.0859 324.191 68.0859C325.293 68.0859 326.238 68.2617 327.027 68.6133C327.824 68.9648 328.434 69.4492 328.855 70.0664C329.285 70.6758 329.5 71.3711 329.5 72.1523H326.125C326.125 71.8242 326.055 71.5312 325.914 71.2734C325.781 71.0078 325.57 70.8008 325.281 70.6523C325 70.4961 324.633 70.418 324.18 70.418C323.805 70.418 323.48 70.4844 323.207 70.6172C322.934 70.7422 322.723 70.9141 322.574 71.1328C322.434 71.3438 322.363 71.5781 322.363 71.8359C322.363 72.0312 322.402 72.207 322.48 72.3633C322.566 72.5117 322.703 72.6484 322.891 72.7734C323.078 72.8984 323.32 73.0156 323.617 73.125C323.922 73.2266 324.297 73.3203 324.742 73.4062C325.656 73.5938 326.473 73.8398 327.191 74.1445C327.91 74.4414 328.48 74.8477 328.902 75.3633C329.324 75.8711 329.535 76.5391 329.535 77.3672C329.535 77.9297 329.41 78.4453 329.16 78.9141C328.91 79.3828 328.551 79.793 328.082 80.1445C327.613 80.4883 327.051 80.7578 326.395 80.9531C325.746 81.1406 325.016 81.2344 324.203 81.2344C323.023 81.2344 322.023 81.0234 321.203 80.6016C320.391 80.1797 319.773 79.6445 319.352 78.9961C318.938 78.3398 318.73 77.668 318.73 76.9805H321.93C321.945 77.4414 322.062 77.8125 322.281 78.0938C322.508 78.375 322.793 78.5781 323.137 78.7031C323.488 78.8281 323.867 78.8906 324.273 78.8906C324.711 78.8906 325.074 78.832 325.363 78.7148C325.652 78.5898 325.871 78.4258 326.02 78.2227C326.176 78.0117 326.254 77.7695 326.254 77.4961ZM341.324 77.7188L343.961 68.3203H346.105L345.414 72.0117L342.777 81H340.984L341.324 77.7188ZM339.988 68.3203L341.875 77.707L342.051 81H339.941L336.73 68.3203H339.988ZM348.52 77.5547L350.359 68.3203H353.629L350.418 81H348.32L348.52 77.5547ZM346.398 68.3203L349.023 77.6484L349.387 81H347.582L344.945 72.0234L344.277 68.3203H346.398ZM358.891 68.3203V81H355.504V68.3203H358.891ZM355.293 65.0156C355.293 64.5234 355.465 64.1172 355.809 63.7969C356.152 63.4766 356.613 63.3164 357.191 63.3164C357.762 63.3164 358.219 63.4766 358.562 63.7969C358.914 64.1172 359.09 64.5234 359.09 65.0156C359.09 65.5078 358.914 65.9141 358.562 66.2344C358.219 66.5547 357.762 66.7148 357.191 66.7148C356.613 66.7148 356.152 66.5547 355.809 66.2344C355.465 65.9141 355.293 65.5078 355.293 65.0156ZM367.891 68.3203V70.7109H360.508V68.3203H367.891ZM362.336 65.1914H365.711V77.1797C365.711 77.5469 365.758 77.8281 365.852 78.0234C365.953 78.2188 366.102 78.3555 366.297 78.4336C366.492 78.5039 366.738 78.5391 367.035 78.5391C367.246 78.5391 367.434 78.5312 367.598 78.5156C367.77 78.4922 367.914 78.4688 368.031 78.4453L368.043 80.9297C367.754 81.0234 367.441 81.0977 367.105 81.1523C366.77 81.207 366.398 81.2344 365.992 81.2344C365.25 81.2344 364.602 81.1133 364.047 80.8711C363.5 80.6211 363.078 80.2227 362.781 79.6758C362.484 79.1289 362.336 78.4102 362.336 77.5195V65.1914ZM373.105 63V81H369.73V63H373.105ZM372.625 74.2148H371.699C371.707 73.332 371.824 72.5195 372.051 71.7773C372.277 71.0273 372.602 70.3789 373.023 69.832C373.445 69.2773 373.949 68.8477 374.535 68.543C375.129 68.2383 375.785 68.0859 376.504 68.0859C377.129 68.0859 377.695 68.1758 378.203 68.3555C378.719 68.5273 379.16 68.8086 379.527 69.1992C379.902 69.582 380.191 70.0859 380.395 70.7109C380.598 71.3359 380.699 72.0938 380.699 72.9844V81H377.301V72.9609C377.301 72.3984 377.219 71.957 377.055 71.6367C376.898 71.3086 376.668 71.0781 376.363 70.9453C376.066 70.8047 375.699 70.7344 375.262 70.7344C374.777 70.7344 374.363 70.8242 374.02 71.0039C373.684 71.1836 373.414 71.4336 373.211 71.7539C373.008 72.0664 372.859 72.4336 372.766 72.8555C372.672 73.2773 372.625 73.7305 372.625 74.2148ZM396.133 73.5117H391.75L391.727 71.0977H395.406C396.055 71.0977 396.586 71.0156 397 70.8516C397.414 70.6797 397.723 70.4336 397.926 70.1133C398.137 69.7852 398.242 69.3867 398.242 68.918C398.242 68.3867 398.141 67.957 397.938 67.6289C397.742 67.3008 397.434 67.0625 397.012 66.9141C396.598 66.7656 396.062 66.6914 395.406 66.6914H392.969V81H389.453V63.9375H395.406C396.398 63.9375 397.285 64.0312 398.066 64.2188C398.855 64.4062 399.523 64.6914 400.07 65.0742C400.617 65.457 401.035 65.9414 401.324 66.5273C401.613 67.1055 401.758 67.793 401.758 68.5898C401.758 69.293 401.598 69.9414 401.277 70.5352C400.965 71.1289 400.469 71.6133 399.789 71.9883C399.117 72.3633 398.238 72.5703 397.152 72.6094L396.133 73.5117ZM395.98 81H390.789L392.16 78.2578H395.98C396.598 78.2578 397.102 78.1602 397.492 77.9648C397.883 77.7617 398.172 77.4883 398.359 77.1445C398.547 76.8008 398.641 76.4062 398.641 75.9609C398.641 75.4609 398.555 75.0273 398.383 74.6602C398.219 74.293 397.953 74.0117 397.586 73.8164C397.219 73.6133 396.734 73.5117 396.133 73.5117H392.746L392.77 71.0977H396.988L397.797 72.0469C398.836 72.0312 399.672 72.2148 400.305 72.5977C400.945 72.9727 401.41 73.4609 401.699 74.0625C401.996 74.6641 402.145 75.3086 402.145 75.9961C402.145 77.0898 401.906 78.0117 401.43 78.7617C400.953 79.5039 400.254 80.0625 399.332 80.4375C398.418 80.8125 397.301 81 395.98 81ZM411.414 78.1406V72.4922C411.414 72.0859 411.348 71.7383 411.215 71.4492C411.082 71.1523 410.875 70.9219 410.594 70.7578C410.32 70.5938 409.965 70.5117 409.527 70.5117C409.152 70.5117 408.828 70.5781 408.555 70.7109C408.281 70.8359 408.07 71.0195 407.922 71.2617C407.773 71.4961 407.699 71.7734 407.699 72.0938H404.324C404.324 71.5547 404.449 71.043 404.699 70.5586C404.949 70.0742 405.312 69.6484 405.789 69.2812C406.266 68.9062 406.832 68.6133 407.488 68.4023C408.152 68.1914 408.895 68.0859 409.715 68.0859C410.699 68.0859 411.574 68.25 412.34 68.5781C413.105 68.9062 413.707 69.3984 414.145 70.0547C414.59 70.7109 414.812 71.5312 414.812 72.5156V77.9414C414.812 78.6367 414.855 79.207 414.941 79.6523C415.027 80.0898 415.152 80.4727 415.316 80.8008V81H411.906C411.742 80.6562 411.617 80.2266 411.531 79.7109C411.453 79.1875 411.414 78.6641 411.414 78.1406ZM411.859 73.2773L411.883 75.1875H409.996C409.551 75.1875 409.164 75.2383 408.836 75.3398C408.508 75.4414 408.238 75.5859 408.027 75.7734C407.816 75.9531 407.66 76.1641 407.559 76.4062C407.465 76.6484 407.418 76.9141 407.418 77.2031C407.418 77.4922 407.484 77.7539 407.617 77.9883C407.75 78.2148 407.941 78.3945 408.191 78.5273C408.441 78.6523 408.734 78.7148 409.07 78.7148C409.578 78.7148 410.02 78.6133 410.395 78.4102C410.77 78.207 411.059 77.957 411.262 77.6602C411.473 77.3633 411.582 77.082 411.59 76.8164L412.48 78.2461C412.355 78.5664 412.184 78.8984 411.965 79.2422C411.754 79.5859 411.484 79.9102 411.156 80.2148C410.828 80.5117 410.434 80.7578 409.973 80.9531C409.512 81.1406 408.965 81.2344 408.332 81.2344C407.527 81.2344 406.797 81.0742 406.141 80.7539C405.492 80.4258 404.977 79.9766 404.594 79.4062C404.219 78.8281 404.031 78.1719 404.031 77.4375C404.031 76.7734 404.156 76.1836 404.406 75.668C404.656 75.1523 405.023 74.7188 405.508 74.3672C406 74.0078 406.613 73.7383 407.348 73.5586C408.082 73.3711 408.934 73.2773 409.902 73.2773H411.859ZM420.719 71.0273V81H417.344V68.3203H420.508L420.719 71.0273ZM420.227 74.2148H419.312C419.312 73.2773 419.434 72.4336 419.676 71.6836C419.918 70.9258 420.258 70.2812 420.695 69.75C421.133 69.2109 421.652 68.8008 422.254 68.5195C422.863 68.2305 423.543 68.0859 424.293 68.0859C424.887 68.0859 425.43 68.1719 425.922 68.3438C426.414 68.5156 426.836 68.7891 427.188 69.1641C427.547 69.5391 427.82 70.0352 428.008 70.6523C428.203 71.2695 428.301 72.0234 428.301 72.9141V81H424.902V72.9023C424.902 72.3398 424.824 71.9023 424.668 71.5898C424.512 71.2773 424.281 71.0586 423.977 70.9336C423.68 70.8008 423.312 70.7344 422.875 70.7344C422.422 70.7344 422.027 70.8242 421.691 71.0039C421.363 71.1836 421.09 71.4336 420.871 71.7539C420.66 72.0664 420.5 72.4336 420.391 72.8555C420.281 73.2773 420.227 73.7305 420.227 74.2148ZM434.242 62.9883V81H430.867V62.9883H434.242ZM442.234 68.3203L436.727 74.6016L433.773 77.5898L432.543 75.1523L434.887 72.1758L438.18 68.3203H442.234ZM438.73 81L434.98 75.1406L437.312 73.1016L442.621 81H438.73ZM455.875 68.3203V70.7109H448.492V68.3203H455.875ZM450.32 65.1914H453.695V77.1797C453.695 77.5469 453.742 77.8281 453.836 78.0234C453.938 78.2188 454.086 78.3555 454.281 78.4336C454.477 78.5039 454.723 78.5391 455.02 78.5391C455.23 78.5391 455.418 78.5312 455.582 78.5156C455.754 78.4922 455.898 78.4688 456.016 78.4453L456.027 80.9297C455.738 81.0234 455.426 81.0977 455.09 81.1523C454.754 81.207 454.383 81.2344 453.977 81.2344C453.234 81.2344 452.586 81.1133 452.031 80.8711C451.484 80.6211 451.062 80.2227 450.766 79.6758C450.469 79.1289 450.32 78.4102 450.32 77.5195V65.1914ZM461.172 71.0859V81H457.797V68.3203H460.973L461.172 71.0859ZM464.992 68.2383L464.934 71.3672C464.77 71.3438 464.57 71.3242 464.336 71.3086C464.109 71.2852 463.902 71.2734 463.715 71.2734C463.238 71.2734 462.824 71.3359 462.473 71.4609C462.129 71.5781 461.84 71.7539 461.605 71.9883C461.379 72.2227 461.207 72.5078 461.09 72.8438C460.98 73.1797 460.918 73.5625 460.902 73.9922L460.223 73.7812C460.223 72.9609 460.305 72.207 460.469 71.5195C460.633 70.8242 460.871 70.2188 461.184 69.7031C461.504 69.1875 461.895 68.7891 462.355 68.5078C462.816 68.2266 463.344 68.0859 463.938 68.0859C464.125 68.0859 464.316 68.1016 464.512 68.1328C464.707 68.1562 464.867 68.1914 464.992 68.2383ZM473.031 78.1406V72.4922C473.031 72.0859 472.965 71.7383 472.832 71.4492C472.699 71.1523 472.492 70.9219 472.211 70.7578C471.938 70.5938 471.582 70.5117 471.145 70.5117C470.77 70.5117 470.445 70.5781 470.172 70.7109C469.898 70.8359 469.688 71.0195 469.539 71.2617C469.391 71.4961 469.316 71.7734 469.316 72.0938H465.941C465.941 71.5547 466.066 71.043 466.316 70.5586C466.566 70.0742 466.93 69.6484 467.406 69.2812C467.883 68.9062 468.449 68.6133 469.105 68.4023C469.77 68.1914 470.512 68.0859 471.332 68.0859C472.316 68.0859 473.191 68.25 473.957 68.5781C474.723 68.9062 475.324 69.3984 475.762 70.0547C476.207 70.7109 476.43 71.5312 476.43 72.5156V77.9414C476.43 78.6367 476.473 79.207 476.559 79.6523C476.645 80.0898 476.77 80.4727 476.934 80.8008V81H473.523C473.359 80.6562 473.234 80.2266 473.148 79.7109C473.07 79.1875 473.031 78.6641 473.031 78.1406ZM473.477 73.2773L473.5 75.1875H471.613C471.168 75.1875 470.781 75.2383 470.453 75.3398C470.125 75.4414 469.855 75.5859 469.645 75.7734C469.434 75.9531 469.277 76.1641 469.176 76.4062C469.082 76.6484 469.035 76.9141 469.035 77.2031C469.035 77.4922 469.102 77.7539 469.234 77.9883C469.367 78.2148 469.559 78.3945 469.809 78.5273C470.059 78.6523 470.352 78.7148 470.688 78.7148C471.195 78.7148 471.637 78.6133 472.012 78.4102C472.387 78.207 472.676 77.957 472.879 77.6602C473.09 77.3633 473.199 77.082 473.207 76.8164L474.098 78.2461C473.973 78.5664 473.801 78.8984 473.582 79.2422C473.371 79.5859 473.102 79.9102 472.773 80.2148C472.445 80.5117 472.051 80.7578 471.59 80.9531C471.129 81.1406 470.582 81.2344 469.949 81.2344C469.145 81.2344 468.414 81.0742 467.758 80.7539C467.109 80.4258 466.594 79.9766 466.211 79.4062C465.836 78.8281 465.648 78.1719 465.648 77.4375C465.648 76.7734 465.773 76.1836 466.023 75.668C466.273 75.1523 466.641 74.7188 467.125 74.3672C467.617 74.0078 468.23 73.7383 468.965 73.5586C469.699 73.3711 470.551 73.2773 471.52 73.2773H473.477ZM482.336 71.0273V81H478.961V68.3203H482.125L482.336 71.0273ZM481.844 74.2148H480.93C480.93 73.2773 481.051 72.4336 481.293 71.6836C481.535 70.9258 481.875 70.2812 482.312 69.75C482.75 69.2109 483.27 68.8008 483.871 68.5195C484.48 68.2305 485.16 68.0859 485.91 68.0859C486.504 68.0859 487.047 68.1719 487.539 68.3438C488.031 68.5156 488.453 68.7891 488.805 69.1641C489.164 69.5391 489.438 70.0352 489.625 70.6523C489.82 71.2695 489.918 72.0234 489.918 72.9141V81H486.52V72.9023C486.52 72.3398 486.441 71.9023 486.285 71.5898C486.129 71.2773 485.898 71.0586 485.594 70.9336C485.297 70.8008 484.93 70.7344 484.492 70.7344C484.039 70.7344 483.645 70.8242 483.309 71.0039C482.98 71.1836 482.707 71.4336 482.488 71.7539C482.277 72.0664 482.117 72.4336 482.008 72.8555C481.898 73.2773 481.844 73.7305 481.844 74.2148ZM499.34 77.4961C499.34 77.2539 499.27 77.0352 499.129 76.8398C498.988 76.6445 498.727 76.4648 498.344 76.3008C497.969 76.1289 497.426 75.9727 496.715 75.832C496.074 75.6914 495.477 75.5156 494.922 75.3047C494.375 75.0859 493.898 74.8242 493.492 74.5195C493.094 74.2148 492.781 73.8555 492.555 73.4414C492.328 73.0195 492.215 72.5391 492.215 72C492.215 71.4688 492.328 70.9688 492.555 70.5C492.789 70.0312 493.121 69.6172 493.551 69.2578C493.988 68.8906 494.52 68.6055 495.145 68.4023C495.777 68.1914 496.488 68.0859 497.277 68.0859C498.379 68.0859 499.324 68.2617 500.113 68.6133C500.91 68.9648 501.52 69.4492 501.941 70.0664C502.371 70.6758 502.586 71.3711 502.586 72.1523H499.211C499.211 71.8242 499.141 71.5312 499 71.2734C498.867 71.0078 498.656 70.8008 498.367 70.6523C498.086 70.4961 497.719 70.418 497.266 70.418C496.891 70.418 496.566 70.4844 496.293 70.6172C496.02 70.7422 495.809 70.9141 495.66 71.1328C495.52 71.3438 495.449 71.5781 495.449 71.8359C495.449 72.0312 495.488 72.207 495.566 72.3633C495.652 72.5117 495.789 72.6484 495.977 72.7734C496.164 72.8984 496.406 73.0156 496.703 73.125C497.008 73.2266 497.383 73.3203 497.828 73.4062C498.742 73.5938 499.559 73.8398 500.277 74.1445C500.996 74.4414 501.566 74.8477 501.988 75.3633C502.41 75.8711 502.621 76.5391 502.621 77.3672C502.621 77.9297 502.496 78.4453 502.246 78.9141C501.996 79.3828 501.637 79.793 501.168 80.1445C500.699 80.4883 500.137 80.7578 499.48 80.9531C498.832 81.1406 498.102 81.2344 497.289 81.2344C496.109 81.2344 495.109 81.0234 494.289 80.6016C493.477 80.1797 492.859 79.6445 492.438 78.9961C492.023 78.3398 491.816 77.668 491.816 76.9805H495.016C495.031 77.4414 495.148 77.8125 495.367 78.0938C495.594 78.375 495.879 78.5781 496.223 78.7031C496.574 78.8281 496.953 78.8906 497.359 78.8906C497.797 78.8906 498.16 78.832 498.449 78.7148C498.738 78.5898 498.957 78.4258 499.105 78.2227C499.262 78.0117 499.34 77.7695 499.34 77.4961ZM509.113 81H505.715V67.1953C505.715 66.2344 505.902 65.4258 506.277 64.7695C506.66 64.1055 507.195 63.6055 507.883 63.2695C508.578 62.9258 509.402 62.7539 510.355 62.7539C510.668 62.7539 510.969 62.7773 511.258 62.8242C511.547 62.8633 511.828 62.9141 512.102 62.9766L512.066 65.5195C511.918 65.4805 511.762 65.4531 511.598 65.4375C511.434 65.4219 511.242 65.4141 511.023 65.4141C510.617 65.4141 510.27 65.4844 509.98 65.625C509.699 65.7578 509.484 65.957 509.336 66.2227C509.188 66.4883 509.113 66.8125 509.113 67.1953V81ZM511.645 68.3203V70.7109H503.828V68.3203H511.645ZM518.969 81.2344C517.984 81.2344 517.102 81.0781 516.32 80.7656C515.539 80.4453 514.875 80.0039 514.328 79.4414C513.789 78.8789 513.375 78.2266 513.086 77.4844C512.797 76.7344 512.652 75.9375 512.652 75.0938V74.625C512.652 73.6641 512.789 72.7852 513.062 71.9883C513.336 71.1914 513.727 70.5 514.234 69.9141C514.75 69.3281 515.375 68.8789 516.109 68.5664C516.844 68.2461 517.672 68.0859 518.594 68.0859C519.492 68.0859 520.289 68.2344 520.984 68.5312C521.68 68.8281 522.262 69.25 522.73 69.7969C523.207 70.3438 523.566 71 523.809 71.7656C524.051 72.5234 524.172 73.3672 524.172 74.2969V75.7031H514.094V73.4531H520.855V73.1953C520.855 72.7266 520.77 72.3086 520.598 71.9414C520.434 71.5664 520.184 71.2695 519.848 71.0508C519.512 70.832 519.082 70.7227 518.559 70.7227C518.113 70.7227 517.73 70.8203 517.41 71.0156C517.09 71.2109 516.828 71.4844 516.625 71.8359C516.43 72.1875 516.281 72.6016 516.18 73.0781C516.086 73.5469 516.039 74.0625 516.039 74.625V75.0938C516.039 75.6016 516.109 76.0703 516.25 76.5C516.398 76.9297 516.605 77.3008 516.871 77.6133C517.145 77.9258 517.473 78.168 517.855 78.3398C518.246 78.5117 518.688 78.5977 519.18 78.5977C519.789 78.5977 520.355 78.4805 520.879 78.2461C521.41 78.0039 521.867 77.6406 522.25 77.1562L523.891 78.9375C523.625 79.3203 523.262 79.6875 522.801 80.0391C522.348 80.3906 521.801 80.6797 521.16 80.9062C520.52 81.125 519.789 81.2344 518.969 81.2344ZM529.469 71.0859V81H526.094V68.3203H529.27L529.469 71.0859ZM533.289 68.2383L533.23 71.3672C533.066 71.3438 532.867 71.3242 532.633 71.3086C532.406 71.2852 532.199 71.2734 532.012 71.2734C531.535 71.2734 531.121 71.3359 530.77 71.4609C530.426 71.5781 530.137 71.7539 529.902 71.9883C529.676 72.2227 529.504 72.5078 529.387 72.8438C529.277 73.1797 529.215 73.5625 529.199 73.9922L528.52 73.7812C528.52 72.9609 528.602 72.207 528.766 71.5195C528.93 70.8242 529.168 70.2188 529.48 69.7031C529.801 69.1875 530.191 68.7891 530.652 68.5078C531.113 68.2266 531.641 68.0859 532.234 68.0859C532.422 68.0859 532.613 68.1016 532.809 68.1328C533.004 68.1562 533.164 68.1914 533.289 68.2383ZM541.738 77.4961C541.738 77.2539 541.668 77.0352 541.527 76.8398C541.387 76.6445 541.125 76.4648 540.742 76.3008C540.367 76.1289 539.824 75.9727 539.113 75.832C538.473 75.6914 537.875 75.5156 537.32 75.3047C536.773 75.0859 536.297 74.8242 535.891 74.5195C535.492 74.2148 535.18 73.8555 534.953 73.4414C534.727 73.0195 534.613 72.5391 534.613 72C534.613 71.4688 534.727 70.9688 534.953 70.5C535.188 70.0312 535.52 69.6172 535.949 69.2578C536.387 68.8906 536.918 68.6055 537.543 68.4023C538.176 68.1914 538.887 68.0859 539.676 68.0859C540.777 68.0859 541.723 68.2617 542.512 68.6133C543.309 68.9648 543.918 69.4492 544.34 70.0664C544.77 70.6758 544.984 71.3711 544.984 72.1523H541.609C541.609 71.8242 541.539 71.5312 541.398 71.2734C541.266 71.0078 541.055 70.8008 540.766 70.6523C540.484 70.4961 540.117 70.418 539.664 70.418C539.289 70.418 538.965 70.4844 538.691 70.6172C538.418 70.7422 538.207 70.9141 538.059 71.1328C537.918 71.3438 537.848 71.5781 537.848 71.8359C537.848 72.0312 537.887 72.207 537.965 72.3633C538.051 72.5117 538.188 72.6484 538.375 72.7734C538.562 72.8984 538.805 73.0156 539.102 73.125C539.406 73.2266 539.781 73.3203 540.227 73.4062C541.141 73.5938 541.957 73.8398 542.676 74.1445C543.395 74.4414 543.965 74.8477 544.387 75.3633C544.809 75.8711 545.02 76.5391 545.02 77.3672C545.02 77.9297 544.895 78.4453 544.645 78.9141C544.395 79.3828 544.035 79.793 543.566 80.1445C543.098 80.4883 542.535 80.7578 541.879 80.9531C541.23 81.1406 540.5 81.2344 539.688 81.2344C538.508 81.2344 537.508 81.0234 536.688 80.6016C535.875 80.1797 535.258 79.6445 534.836 78.9961C534.422 78.3398 534.215 77.668 534.215 76.9805H537.414C537.43 77.4414 537.547 77.8125 537.766 78.0938C537.992 78.375 538.277 78.5781 538.621 78.7031C538.973 78.8281 539.352 78.8906 539.758 78.8906C540.195 78.8906 540.559 78.832 540.848 78.7148C541.137 78.5898 541.355 78.4258 541.504 78.2227C541.66 78.0117 541.738 77.7695 541.738 77.4961ZM552.965 75.7852H549.977C549.984 75.082 550.039 74.4766 550.141 73.9688C550.25 73.4531 550.434 72.9883 550.691 72.5742C550.957 72.1602 551.309 71.75 551.746 71.3438C552.113 71.0156 552.434 70.7031 552.707 70.4062C552.98 70.1094 553.195 69.8047 553.352 69.4922C553.508 69.1719 553.586 68.8164 553.586 68.4258C553.586 67.9727 553.516 67.5977 553.375 67.3008C553.242 66.9961 553.039 66.7656 552.766 66.6094C552.5 66.4531 552.164 66.375 551.758 66.375C551.422 66.375 551.109 66.4492 550.82 66.5977C550.531 66.7383 550.293 66.957 550.105 67.2539C549.926 67.5508 549.832 67.9414 549.824 68.4258H546.426C546.449 67.3555 546.695 66.4727 547.164 65.7773C547.641 65.0742 548.277 64.5547 549.074 64.2188C549.871 63.875 550.766 63.7031 551.758 63.7031C552.852 63.7031 553.789 63.8828 554.57 64.2422C555.352 64.5938 555.949 65.1133 556.363 65.8008C556.777 66.4805 556.984 67.3086 556.984 68.2852C556.984 68.9648 556.852 69.5703 556.586 70.1016C556.32 70.625 555.973 71.1133 555.543 71.5664C555.113 72.0195 554.641 72.4883 554.125 72.9727C553.68 73.3711 553.375 73.7891 553.211 74.2266C553.055 74.6641 552.973 75.1836 552.965 75.7852ZM549.625 79.4062C549.625 78.9062 549.797 78.4922 550.141 78.1641C550.484 77.8281 550.945 77.6602 551.523 77.6602C552.094 77.6602 552.551 77.8281 552.895 78.1641C553.246 78.4922 553.422 78.9062 553.422 79.4062C553.422 79.8906 553.246 80.3008 552.895 80.6367C552.551 80.9727 552.094 81.1406 551.523 81.1406C550.945 81.1406 550.484 80.9727 550.141 80.6367C549.797 80.3008 549.625 79.8906 549.625 79.4062Z" fill="black"/>
<defs>
<filter id="filter0_d_207_5" x="0" y="0" width="1010" height="196" filterUnits="userSpaceOnUse" color-interpolation-filters="sRGB">
<feFlood flood-opacity="0" result="BackgroundImageFix"/>
<feColorMatrix in="SourceAlpha" type="matrix" values="0 0 0 0 0 0 0 0 0 0 0 0 0 0 0 0 0 0 127 0" result="hardAlpha"/>
<feOffset dy="25"/>
<feGaussianBlur stdDeviation="25"/>
<feComposite in2="hardAlpha" operator="out"/>
<feColorMatrix type="matrix" values="0 0 0 0 0 0 0 0 0 0 0 0 0 0 0 0 0 0 0.05 0"/>
<feBlend mode="normal" in2="BackgroundImageFix" result="effect1_dropShadow_207_5"/>
<feBlend mode="normal" in="SourceGraphic" in2="effect1_dropShadow_207_5" result="shape"/>
</filter>
</defs>
</svg>
