<svg width="530" height="1246" viewBox="0 0 530 1246" fill="none" xmlns="http://www.w3.org/2000/svg">
<g filter="url(#filter0_d_223_3)">
<rect x="50" y="1171" width="1146" height="430" rx="50" transform="rotate(-90 50 1171)" fill="white"/>
</g>
<mask id="mask0_223_3" style="mask-type:alpha" maskUnits="userSpaceOnUse" x="124" y="368" width="282" height="175">
<rect x="124" y="368" width="281.793" height="174.326" rx="14.0601" fill="#16194F"/>
</mask>
<g mask="url(#mask0_223_3)">
<path d="M341.944 332.187C355.378 317.787 378.201 317.787 391.635 332.187L399.979 341.131C405.424 346.968 412.75 350.701 420.673 351.677L433.718 353.283C452.084 355.544 465.263 372.085 463.366 390.491L461.441 409.162C460.703 416.315 462.255 423.519 465.872 429.735L475.533 446.339C484.512 461.771 480.017 481.52 465.243 491.545L451.391 500.943C445.163 505.169 440.514 511.343 438.174 518.496L433.299 533.4C427.29 551.768 407.193 561.433 389.094 554.659L378.7 550.768C371.02 547.894 362.559 547.894 354.879 550.768L344.485 554.659C326.386 561.433 306.289 551.768 300.28 533.4L295.405 518.496C293.065 511.343 288.416 505.169 282.188 500.943L268.337 491.545C253.562 481.52 249.067 461.771 258.046 446.339L267.707 429.735C271.324 423.519 272.876 416.315 272.138 409.162L270.213 390.491C268.316 372.085 281.495 355.544 299.861 353.283L312.906 351.677C320.829 350.701 328.155 346.968 333.6 341.131L341.944 332.187Z" fill="#9A94FF"/>
<path d="M199.233 263.237C212.667 248.837 235.49 248.837 248.924 263.237L257.268 272.181C262.713 278.018 270.039 281.751 277.962 282.726L291.007 284.332C309.373 286.593 322.553 303.134 320.655 321.541L318.73 340.211C317.993 347.365 319.544 354.568 323.161 360.784L332.822 377.389C341.801 392.821 337.306 412.57 322.532 422.594L308.68 431.993C302.452 436.219 297.804 442.393 295.464 449.546L290.588 464.45C284.579 482.818 264.482 492.483 246.383 485.708L235.989 481.818C228.309 478.944 219.848 478.944 212.168 481.818L201.775 485.708C183.675 492.483 163.578 482.818 157.569 464.45L152.694 449.546C150.354 442.393 145.705 436.219 139.477 431.993L125.626 422.594C110.852 412.57 106.356 392.821 115.335 377.389L124.997 360.784C128.613 354.568 130.165 347.365 129.427 340.211L127.502 321.541C125.605 303.134 138.785 286.593 157.15 284.332L170.196 282.726C178.118 281.751 185.444 278.018 190.889 272.181L199.233 263.237Z" fill="#CAC7FF"/>
<path d="M206.476 443.418C221.879 426.908 248.048 426.908 263.451 443.418L273.018 453.673C279.261 460.366 287.661 464.646 296.744 465.764L311.702 467.606C332.759 470.198 347.871 489.164 345.695 510.268L343.488 531.675C342.643 539.877 344.421 548.137 348.568 555.264L359.646 574.302C369.941 591.995 364.787 614.639 347.847 626.133L331.965 636.91C324.824 641.755 319.494 648.833 316.811 657.035L311.221 674.124C304.332 695.184 281.289 706.265 260.537 698.498L248.62 694.038C239.814 690.742 230.113 690.742 221.307 694.038L209.39 698.498C188.638 706.265 165.595 695.184 158.706 674.124L153.116 657.035C150.433 648.833 145.103 641.755 137.962 636.91L122.08 626.133C105.14 614.639 99.9859 591.995 110.281 574.302L121.359 555.264C125.506 548.136 127.284 539.877 126.439 531.675L124.232 510.268C122.056 489.164 137.168 470.198 158.225 467.606L173.183 465.764C182.266 464.646 190.666 460.366 196.909 453.673L206.476 443.418Z" fill="#16194F"/>
<mask id="mask1_223_3" style="mask-type:alpha" maskUnits="userSpaceOnUse" x="110" y="252" width="228" height="236">
<path d="M199.233 263.237C212.667 248.837 235.49 248.837 248.924 263.237L257.268 272.181C262.713 278.018 270.039 281.751 277.962 282.726L291.007 284.332C309.373 286.593 322.553 303.134 320.655 321.541L318.73 340.211C317.993 347.365 319.544 354.568 323.161 360.784L332.822 377.389C341.801 392.821 337.306 412.57 322.532 422.594L308.68 431.993C302.452 436.219 297.804 442.393 295.464 449.546L290.588 464.45C284.579 482.818 264.482 492.483 246.383 485.708L235.989 481.818C228.309 478.944 219.848 478.944 212.168 481.818L201.775 485.708C183.675 492.483 163.578 482.818 157.569 464.45L152.694 449.546C150.354 442.393 145.705 436.219 139.477 431.993L125.626 422.594C110.852 412.57 106.356 392.821 115.335 377.389L124.997 360.784C128.613 354.568 130.165 347.365 129.427 340.211L127.502 321.541C125.605 303.134 138.785 286.593 157.15 284.332L170.196 282.726C178.118 281.751 185.444 278.018 190.889 272.181L199.233 263.237Z" fill="#CAC7FF"/>
</mask>
<g mask="url(#mask1_223_3)">
<path d="M206.476 443.418C221.879 426.908 248.048 426.908 263.45 443.418L273.017 453.673C279.261 460.366 287.661 464.646 296.744 465.764L311.702 467.606C332.759 470.198 347.871 489.164 345.695 510.268L343.488 531.675C342.642 539.877 344.421 548.137 348.568 555.264L359.646 574.302C369.941 591.995 364.786 614.639 347.847 626.133L331.965 636.91C324.824 641.755 319.494 648.833 316.811 657.035L311.221 674.124C304.332 695.184 281.289 706.265 260.537 698.498L248.62 694.038C239.814 690.742 230.113 690.742 221.307 694.038L209.39 698.498C188.638 706.265 165.595 695.184 158.706 674.124L153.115 657.035C150.432 648.833 145.103 641.755 137.962 636.91L122.08 626.133C105.14 614.639 99.9857 591.995 110.281 574.302L121.359 555.264C125.506 548.136 127.284 539.877 126.439 531.675L124.232 510.268C122.056 489.164 137.167 470.198 158.225 467.606L173.182 465.764C182.266 464.646 190.666 460.366 196.909 453.673L206.476 443.418Z" fill="#F44E77"/>
</g>
</g>
<path d="M233.477 83.5625V112H229.707V83.5625H233.477ZM245.391 96.3555V99.4414H232.656V96.3555H245.391ZM247.324 83.5625V86.6484H232.656V83.5625H247.324ZM254.375 94.1875V112H250.762V90.8672H254.277L254.375 94.1875ZM260.977 90.75L260.957 94.1094C260.658 94.0443 260.371 94.0052 260.098 93.9922C259.837 93.9661 259.538 93.9531 259.199 93.9531C258.366 93.9531 257.63 94.0833 256.992 94.3438C256.354 94.6042 255.814 94.9688 255.371 95.4375C254.928 95.9062 254.577 96.4661 254.316 97.1172C254.069 97.7552 253.906 98.4583 253.828 99.2266L252.812 99.8125C252.812 98.5365 252.936 97.3385 253.184 96.2188C253.444 95.099 253.841 94.1094 254.375 93.25C254.909 92.3776 255.586 91.7005 256.406 91.2188C257.24 90.724 258.229 90.4766 259.375 90.4766C259.635 90.4766 259.935 90.5091 260.273 90.5742C260.612 90.6263 260.846 90.6849 260.977 90.75ZM272.695 112.391C271.224 112.391 269.889 112.143 268.691 111.648C267.507 111.141 266.484 110.431 265.625 109.52C264.779 108.608 264.128 107.527 263.672 106.277C263.216 105.027 262.988 103.66 262.988 102.176V101.355C262.988 99.6367 263.242 98.1068 263.75 96.7656C264.258 95.4115 264.948 94.2656 265.82 93.3281C266.693 92.3906 267.682 91.681 268.789 91.1992C269.896 90.7174 271.042 90.4766 272.227 90.4766C273.737 90.4766 275.039 90.737 276.133 91.2578C277.24 91.7786 278.145 92.5078 278.848 93.4453C279.551 94.3698 280.072 95.4635 280.41 96.7266C280.749 97.9766 280.918 99.3438 280.918 100.828V102.449H265.137V99.5H277.305V99.2266C277.253 98.2891 277.057 97.3776 276.719 96.4922C276.393 95.6068 275.872 94.8776 275.156 94.3047C274.44 93.7318 273.464 93.4453 272.227 93.4453C271.406 93.4453 270.651 93.6211 269.961 93.9727C269.271 94.3112 268.678 94.819 268.184 95.4961C267.689 96.1732 267.305 97 267.031 97.9766C266.758 98.9531 266.621 100.079 266.621 101.355V102.176C266.621 103.178 266.758 104.122 267.031 105.008C267.318 105.88 267.728 106.648 268.262 107.312C268.809 107.977 269.466 108.497 270.234 108.875C271.016 109.253 271.901 109.441 272.891 109.441C274.167 109.441 275.247 109.181 276.133 108.66C277.018 108.139 277.793 107.443 278.457 106.57L280.645 108.309C280.189 108.999 279.609 109.656 278.906 110.281C278.203 110.906 277.337 111.414 276.309 111.805C275.293 112.195 274.089 112.391 272.695 112.391ZM293.906 112.391C292.435 112.391 291.1 112.143 289.902 111.648C288.717 111.141 287.695 110.431 286.836 109.52C285.99 108.608 285.339 107.527 284.883 106.277C284.427 105.027 284.199 103.66 284.199 102.176V101.355C284.199 99.6367 284.453 98.1068 284.961 96.7656C285.469 95.4115 286.159 94.2656 287.031 93.3281C287.904 92.3906 288.893 91.681 290 91.1992C291.107 90.7174 292.253 90.4766 293.438 90.4766C294.948 90.4766 296.25 90.737 297.344 91.2578C298.451 91.7786 299.355 92.5078 300.059 93.4453C300.762 94.3698 301.283 95.4635 301.621 96.7266C301.96 97.9766 302.129 99.3438 302.129 100.828V102.449H286.348V99.5H298.516V99.2266C298.464 98.2891 298.268 97.3776 297.93 96.4922C297.604 95.6068 297.083 94.8776 296.367 94.3047C295.651 93.7318 294.674 93.4453 293.438 93.4453C292.617 93.4453 291.862 93.6211 291.172 93.9727C290.482 94.3112 289.889 94.819 289.395 95.4961C288.9 96.1732 288.516 97 288.242 97.9766C287.969 98.9531 287.832 100.079 287.832 101.355V102.176C287.832 103.178 287.969 104.122 288.242 105.008C288.529 105.88 288.939 106.648 289.473 107.312C290.02 107.977 290.677 108.497 291.445 108.875C292.227 109.253 293.112 109.441 294.102 109.441C295.378 109.441 296.458 109.181 297.344 108.66C298.229 108.139 299.004 107.443 299.668 106.57L301.855 108.309C301.4 108.999 300.82 109.656 300.117 110.281C299.414 110.906 298.548 111.414 297.52 111.805C296.504 112.195 295.299 112.391 293.906 112.391Z" fill="black"/>
<path d="M212.795 158.43V167.365H208.4V158.43H212.795ZM212.268 206.271V214.094H207.902V206.271H212.268ZM218.127 197.014C218.127 195.842 217.863 194.787 217.336 193.85C216.809 192.912 215.939 192.053 214.729 191.271C213.518 190.49 211.896 189.768 209.865 189.104C207.404 188.342 205.275 187.414 203.479 186.32C201.701 185.227 200.324 183.869 199.348 182.248C198.391 180.627 197.912 178.664 197.912 176.359C197.912 173.957 198.43 171.887 199.465 170.148C200.5 168.41 201.965 167.072 203.859 166.135C205.754 165.197 207.98 164.729 210.539 164.729C212.531 164.729 214.309 165.031 215.871 165.637C217.434 166.223 218.752 167.102 219.826 168.273C220.92 169.445 221.75 170.881 222.316 172.58C222.902 174.279 223.195 176.242 223.195 178.469H217.805C217.805 177.16 217.648 175.959 217.336 174.865C217.023 173.771 216.555 172.824 215.93 172.023C215.305 171.203 214.543 170.578 213.645 170.148C212.746 169.699 211.711 169.475 210.539 169.475C208.898 169.475 207.541 169.758 206.467 170.324C205.412 170.891 204.631 171.691 204.123 172.727C203.615 173.742 203.361 174.924 203.361 176.271C203.361 177.521 203.615 178.615 204.123 179.553C204.631 180.49 205.49 181.34 206.701 182.102C207.932 182.844 209.621 183.576 211.77 184.299C214.289 185.1 216.428 186.047 218.186 187.141C219.943 188.215 221.281 189.543 222.199 191.125C223.117 192.688 223.576 194.631 223.576 196.955C223.576 199.475 223.01 201.604 221.877 203.342C220.744 205.061 219.152 206.369 217.102 207.268C215.051 208.166 212.648 208.615 209.895 208.615C208.234 208.615 206.594 208.391 204.973 207.941C203.352 207.492 201.887 206.76 200.578 205.744C199.27 204.709 198.225 203.352 197.443 201.672C196.662 199.973 196.271 197.893 196.271 195.432H201.721C201.721 197.092 201.955 198.469 202.424 199.562C202.912 200.637 203.557 201.496 204.357 202.141C205.158 202.766 206.037 203.215 206.994 203.488C207.971 203.742 208.938 203.869 209.895 203.869C211.652 203.869 213.137 203.596 214.348 203.049C215.578 202.482 216.516 201.682 217.16 200.646C217.805 199.611 218.127 198.4 218.127 197.014ZM257.121 183.273V189.777C257.121 193.273 256.809 196.223 256.184 198.625C255.559 201.027 254.66 202.961 253.488 204.426C252.316 205.891 250.9 206.955 249.24 207.619C247.6 208.264 245.744 208.586 243.674 208.586C242.033 208.586 240.52 208.381 239.133 207.971C237.746 207.561 236.496 206.906 235.383 206.008C234.289 205.09 233.352 203.898 232.57 202.434C231.789 200.969 231.193 199.191 230.783 197.102C230.373 195.012 230.168 192.57 230.168 189.777V183.273C230.168 179.777 230.48 176.848 231.105 174.484C231.75 172.121 232.658 170.227 233.83 168.801C235.002 167.355 236.408 166.32 238.049 165.695C239.709 165.07 241.564 164.758 243.615 164.758C245.275 164.758 246.799 164.963 248.186 165.373C249.592 165.764 250.842 166.398 251.936 167.277C253.029 168.137 253.957 169.289 254.719 170.734C255.5 172.16 256.096 173.908 256.506 175.979C256.916 178.049 257.121 180.48 257.121 183.273ZM251.672 190.656V182.365C251.672 180.451 251.555 178.771 251.32 177.326C251.105 175.861 250.783 174.611 250.354 173.576C249.924 172.541 249.377 171.701 248.713 171.057C248.068 170.412 247.316 169.943 246.457 169.65C245.617 169.338 244.67 169.182 243.615 169.182C242.326 169.182 241.184 169.426 240.188 169.914C239.191 170.383 238.352 171.135 237.668 172.17C237.004 173.205 236.496 174.562 236.145 176.242C235.793 177.922 235.617 179.963 235.617 182.365V190.656C235.617 192.57 235.725 194.26 235.939 195.725C236.174 197.189 236.516 198.459 236.965 199.533C237.414 200.588 237.961 201.457 238.605 202.141C239.25 202.824 239.992 203.332 240.832 203.664C241.691 203.977 242.639 204.133 243.674 204.133C245.002 204.133 246.164 203.879 247.16 203.371C248.156 202.863 248.986 202.072 249.65 200.998C250.334 199.904 250.842 198.508 251.174 196.809C251.506 195.09 251.672 193.039 251.672 190.656ZM283.547 165.344L265.764 211.662H261.105L278.918 165.344H283.547ZM294.855 182.6V208H289.406V176.301H294.562L294.855 182.6ZM293.742 190.949L291.223 190.861C291.242 188.693 291.525 186.691 292.072 184.855C292.619 183 293.43 181.389 294.504 180.021C295.578 178.654 296.916 177.6 298.518 176.857C300.119 176.096 301.975 175.715 304.084 175.715C305.568 175.715 306.936 175.93 308.186 176.359C309.436 176.77 310.52 177.424 311.438 178.322C312.355 179.221 313.068 180.373 313.576 181.779C314.084 183.186 314.338 184.885 314.338 186.877V208H308.918V187.141C308.918 185.48 308.635 184.152 308.068 183.156C307.521 182.16 306.74 181.438 305.725 180.988C304.709 180.52 303.518 180.285 302.15 180.285C300.549 180.285 299.211 180.568 298.137 181.135C297.062 181.701 296.203 182.482 295.559 183.479C294.914 184.475 294.445 185.617 294.152 186.906C293.879 188.176 293.742 189.523 293.742 190.949ZM314.279 187.961L310.646 189.074C310.666 187.336 310.949 185.666 311.496 184.064C312.062 182.463 312.873 181.037 313.928 179.787C315.002 178.537 316.32 177.551 317.883 176.828C319.445 176.086 321.232 175.715 323.244 175.715C324.943 175.715 326.447 175.939 327.756 176.389C329.084 176.838 330.197 177.531 331.096 178.469C332.014 179.387 332.707 180.568 333.176 182.014C333.645 183.459 333.879 185.178 333.879 187.17V208H328.43V187.111C328.43 185.334 328.146 183.957 327.58 182.98C327.033 181.984 326.252 181.291 325.236 180.9C324.24 180.49 323.049 180.285 321.662 180.285C320.471 180.285 319.416 180.49 318.498 180.9C317.58 181.311 316.809 181.877 316.184 182.6C315.559 183.303 315.08 184.113 314.748 185.031C314.436 185.949 314.279 186.926 314.279 187.961Z" fill="black"/>
<path d="M182 292C182 280.954 190.954 272 202 272H329C340.046 272 349 280.954 349 292V308C349 319.046 340.046 328 329 328H202C190.954 328 182 319.046 182 308V292Z" fill="#F44E77"/>
<path d="M235.074 303.688C235.074 303.289 235.012 302.938 234.887 302.633C234.77 302.32 234.559 302.039 234.254 301.789C233.957 301.539 233.543 301.301 233.012 301.074C232.488 300.848 231.824 300.617 231.02 300.383C230.176 300.133 229.414 299.855 228.734 299.551C228.055 299.238 227.473 298.883 226.988 298.484C226.504 298.086 226.133 297.629 225.875 297.113C225.617 296.598 225.488 296.008 225.488 295.344C225.488 294.68 225.625 294.066 225.898 293.504C226.172 292.941 226.562 292.453 227.07 292.039C227.586 291.617 228.199 291.289 228.91 291.055C229.621 290.82 230.414 290.703 231.289 290.703C232.57 290.703 233.656 290.949 234.547 291.441C235.445 291.926 236.129 292.562 236.598 293.352C237.066 294.133 237.301 294.969 237.301 295.859H235.051C235.051 295.219 234.914 294.652 234.641 294.16C234.367 293.66 233.953 293.27 233.398 292.988C232.844 292.699 232.141 292.555 231.289 292.555C230.484 292.555 229.82 292.676 229.297 292.918C228.773 293.16 228.383 293.488 228.125 293.902C227.875 294.316 227.75 294.789 227.75 295.32C227.75 295.68 227.824 296.008 227.973 296.305C228.129 296.594 228.367 296.863 228.688 297.113C229.016 297.363 229.43 297.594 229.93 297.805C230.438 298.016 231.043 298.219 231.746 298.414C232.715 298.688 233.551 298.992 234.254 299.328C234.957 299.664 235.535 300.043 235.988 300.465C236.449 300.879 236.789 301.352 237.008 301.883C237.234 302.406 237.348 303 237.348 303.664C237.348 304.359 237.207 304.988 236.926 305.551C236.645 306.113 236.242 306.594 235.719 306.992C235.195 307.391 234.566 307.699 233.832 307.918C233.105 308.129 232.293 308.234 231.395 308.234C230.605 308.234 229.828 308.125 229.062 307.906C228.305 307.688 227.613 307.359 226.988 306.922C226.371 306.484 225.875 305.945 225.5 305.305C225.133 304.656 224.949 303.906 224.949 303.055H227.199C227.199 303.641 227.312 304.145 227.539 304.566C227.766 304.98 228.074 305.324 228.465 305.598C228.863 305.871 229.312 306.074 229.812 306.207C230.32 306.332 230.848 306.395 231.395 306.395C232.184 306.395 232.852 306.285 233.398 306.066C233.945 305.848 234.359 305.535 234.641 305.129C234.93 304.723 235.074 304.242 235.074 303.688Z" fill="black"/>
<path d="M235.074 303.688C235.074 303.289 235.012 302.938 234.887 302.633C234.77 302.32 234.559 302.039 234.254 301.789C233.957 301.539 233.543 301.301 233.012 301.074C232.488 300.848 231.824 300.617 231.02 300.383C230.176 300.133 229.414 299.855 228.734 299.551C228.055 299.238 227.473 298.883 226.988 298.484C226.504 298.086 226.133 297.629 225.875 297.113C225.617 296.598 225.488 296.008 225.488 295.344C225.488 294.68 225.625 294.066 225.898 293.504C226.172 292.941 226.562 292.453 227.07 292.039C227.586 291.617 228.199 291.289 228.91 291.055C229.621 290.82 230.414 290.703 231.289 290.703C232.57 290.703 233.656 290.949 234.547 291.441C235.445 291.926 236.129 292.562 236.598 293.352C237.066 294.133 237.301 294.969 237.301 295.859H235.051C235.051 295.219 234.914 294.652 234.641 294.16C234.367 293.66 233.953 293.27 233.398 292.988C232.844 292.699 232.141 292.555 231.289 292.555C230.484 292.555 229.82 292.676 229.297 292.918C228.773 293.16 228.383 293.488 228.125 293.902C227.875 294.316 227.75 294.789 227.75 295.32C227.75 295.68 227.824 296.008 227.973 296.305C228.129 296.594 228.367 296.863 228.688 297.113C229.016 297.363 229.43 297.594 229.93 297.805C230.438 298.016 231.043 298.219 231.746 298.414C232.715 298.688 233.551 298.992 234.254 299.328C234.957 299.664 235.535 300.043 235.988 300.465C236.449 300.879 236.789 301.352 237.008 301.883C237.234 302.406 237.348 303 237.348 303.664C237.348 304.359 237.207 304.988 236.926 305.551C236.645 306.113 236.242 306.594 235.719 306.992C235.195 307.391 234.566 307.699 233.832 307.918C233.105 308.129 232.293 308.234 231.395 308.234C230.605 308.234 229.828 308.125 229.062 307.906C228.305 307.688 227.613 307.359 226.988 306.922C226.371 306.484 225.875 305.945 225.5 305.305C225.133 304.656 224.949 303.906 224.949 303.055H227.199C227.199 303.641 227.312 304.145 227.539 304.566C227.766 304.98 228.074 305.324 228.465 305.598C228.863 305.871 229.312 306.074 229.812 306.207C230.32 306.332 230.848 306.395 231.395 306.395C232.184 306.395 232.852 306.285 233.398 306.066C233.945 305.848 234.359 305.535 234.641 305.129C234.93 304.723 235.074 304.242 235.074 303.688Z" fill="black"/>
<path d="M235.074 303.688C235.074 303.289 235.012 302.938 234.887 302.633C234.77 302.32 234.559 302.039 234.254 301.789C233.957 301.539 233.543 301.301 233.012 301.074C232.488 300.848 231.824 300.617 231.02 300.383C230.176 300.133 229.414 299.855 228.734 299.551C228.055 299.238 227.473 298.883 226.988 298.484C226.504 298.086 226.133 297.629 225.875 297.113C225.617 296.598 225.488 296.008 225.488 295.344C225.488 294.68 225.625 294.066 225.898 293.504C226.172 292.941 226.562 292.453 227.07 292.039C227.586 291.617 228.199 291.289 228.91 291.055C229.621 290.82 230.414 290.703 231.289 290.703C232.57 290.703 233.656 290.949 234.547 291.441C235.445 291.926 236.129 292.562 236.598 293.352C237.066 294.133 237.301 294.969 237.301 295.859H235.051C235.051 295.219 234.914 294.652 234.641 294.16C234.367 293.66 233.953 293.27 233.398 292.988C232.844 292.699 232.141 292.555 231.289 292.555C230.484 292.555 229.82 292.676 229.297 292.918C228.773 293.16 228.383 293.488 228.125 293.902C227.875 294.316 227.75 294.789 227.75 295.32C227.75 295.68 227.824 296.008 227.973 296.305C228.129 296.594 228.367 296.863 228.688 297.113C229.016 297.363 229.43 297.594 229.93 297.805C230.438 298.016 231.043 298.219 231.746 298.414C232.715 298.688 233.551 298.992 234.254 299.328C234.957 299.664 235.535 300.043 235.988 300.465C236.449 300.879 236.789 301.352 237.008 301.883C237.234 302.406 237.348 303 237.348 303.664C237.348 304.359 237.207 304.988 236.926 305.551C236.645 306.113 236.242 306.594 235.719 306.992C235.195 307.391 234.566 307.699 233.832 307.918C233.105 308.129 232.293 308.234 231.395 308.234C230.605 308.234 229.828 308.125 229.062 307.906C228.305 307.688 227.613 307.359 226.988 306.922C226.371 306.484 225.875 305.945 225.5 305.305C225.133 304.656 224.949 303.906 224.949 303.055H227.199C227.199 303.641 227.312 304.145 227.539 304.566C227.766 304.98 228.074 305.324 228.465 305.598C228.863 305.871 229.312 306.074 229.812 306.207C230.32 306.332 230.848 306.395 231.395 306.395C232.184 306.395 232.852 306.285 233.398 306.066C233.945 305.848 234.359 305.535 234.641 305.129C234.93 304.723 235.074 304.242 235.074 303.688Z" fill="black"/>
<path d="M242.258 295.32V308H240.078V295.32H242.258ZM239.914 291.957C239.914 291.605 240.02 291.309 240.23 291.066C240.449 290.824 240.77 290.703 241.191 290.703C241.605 290.703 241.922 290.824 242.141 291.066C242.367 291.309 242.48 291.605 242.48 291.957C242.48 292.293 242.367 292.582 242.141 292.824C241.922 293.059 241.605 293.176 241.191 293.176C240.77 293.176 240.449 293.059 240.23 292.824C240.02 292.582 239.914 292.293 239.914 291.957Z" fill="black"/>
<path d="M242.258 295.32V308H240.078V295.32H242.258ZM239.914 291.957C239.914 291.605 240.02 291.309 240.23 291.066C240.449 290.824 240.77 290.703 241.191 290.703C241.605 290.703 241.922 290.824 242.141 291.066C242.367 291.309 242.48 291.605 242.48 291.957C242.48 292.293 242.367 292.582 242.141 292.824C241.922 293.059 241.605 293.176 241.191 293.176C240.77 293.176 240.449 293.059 240.23 292.824C240.02 292.582 239.914 292.293 239.914 291.957Z" fill="black"/>
<path d="M242.258 295.32V308H240.078V295.32H242.258ZM239.914 291.957C239.914 291.605 240.02 291.309 240.23 291.066C240.449 290.824 240.77 290.703 241.191 290.703C241.605 290.703 241.922 290.824 242.141 291.066C242.367 291.309 242.48 291.605 242.48 291.957C242.48 292.293 242.367 292.582 242.141 292.824C241.922 293.059 241.605 293.176 241.191 293.176C240.77 293.176 240.449 293.059 240.23 292.824C240.02 292.582 239.914 292.293 239.914 291.957Z" fill="black"/>
<path d="M253.953 295.32H255.922V307.73C255.922 308.848 255.695 309.801 255.242 310.59C254.789 311.379 254.156 311.977 253.344 312.383C252.539 312.797 251.609 313.004 250.555 313.004C250.117 313.004 249.602 312.934 249.008 312.793C248.422 312.66 247.844 312.43 247.273 312.102C246.711 311.781 246.238 311.348 245.855 310.801L246.992 309.512C247.523 310.152 248.078 310.598 248.656 310.848C249.242 311.098 249.82 311.223 250.391 311.223C251.078 311.223 251.672 311.094 252.172 310.836C252.672 310.578 253.059 310.195 253.332 309.688C253.613 309.188 253.754 308.57 253.754 307.836V298.109L253.953 295.32ZM245.223 301.801V301.555C245.223 300.586 245.336 299.707 245.562 298.918C245.797 298.121 246.129 297.438 246.559 296.867C246.996 296.297 247.523 295.859 248.141 295.555C248.758 295.242 249.453 295.086 250.227 295.086C251.023 295.086 251.719 295.227 252.312 295.508C252.914 295.781 253.422 296.184 253.836 296.715C254.258 297.238 254.59 297.871 254.832 298.613C255.074 299.355 255.242 300.195 255.336 301.133V302.211C255.25 303.141 255.082 303.977 254.832 304.719C254.59 305.461 254.258 306.094 253.836 306.617C253.422 307.141 252.914 307.543 252.312 307.824C251.711 308.098 251.008 308.234 250.203 308.234C249.445 308.234 248.758 308.074 248.141 307.754C247.531 307.434 247.008 306.984 246.57 306.406C246.133 305.828 245.797 305.148 245.562 304.367C245.336 303.578 245.223 302.723 245.223 301.801ZM247.391 301.555V301.801C247.391 302.434 247.453 303.027 247.578 303.582C247.711 304.137 247.91 304.625 248.176 305.047C248.449 305.469 248.797 305.801 249.219 306.043C249.641 306.277 250.145 306.395 250.73 306.395C251.449 306.395 252.043 306.242 252.512 305.938C252.98 305.633 253.352 305.23 253.625 304.73C253.906 304.23 254.125 303.688 254.281 303.102V300.277C254.195 299.848 254.062 299.434 253.883 299.035C253.711 298.629 253.484 298.27 253.203 297.957C252.93 297.637 252.59 297.383 252.184 297.195C251.777 297.008 251.301 296.914 250.754 296.914C250.16 296.914 249.648 297.039 249.219 297.289C248.797 297.531 248.449 297.867 248.176 298.297C247.91 298.719 247.711 299.211 247.578 299.773C247.453 300.328 247.391 300.922 247.391 301.555Z" fill="black"/>
<path d="M253.953 295.32H255.922V307.73C255.922 308.848 255.695 309.801 255.242 310.59C254.789 311.379 254.156 311.977 253.344 312.383C252.539 312.797 251.609 313.004 250.555 313.004C250.117 313.004 249.602 312.934 249.008 312.793C248.422 312.66 247.844 312.43 247.273 312.102C246.711 311.781 246.238 311.348 245.855 310.801L246.992 309.512C247.523 310.152 248.078 310.598 248.656 310.848C249.242 311.098 249.82 311.223 250.391 311.223C251.078 311.223 251.672 311.094 252.172 310.836C252.672 310.578 253.059 310.195 253.332 309.688C253.613 309.188 253.754 308.57 253.754 307.836V298.109L253.953 295.32ZM245.223 301.801V301.555C245.223 300.586 245.336 299.707 245.562 298.918C245.797 298.121 246.129 297.438 246.559 296.867C246.996 296.297 247.523 295.859 248.141 295.555C248.758 295.242 249.453 295.086 250.227 295.086C251.023 295.086 251.719 295.227 252.312 295.508C252.914 295.781 253.422 296.184 253.836 296.715C254.258 297.238 254.59 297.871 254.832 298.613C255.074 299.355 255.242 300.195 255.336 301.133V302.211C255.25 303.141 255.082 303.977 254.832 304.719C254.59 305.461 254.258 306.094 253.836 306.617C253.422 307.141 252.914 307.543 252.312 307.824C251.711 308.098 251.008 308.234 250.203 308.234C249.445 308.234 248.758 308.074 248.141 307.754C247.531 307.434 247.008 306.984 246.57 306.406C246.133 305.828 245.797 305.148 245.562 304.367C245.336 303.578 245.223 302.723 245.223 301.801ZM247.391 301.555V301.801C247.391 302.434 247.453 303.027 247.578 303.582C247.711 304.137 247.91 304.625 248.176 305.047C248.449 305.469 248.797 305.801 249.219 306.043C249.641 306.277 250.145 306.395 250.73 306.395C251.449 306.395 252.043 306.242 252.512 305.938C252.98 305.633 253.352 305.23 253.625 304.73C253.906 304.23 254.125 303.688 254.281 303.102V300.277C254.195 299.848 254.062 299.434 253.883 299.035C253.711 298.629 253.484 298.27 253.203 297.957C252.93 297.637 252.59 297.383 252.184 297.195C251.777 297.008 251.301 296.914 250.754 296.914C250.16 296.914 249.648 297.039 249.219 297.289C248.797 297.531 248.449 297.867 248.176 298.297C247.91 298.719 247.711 299.211 247.578 299.773C247.453 300.328 247.391 300.922 247.391 301.555Z" fill="black"/>
<path d="M253.953 295.32H255.922V307.73C255.922 308.848 255.695 309.801 255.242 310.59C254.789 311.379 254.156 311.977 253.344 312.383C252.539 312.797 251.609 313.004 250.555 313.004C250.117 313.004 249.602 312.934 249.008 312.793C248.422 312.66 247.844 312.43 247.273 312.102C246.711 311.781 246.238 311.348 245.855 310.801L246.992 309.512C247.523 310.152 248.078 310.598 248.656 310.848C249.242 311.098 249.82 311.223 250.391 311.223C251.078 311.223 251.672 311.094 252.172 310.836C252.672 310.578 253.059 310.195 253.332 309.688C253.613 309.188 253.754 308.57 253.754 307.836V298.109L253.953 295.32ZM245.223 301.801V301.555C245.223 300.586 245.336 299.707 245.562 298.918C245.797 298.121 246.129 297.438 246.559 296.867C246.996 296.297 247.523 295.859 248.141 295.555C248.758 295.242 249.453 295.086 250.227 295.086C251.023 295.086 251.719 295.227 252.312 295.508C252.914 295.781 253.422 296.184 253.836 296.715C254.258 297.238 254.59 297.871 254.832 298.613C255.074 299.355 255.242 300.195 255.336 301.133V302.211C255.25 303.141 255.082 303.977 254.832 304.719C254.59 305.461 254.258 306.094 253.836 306.617C253.422 307.141 252.914 307.543 252.312 307.824C251.711 308.098 251.008 308.234 250.203 308.234C249.445 308.234 248.758 308.074 248.141 307.754C247.531 307.434 247.008 306.984 246.57 306.406C246.133 305.828 245.797 305.148 245.562 304.367C245.336 303.578 245.223 302.723 245.223 301.801ZM247.391 301.555V301.801C247.391 302.434 247.453 303.027 247.578 303.582C247.711 304.137 247.91 304.625 248.176 305.047C248.449 305.469 248.797 305.801 249.219 306.043C249.641 306.277 250.145 306.395 250.73 306.395C251.449 306.395 252.043 306.242 252.512 305.938C252.98 305.633 253.352 305.23 253.625 304.73C253.906 304.23 254.125 303.688 254.281 303.102V300.277C254.195 299.848 254.062 299.434 253.883 299.035C253.711 298.629 253.484 298.27 253.203 297.957C252.93 297.637 252.59 297.383 252.184 297.195C251.777 297.008 251.301 296.914 250.754 296.914C250.16 296.914 249.648 297.039 249.219 297.289C248.797 297.531 248.449 297.867 248.176 298.297C247.91 298.719 247.711 299.211 247.578 299.773C247.453 300.328 247.391 300.922 247.391 301.555Z" fill="black"/>
<path d="M261.383 298.027V308H259.215V295.32H261.266L261.383 298.027ZM260.867 301.18L259.965 301.145C259.973 300.277 260.102 299.477 260.352 298.742C260.602 298 260.953 297.355 261.406 296.809C261.859 296.262 262.398 295.84 263.023 295.543C263.656 295.238 264.355 295.086 265.121 295.086C265.746 295.086 266.309 295.172 266.809 295.344C267.309 295.508 267.734 295.773 268.086 296.141C268.445 296.508 268.719 296.984 268.906 297.57C269.094 298.148 269.188 298.855 269.188 299.691V308H267.008V299.668C267.008 299.004 266.91 298.473 266.715 298.074C266.52 297.668 266.234 297.375 265.859 297.195C265.484 297.008 265.023 296.914 264.477 296.914C263.938 296.914 263.445 297.027 263 297.254C262.562 297.48 262.184 297.793 261.863 298.191C261.551 298.59 261.305 299.047 261.125 299.562C260.953 300.07 260.867 300.609 260.867 301.18Z" fill="black"/>
<path d="M261.383 298.027V308H259.215V295.32H261.266L261.383 298.027ZM260.867 301.18L259.965 301.145C259.973 300.277 260.102 299.477 260.352 298.742C260.602 298 260.953 297.355 261.406 296.809C261.859 296.262 262.398 295.84 263.023 295.543C263.656 295.238 264.355 295.086 265.121 295.086C265.746 295.086 266.309 295.172 266.809 295.344C267.309 295.508 267.734 295.773 268.086 296.141C268.445 296.508 268.719 296.984 268.906 297.57C269.094 298.148 269.188 298.855 269.188 299.691V308H267.008V299.668C267.008 299.004 266.91 298.473 266.715 298.074C266.52 297.668 266.234 297.375 265.859 297.195C265.484 297.008 265.023 296.914 264.477 296.914C263.938 296.914 263.445 297.027 263 297.254C262.562 297.48 262.184 297.793 261.863 298.191C261.551 298.59 261.305 299.047 261.125 299.562C260.953 300.07 260.867 300.609 260.867 301.18Z" fill="black"/>
<path d="M261.383 298.027V308H259.215V295.32H261.266L261.383 298.027ZM260.867 301.18L259.965 301.145C259.973 300.277 260.102 299.477 260.352 298.742C260.602 298 260.953 297.355 261.406 296.809C261.859 296.262 262.398 295.84 263.023 295.543C263.656 295.238 264.355 295.086 265.121 295.086C265.746 295.086 266.309 295.172 266.809 295.344C267.309 295.508 267.734 295.773 268.086 296.141C268.445 296.508 268.719 296.984 268.906 297.57C269.094 298.148 269.188 298.855 269.188 299.691V308H267.008V299.668C267.008 299.004 266.91 298.473 266.715 298.074C266.52 297.668 266.234 297.375 265.859 297.195C265.484 297.008 265.023 296.914 264.477 296.914C263.938 296.914 263.445 297.027 263 297.254C262.562 297.48 262.184 297.793 261.863 298.191C261.551 298.59 261.305 299.047 261.125 299.562C260.953 300.07 260.867 300.609 260.867 301.18Z" fill="black"/>
<path d="M288.523 290.938H290.773V302.48C290.773 303.762 290.488 304.828 289.918 305.68C289.348 306.531 288.59 307.172 287.645 307.602C286.707 308.023 285.688 308.234 284.586 308.234C283.43 308.234 282.383 308.023 281.445 307.602C280.516 307.172 279.777 306.531 279.23 305.68C278.691 304.828 278.422 303.762 278.422 302.48V290.938H280.66V302.48C280.66 303.371 280.824 304.105 281.152 304.684C281.48 305.262 281.938 305.691 282.523 305.973C283.117 306.254 283.805 306.395 284.586 306.395C285.375 306.395 286.062 306.254 286.648 305.973C287.242 305.691 287.703 305.262 288.031 304.684C288.359 304.105 288.523 303.371 288.523 302.48V290.938Z" fill="black"/>
<path d="M288.523 290.938H290.773V302.48C290.773 303.762 290.488 304.828 289.918 305.68C289.348 306.531 288.59 307.172 287.645 307.602C286.707 308.023 285.688 308.234 284.586 308.234C283.43 308.234 282.383 308.023 281.445 307.602C280.516 307.172 279.777 306.531 279.23 305.68C278.691 304.828 278.422 303.762 278.422 302.48V290.938H280.66V302.48C280.66 303.371 280.824 304.105 281.152 304.684C281.48 305.262 281.938 305.691 282.523 305.973C283.117 306.254 283.805 306.395 284.586 306.395C285.375 306.395 286.062 306.254 286.648 305.973C287.242 305.691 287.703 305.262 288.031 304.684C288.359 304.105 288.523 303.371 288.523 302.48V290.938Z" fill="black"/>
<path d="M288.523 290.938H290.773V302.48C290.773 303.762 290.488 304.828 289.918 305.68C289.348 306.531 288.59 307.172 287.645 307.602C286.707 308.023 285.688 308.234 284.586 308.234C283.43 308.234 282.383 308.023 281.445 307.602C280.516 307.172 279.777 306.531 279.23 305.68C278.691 304.828 278.422 303.762 278.422 302.48V290.938H280.66V302.48C280.66 303.371 280.824 304.105 281.152 304.684C281.48 305.262 281.938 305.691 282.523 305.973C283.117 306.254 283.805 306.395 284.586 306.395C285.375 306.395 286.062 306.254 286.648 305.973C287.242 305.691 287.703 305.262 288.031 304.684C288.359 304.105 288.523 303.371 288.523 302.48V290.938Z" fill="black"/>
<path d="M296.164 297.758V312.875H293.984V295.32H295.977L296.164 297.758ZM304.707 301.555V301.801C304.707 302.723 304.598 303.578 304.379 304.367C304.16 305.148 303.84 305.828 303.418 306.406C303.004 306.984 302.492 307.434 301.883 307.754C301.273 308.074 300.574 308.234 299.785 308.234C298.98 308.234 298.27 308.102 297.652 307.836C297.035 307.57 296.512 307.184 296.082 306.676C295.652 306.168 295.309 305.559 295.051 304.848C294.801 304.137 294.629 303.336 294.535 302.445V301.133C294.629 300.195 294.805 299.355 295.062 298.613C295.32 297.871 295.66 297.238 296.082 296.715C296.512 296.184 297.031 295.781 297.641 295.508C298.25 295.227 298.953 295.086 299.75 295.086C300.547 295.086 301.254 295.242 301.871 295.555C302.488 295.859 303.008 296.297 303.43 296.867C303.852 297.438 304.168 298.121 304.379 298.918C304.598 299.707 304.707 300.586 304.707 301.555ZM302.527 301.801V301.555C302.527 300.922 302.461 300.328 302.328 299.773C302.195 299.211 301.988 298.719 301.707 298.297C301.434 297.867 301.082 297.531 300.652 297.289C300.223 297.039 299.711 296.914 299.117 296.914C298.57 296.914 298.094 297.008 297.688 297.195C297.289 297.383 296.949 297.637 296.668 297.957C296.387 298.27 296.156 298.629 295.977 299.035C295.805 299.434 295.676 299.848 295.59 300.277V303.312C295.746 303.859 295.965 304.375 296.246 304.859C296.527 305.336 296.902 305.723 297.371 306.02C297.84 306.309 298.43 306.453 299.141 306.453C299.727 306.453 300.23 306.332 300.652 306.09C301.082 305.84 301.434 305.5 301.707 305.07C301.988 304.641 302.195 304.148 302.328 303.594C302.461 303.031 302.527 302.434 302.527 301.801Z" fill="black"/>
<path d="M296.164 297.758V312.875H293.984V295.32H295.977L296.164 297.758ZM304.707 301.555V301.801C304.707 302.723 304.598 303.578 304.379 304.367C304.16 305.148 303.84 305.828 303.418 306.406C303.004 306.984 302.492 307.434 301.883 307.754C301.273 308.074 300.574 308.234 299.785 308.234C298.98 308.234 298.27 308.102 297.652 307.836C297.035 307.57 296.512 307.184 296.082 306.676C295.652 306.168 295.309 305.559 295.051 304.848C294.801 304.137 294.629 303.336 294.535 302.445V301.133C294.629 300.195 294.805 299.355 295.062 298.613C295.32 297.871 295.66 297.238 296.082 296.715C296.512 296.184 297.031 295.781 297.641 295.508C298.25 295.227 298.953 295.086 299.75 295.086C300.547 295.086 301.254 295.242 301.871 295.555C302.488 295.859 303.008 296.297 303.43 296.867C303.852 297.438 304.168 298.121 304.379 298.918C304.598 299.707 304.707 300.586 304.707 301.555ZM302.527 301.801V301.555C302.527 300.922 302.461 300.328 302.328 299.773C302.195 299.211 301.988 298.719 301.707 298.297C301.434 297.867 301.082 297.531 300.652 297.289C300.223 297.039 299.711 296.914 299.117 296.914C298.57 296.914 298.094 297.008 297.688 297.195C297.289 297.383 296.949 297.637 296.668 297.957C296.387 298.27 296.156 298.629 295.977 299.035C295.805 299.434 295.676 299.848 295.59 300.277V303.312C295.746 303.859 295.965 304.375 296.246 304.859C296.527 305.336 296.902 305.723 297.371 306.02C297.84 306.309 298.43 306.453 299.141 306.453C299.727 306.453 300.23 306.332 300.652 306.09C301.082 305.84 301.434 305.5 301.707 305.07C301.988 304.641 302.195 304.148 302.328 303.594C302.461 303.031 302.527 302.434 302.527 301.801Z" fill="black"/>
<path d="M296.164 297.758V312.875H293.984V295.32H295.977L296.164 297.758ZM304.707 301.555V301.801C304.707 302.723 304.598 303.578 304.379 304.367C304.16 305.148 303.84 305.828 303.418 306.406C303.004 306.984 302.492 307.434 301.883 307.754C301.273 308.074 300.574 308.234 299.785 308.234C298.98 308.234 298.27 308.102 297.652 307.836C297.035 307.57 296.512 307.184 296.082 306.676C295.652 306.168 295.309 305.559 295.051 304.848C294.801 304.137 294.629 303.336 294.535 302.445V301.133C294.629 300.195 294.805 299.355 295.062 298.613C295.32 297.871 295.66 297.238 296.082 296.715C296.512 296.184 297.031 295.781 297.641 295.508C298.25 295.227 298.953 295.086 299.75 295.086C300.547 295.086 301.254 295.242 301.871 295.555C302.488 295.859 303.008 296.297 303.43 296.867C303.852 297.438 304.168 298.121 304.379 298.918C304.598 299.707 304.707 300.586 304.707 301.555ZM302.527 301.801V301.555C302.527 300.922 302.461 300.328 302.328 299.773C302.195 299.211 301.988 298.719 301.707 298.297C301.434 297.867 301.082 297.531 300.652 297.289C300.223 297.039 299.711 296.914 299.117 296.914C298.57 296.914 298.094 297.008 297.688 297.195C297.289 297.383 296.949 297.637 296.668 297.957C296.387 298.27 296.156 298.629 295.977 299.035C295.805 299.434 295.676 299.848 295.59 300.277V303.312C295.746 303.859 295.965 304.375 296.246 304.859C296.527 305.336 296.902 305.723 297.371 306.02C297.84 306.309 298.43 306.453 299.141 306.453C299.727 306.453 300.23 306.332 300.652 306.09C301.082 305.84 301.434 305.5 301.707 305.07C301.988 304.641 302.195 304.148 302.328 303.594C302.461 303.031 302.527 302.434 302.527 301.801Z" fill="black"/>
<rect x="99" y="632" width="333" height="13.7921" rx="6.89604" fill="#16194F" fill-opacity="0.85"/>
<rect x="99" y="670.421" width="333" height="13.7921" rx="6.89604" fill="#16194F" fill-opacity="0.85"/>
<rect x="99" y="708.842" width="333" height="13.7921" rx="6.89604" fill="#16194F" fill-opacity="0.85"/>
<rect x="99" y="747.262" width="333" height="13.7921" rx="6.89604" fill="#16194F" fill-opacity="0.85"/>
<rect x="99" y="785.683" width="333" height="13.7921" rx="6.89604" fill="#16194F" fill-opacity="0.85"/>
<rect x="99" y="824.104" width="333" height="13.7921" rx="6.89604" fill="#16194F" fill-opacity="0.85"/>
<rect x="99" y="862.525" width="333" height="13.7921" rx="6.89604" fill="#16194F" fill-opacity="0.85"/>
<rect x="99" y="900.946" width="333" height="13.7921" rx="6.89604" fill="#16194F" fill-opacity="0.85"/>
<rect x="99" y="939.366" width="333" height="13.7921" rx="6.89604" fill="#16194F" fill-opacity="0.85"/>
<rect x="99" y="977.787" width="333" height="13.7921" rx="6.89604" fill="#16194F" fill-opacity="0.85"/>
<rect x="99" y="1016.21" width="333" height="13.7921" rx="6.89604" fill="#16194F" fill-opacity="0.85"/>
<defs>
<filter id="filter0_d_223_3" x="0" y="0" width="530" height="1246" filterUnits="userSpaceOnUse" color-interpolation-filters="sRGB">
<feFlood flood-opacity="0" result="BackgroundImageFix"/>
<feColorMatrix in="SourceAlpha" type="matrix" values="0 0 0 0 0 0 0 0 0 0 0 0 0 0 0 0 0 0 127 0" result="hardAlpha"/>
<feOffset dy="25"/>
<feGaussianBlur stdDeviation="25"/>
<feComposite in2="hardAlpha" operator="out"/>
<feColorMatrix type="matrix" values="0 0 0 0 0 0 0 0 0 0 0 0 0 0 0 0 0 0 0.05 0"/>
<feBlend mode="normal" in2="BackgroundImageFix" result="effect1_dropShadow_223_3"/>
<feBlend mode="normal" in="SourceGraphic" in2="effect1_dropShadow_223_3" result="shape"/>
</filter>
</defs>
</svg>
