<svg width="139" height="28" viewBox="0 0 139 28" fill="none" xmlns="http://www.w3.org/2000/svg">
<path d="M0 8.33594H3.53027C4.33105 8.33594 5.00732 8.45801 5.55908 8.70215C6.11572 8.94629 6.53809 9.30762 6.82617 9.78613C7.11914 10.2598 7.26562 10.8433 7.26562 11.5366C7.26562 12.0249 7.16553 12.4717 6.96533 12.877C6.77002 13.2773 6.48682 13.6191 6.11572 13.9023C5.74951 14.1807 5.31006 14.3882 4.79736 14.5249L4.40186 14.6787H1.08398L1.06934 13.5288H3.57422C4.08203 13.5288 4.50439 13.4409 4.84131 13.2651C5.17822 13.0845 5.43213 12.8428 5.60303 12.54C5.77393 12.2373 5.85938 11.9028 5.85938 11.5366C5.85938 11.1265 5.77881 10.7676 5.61768 10.46C5.45654 10.1523 5.20264 9.91553 4.85596 9.74951C4.51416 9.57861 4.07227 9.49316 3.53027 9.49316H1.41357V19H0V8.33594ZM6.23291 19L3.64014 14.166L5.1123 14.1587L7.7417 18.9121V19H6.23291Z" fill="white"/>
<path d="M12.3267 19.1465C11.7749 19.1465 11.2744 19.0537 10.8252 18.8682C10.3809 18.6777 9.99756 18.4116 9.67529 18.0698C9.35791 17.728 9.11377 17.3228 8.94287 16.854C8.77197 16.3853 8.68652 15.8726 8.68652 15.3159V15.0083C8.68652 14.3638 8.78174 13.79 8.97217 13.2871C9.1626 12.7793 9.42139 12.3496 9.74854 11.998C10.0757 11.6465 10.4468 11.3804 10.8618 11.1997C11.2769 11.019 11.7065 10.9287 12.1509 10.9287C12.7173 10.9287 13.2056 11.0264 13.6157 11.2217C14.0308 11.417 14.3701 11.6904 14.6338 12.042C14.8975 12.3887 15.0928 12.7988 15.2197 13.2725C15.3467 13.7412 15.4102 14.2539 15.4102 14.8105V15.4185H9.49219V14.3125H14.0552V14.21C14.0356 13.8584 13.9624 13.5166 13.8354 13.1846C13.7134 12.8525 13.5181 12.5791 13.2495 12.3643C12.981 12.1494 12.6147 12.042 12.1509 12.042C11.8433 12.042 11.5601 12.1079 11.3013 12.2397C11.0425 12.3667 10.8203 12.5571 10.6348 12.811C10.4492 13.0649 10.3052 13.375 10.2026 13.7412C10.1001 14.1074 10.0488 14.5298 10.0488 15.0083V15.3159C10.0488 15.6919 10.1001 16.0459 10.2026 16.3779C10.3101 16.7051 10.4639 16.9932 10.6641 17.2422C10.8691 17.4912 11.1157 17.6865 11.4038 17.8281C11.6968 17.9697 12.0288 18.0405 12.3999 18.0405C12.8784 18.0405 13.2837 17.9429 13.6157 17.7476C13.9478 17.5522 14.2383 17.291 14.4873 16.9639L15.3076 17.6157C15.1367 17.8745 14.9194 18.1211 14.6558 18.3555C14.3921 18.5898 14.0674 18.7803 13.6816 18.9268C13.3008 19.0732 12.8491 19.1465 12.3267 19.1465Z" fill="white"/>
<path d="M22.1265 11.0752H23.3569V18.8315C23.3569 19.5298 23.2153 20.1255 22.9321 20.6187C22.6489 21.1118 22.2534 21.4854 21.7456 21.7393C21.2427 21.998 20.6616 22.1274 20.0024 22.1274C19.729 22.1274 19.4067 22.0835 19.0356 21.9956C18.6694 21.9126 18.3081 21.7686 17.9517 21.5635C17.6001 21.3633 17.3047 21.0923 17.0654 20.7505L17.7759 19.9448C18.1079 20.3452 18.4546 20.6235 18.8159 20.7798C19.1821 20.936 19.5435 21.0142 19.8999 21.0142C20.3296 21.0142 20.7007 20.9336 21.0132 20.7725C21.3257 20.6113 21.5674 20.3721 21.7383 20.0547C21.9141 19.7422 22.002 19.3564 22.002 18.8975V12.8184L22.1265 11.0752ZM16.6699 15.1255V14.9717C16.6699 14.3662 16.7407 13.8169 16.8823 13.3237C17.0288 12.8257 17.2363 12.3984 17.5049 12.042C17.7783 11.6855 18.1079 11.4121 18.4937 11.2217C18.8794 11.0264 19.314 10.9287 19.7974 10.9287C20.2954 10.9287 20.73 11.0166 21.1011 11.1924C21.4771 11.3633 21.7944 11.6147 22.0532 11.9468C22.3169 12.2739 22.5244 12.6694 22.6758 13.1333C22.8271 13.5972 22.9321 14.1221 22.9907 14.708V15.3818C22.937 15.9629 22.832 16.4854 22.6758 16.9492C22.5244 17.4131 22.3169 17.8086 22.0532 18.1357C21.7944 18.4629 21.4771 18.7144 21.1011 18.8901C20.7251 19.061 20.2856 19.1465 19.7827 19.1465C19.3091 19.1465 18.8794 19.0464 18.4937 18.8462C18.1128 18.646 17.7856 18.3652 17.5122 18.0039C17.2388 17.6426 17.0288 17.2178 16.8823 16.7295C16.7407 16.2363 16.6699 15.7017 16.6699 15.1255ZM18.0249 14.9717V15.1255C18.0249 15.521 18.064 15.8921 18.1421 16.2388C18.2251 16.5854 18.3496 16.8906 18.5156 17.1543C18.6865 17.418 18.9038 17.6255 19.1675 17.7769C19.4312 17.9233 19.7461 17.9966 20.1123 17.9966C20.5615 17.9966 20.9326 17.9014 21.2256 17.7109C21.5186 17.5205 21.7505 17.269 21.9214 16.9565C22.0972 16.644 22.2339 16.3047 22.3315 15.9385V14.1733C22.2778 13.9048 22.1948 13.646 22.0825 13.397C21.9751 13.1431 21.8335 12.9185 21.6577 12.7231C21.4868 12.5229 21.2744 12.3643 21.0205 12.2471C20.7666 12.1299 20.4688 12.0713 20.127 12.0713C19.7559 12.0713 19.436 12.1494 19.1675 12.3057C18.9038 12.457 18.6865 12.667 18.5156 12.9355C18.3496 13.1992 18.2251 13.5068 18.1421 13.8584C18.064 14.2051 18.0249 14.5762 18.0249 14.9717Z" fill="white"/>
<path d="M26.8872 11.0752V19H25.5249V11.0752H26.8872ZM25.4224 8.97314C25.4224 8.75342 25.4883 8.56787 25.6201 8.4165C25.7568 8.26514 25.957 8.18945 26.2207 8.18945C26.4795 8.18945 26.6772 8.26514 26.814 8.4165C26.9556 8.56787 27.0264 8.75342 27.0264 8.97314C27.0264 9.18311 26.9556 9.36377 26.814 9.51514C26.6772 9.66162 26.4795 9.73486 26.2207 9.73486C25.957 9.73486 25.7568 9.66162 25.6201 9.51514C25.4883 9.36377 25.4224 9.18311 25.4224 8.97314Z" fill="white"/>
<path d="M33.6768 16.8979C33.6768 16.7026 33.6328 16.522 33.5449 16.356C33.4619 16.1851 33.2886 16.0312 33.0249 15.8945C32.7661 15.7529 32.3755 15.6309 31.853 15.5283C31.4136 15.4355 31.0156 15.3257 30.6592 15.1987C30.3076 15.0718 30.0073 14.918 29.7583 14.7373C29.5142 14.5566 29.3262 14.3442 29.1943 14.1001C29.0625 13.856 28.9966 13.5703 28.9966 13.2432C28.9966 12.9307 29.0649 12.6353 29.2017 12.3569C29.3433 12.0786 29.541 11.832 29.7949 11.6172C30.0537 11.4023 30.3638 11.2339 30.7251 11.1118C31.0864 10.9897 31.4893 10.9287 31.9336 10.9287C32.5684 10.9287 33.1104 11.041 33.5596 11.2656C34.0088 11.4902 34.353 11.7905 34.5923 12.1665C34.8315 12.5376 34.9512 12.9502 34.9512 13.4043H33.5962C33.5962 13.1846 33.5303 12.9722 33.3984 12.7671C33.2715 12.5571 33.0835 12.3838 32.8345 12.2471C32.5903 12.1104 32.29 12.042 31.9336 12.042C31.5576 12.042 31.2524 12.1006 31.0181 12.2178C30.7886 12.3301 30.6201 12.4741 30.5127 12.6499C30.4102 12.8257 30.3589 13.0112 30.3589 13.2065C30.3589 13.353 30.3833 13.4849 30.4321 13.6021C30.4858 13.7144 30.5786 13.8193 30.7104 13.917C30.8423 14.0098 31.0278 14.0977 31.2671 14.1807C31.5063 14.2637 31.8115 14.3467 32.1826 14.4297C32.832 14.5762 33.3667 14.752 33.7866 14.957C34.2065 15.1621 34.519 15.4136 34.7241 15.7114C34.9292 16.0093 35.0317 16.3706 35.0317 16.7954C35.0317 17.1421 34.9585 17.4595 34.812 17.7476C34.6704 18.0356 34.4629 18.2847 34.1895 18.4946C33.9209 18.6997 33.5986 18.8608 33.2227 18.978C32.8516 19.0903 32.4341 19.1465 31.9702 19.1465C31.272 19.1465 30.6812 19.022 30.1978 18.7729C29.7144 18.5239 29.3481 18.2017 29.0991 17.8062C28.8501 17.4106 28.7256 16.9932 28.7256 16.5537H30.0879C30.1074 16.9248 30.2148 17.2202 30.4102 17.4399C30.6055 17.6548 30.8447 17.8086 31.1279 17.9014C31.4111 17.9893 31.6919 18.0332 31.9702 18.0332C32.3413 18.0332 32.6514 17.9844 32.9004 17.8867C33.1543 17.7891 33.3472 17.6548 33.479 17.4839C33.6108 17.313 33.6768 17.1177 33.6768 16.8979Z" fill="white"/>
<path d="M40.1294 11.0752V12.1152H35.8447V11.0752H40.1294ZM37.2949 9.14893H38.6499V17.0371C38.6499 17.3057 38.6914 17.5083 38.7744 17.645C38.8574 17.7817 38.9648 17.8721 39.0967 17.916C39.2285 17.96 39.3701 17.9819 39.5215 17.9819C39.6338 17.9819 39.751 17.9722 39.873 17.9526C40 17.9282 40.0952 17.9087 40.1587 17.894L40.166 19C40.0586 19.0342 39.917 19.0659 39.7412 19.0952C39.5703 19.1294 39.3628 19.1465 39.1187 19.1465C38.7866 19.1465 38.4814 19.0806 38.2031 18.9487C37.9248 18.8169 37.7026 18.5972 37.5366 18.2896C37.3755 17.9771 37.2949 17.5571 37.2949 17.0298V9.14893Z" fill="white"/>
<path d="M45.0073 19.1465C44.4556 19.1465 43.9551 19.0537 43.5059 18.8682C43.0615 18.6777 42.6782 18.4116 42.356 18.0698C42.0386 17.728 41.7944 17.3228 41.6235 16.854C41.4526 16.3853 41.3672 15.8726 41.3672 15.3159V15.0083C41.3672 14.3638 41.4624 13.79 41.6528 13.2871C41.8433 12.7793 42.1021 12.3496 42.4292 11.998C42.7563 11.6465 43.1274 11.3804 43.5425 11.1997C43.9575 11.019 44.3872 10.9287 44.8315 10.9287C45.3979 10.9287 45.8862 11.0264 46.2964 11.2217C46.7114 11.417 47.0508 11.6904 47.3145 12.042C47.5781 12.3887 47.7734 12.7988 47.9004 13.2725C48.0273 13.7412 48.0908 14.2539 48.0908 14.8105V15.4185H42.1729V14.3125H46.7358V14.21C46.7163 13.8584 46.6431 13.5166 46.5161 13.1846C46.394 12.8525 46.1987 12.5791 45.9302 12.3643C45.6616 12.1494 45.2954 12.042 44.8315 12.042C44.5239 12.042 44.2407 12.1079 43.9819 12.2397C43.7231 12.3667 43.501 12.5571 43.3154 12.811C43.1299 13.0649 42.9858 13.375 42.8833 13.7412C42.7808 14.1074 42.7295 14.5298 42.7295 15.0083V15.3159C42.7295 15.6919 42.7808 16.0459 42.8833 16.3779C42.9907 16.7051 43.1445 16.9932 43.3447 17.2422C43.5498 17.4912 43.7964 17.6865 44.0845 17.8281C44.3774 17.9697 44.7095 18.0405 45.0806 18.0405C45.5591 18.0405 45.9644 17.9429 46.2964 17.7476C46.6284 17.5522 46.9189 17.291 47.168 16.9639L47.9883 17.6157C47.8174 17.8745 47.6001 18.1211 47.3364 18.3555C47.0728 18.5898 46.748 18.7803 46.3623 18.9268C45.9814 19.0732 45.5298 19.1465 45.0073 19.1465Z" fill="white"/>
<path d="M51.0278 12.3203V19H49.6729V11.0752H50.9912L51.0278 12.3203ZM53.5034 11.0312L53.4961 12.291C53.3838 12.2666 53.2764 12.252 53.1738 12.2471C53.0762 12.2373 52.9639 12.2324 52.8369 12.2324C52.5244 12.2324 52.2485 12.2812 52.0093 12.3789C51.77 12.4766 51.5674 12.6133 51.4014 12.7891C51.2354 12.9648 51.1035 13.1748 51.0059 13.4189C50.9131 13.6582 50.8521 13.9219 50.8228 14.21L50.4419 14.4297C50.4419 13.9512 50.4883 13.502 50.5811 13.082C50.6787 12.6621 50.8276 12.291 51.0278 11.9688C51.228 11.6416 51.4819 11.3877 51.7896 11.207C52.1021 11.0215 52.4731 10.9287 52.9028 10.9287C53.0005 10.9287 53.1128 10.9409 53.2397 10.9653C53.3667 10.9849 53.4546 11.0068 53.5034 11.0312Z" fill="white"/>
<path d="M59.8315 12.7671V19H58.4766V11.0752H59.7583L59.8315 12.7671ZM59.5093 14.7373L58.9453 14.7153C58.9502 14.1733 59.0308 13.6729 59.187 13.2139C59.3433 12.75 59.563 12.3472 59.8462 12.0054C60.1294 11.6636 60.4663 11.3999 60.8569 11.2144C61.2524 11.0239 61.6895 10.9287 62.168 10.9287C62.5586 10.9287 62.9102 10.9824 63.2227 11.0898C63.5352 11.1924 63.8013 11.3584 64.021 11.5879C64.2456 11.8174 64.4165 12.1152 64.5337 12.4814C64.6509 12.8428 64.7095 13.2847 64.7095 13.8071V19H63.3472V13.7925C63.3472 13.3774 63.2861 13.0454 63.1641 12.7964C63.042 12.5425 62.8638 12.3594 62.6294 12.2471C62.395 12.1299 62.1069 12.0713 61.7651 12.0713C61.4282 12.0713 61.1206 12.1421 60.8423 12.2837C60.5688 12.4253 60.332 12.6206 60.1318 12.8696C59.9365 13.1187 59.7827 13.4043 59.6704 13.7266C59.563 14.0439 59.5093 14.3809 59.5093 14.7373Z" fill="white"/>
<path d="M66.4087 15.1255V14.957C66.4087 14.3857 66.4917 13.856 66.6577 13.3677C66.8237 12.8745 67.063 12.4473 67.3755 12.0859C67.688 11.7197 68.0664 11.4365 68.5107 11.2363C68.9551 11.0312 69.4531 10.9287 70.0049 10.9287C70.5615 10.9287 71.062 11.0312 71.5063 11.2363C71.9556 11.4365 72.3364 11.7197 72.6489 12.0859C72.9663 12.4473 73.208 12.8745 73.374 13.3677C73.54 13.856 73.623 14.3857 73.623 14.957V15.1255C73.623 15.6968 73.54 16.2266 73.374 16.7148C73.208 17.2031 72.9663 17.6304 72.6489 17.9966C72.3364 18.3579 71.958 18.6411 71.5137 18.8462C71.0742 19.0464 70.5762 19.1465 70.0195 19.1465C69.4629 19.1465 68.9624 19.0464 68.5181 18.8462C68.0737 18.6411 67.6929 18.3579 67.3755 17.9966C67.063 17.6304 66.8237 17.2031 66.6577 16.7148C66.4917 16.2266 66.4087 15.6968 66.4087 15.1255ZM67.7637 14.957V15.1255C67.7637 15.521 67.8101 15.8945 67.9028 16.2461C67.9956 16.5928 68.1348 16.9004 68.3203 17.1689C68.5107 17.4375 68.7476 17.6499 69.0308 17.8062C69.314 17.9575 69.6436 18.0332 70.0195 18.0332C70.3906 18.0332 70.7153 17.9575 70.9937 17.8062C71.2769 17.6499 71.5112 17.4375 71.6968 17.1689C71.8823 16.9004 72.0215 16.5928 72.1143 16.2461C72.2119 15.8945 72.2607 15.521 72.2607 15.1255V14.957C72.2607 14.5664 72.2119 14.1978 72.1143 13.8511C72.0215 13.4995 71.8799 13.1895 71.6895 12.9209C71.5039 12.6475 71.2695 12.4326 70.9863 12.2764C70.708 12.1201 70.3809 12.042 70.0049 12.042C69.6338 12.042 69.3066 12.1201 69.0234 12.2764C68.7451 12.4326 68.5107 12.6475 68.3203 12.9209C68.1348 13.1895 67.9956 13.4995 67.9028 13.8511C67.8101 14.1978 67.7637 14.5664 67.7637 14.957Z" fill="white"/>
<path d="M77.3291 17.5938L79.3652 11.0752H80.2588L80.083 12.3716L78.0103 19H77.1387L77.3291 17.5938ZM75.9595 11.0752L77.6953 17.667L77.8198 19H76.9043L74.6045 11.0752H75.9595ZM82.207 17.6157L83.8623 11.0752H85.21L82.9102 19H82.002L82.207 17.6157ZM80.4565 11.0752L82.4487 17.4839L82.6758 19H81.8115L79.6802 12.3569L79.5044 11.0752H80.4565Z" fill="white"/>
<path fill-rule="evenodd" clip-rule="evenodd" d="M110.762 14C110.762 12.8955 111.389 11.9999 112.162 11.9999H137.362C138.135 11.9999 138.762 12.8955 138.762 14C138.762 15.1047 138.135 16.0001 137.362 16.0001H112.162C111.389 16.0001 110.762 15.1047 110.762 14Z" fill="#3EBDF2"/>
<path fill-rule="evenodd" clip-rule="evenodd" d="M127.972 0.585786C128.519 -0.195262 129.405 -0.195262 129.952 0.585786L138.352 12.5859C138.899 13.3668 138.899 14.6333 138.352 15.4143L129.952 27.4144C129.405 28.1952 128.519 28.1952 127.972 27.4144C127.426 26.6333 127.426 25.3668 127.972 24.5859L135.382 14L127.972 3.41423C127.426 2.63316 127.426 1.36685 127.972 0.585786Z" fill="#DD2F6C"/>
</svg>
